<svg xmlns="http://www.w3.org/2000/svg" viewBox="0 0 49.52 50.82"><defs><style>.cls-1{fill:#fff;}</style></defs><title>ic-butt-close</title><g id="Layer_2" data-name="Layer 2"><g id="Layer_1-2" data-name="Layer 1"><path class="cls-1" d="M39.26,41.16a.8.8,0,0,1-.36.28,1.75,1.75,0,0,0-.36.18.46.46,0,0,0-.25.25,1.31,1.31,0,0,1-.15.3l-.33.1a.48.48,0,0,0-.28.2,1.1,1.1,0,0,0,.15.41.63.63,0,0,1,.1.36,3.07,3.07,0,0,0-.58.33,1.07,1.07,0,0,1-.58.23h-.84c-.12,0-.21-.1-.28-.3l-.61.1a4.07,4.07,0,0,1-.51-1.12,1.69,1.69,0,0,0-.81-1c.07-.2,0-.34-.15-.41a.74.74,0,0,1-.36-.25.57.57,0,0,1-.05-.41q0-.2-.3-.15a2.64,2.64,0,0,0,0-.86.63.63,0,0,0-.23-.36A1.55,1.55,0,0,0,32,38.9a1.42,1.42,0,0,1-.56-.38.42.42,0,0,0,.08-.56,1.28,1.28,0,0,1-.18-.66,1.27,1.27,0,0,0-.43-.76,2,2,0,0,1-.53-.86,1.49,1.49,0,0,1-.33-.33.59.59,0,0,0-.38-.23q.1-.3-.1-.36t-.15-.3a.86.86,0,0,0-.51-.38c-.2-.05-.3-.26-.3-.63a1.8,1.8,0,0,0-.25-.51,1.41,1.41,0,0,0-.41-.36,1.25,1.25,0,0,0-.38-1.12,11.3,11.3,0,0,1-.84-.76l-.51-.51c-.27-.27-.46-.39-.56-.36q.1-.3-.28-.53a3,3,0,0,1-.58-.43,2.05,2.05,0,0,0-.81.56,6.31,6.31,0,0,0-.56.76L23,31a2.63,2.63,0,0,1-.66.71.5.5,0,0,1-.08.3.46.46,0,0,0,0,.36,3.41,3.41,0,0,0-1.07,1,2.83,2.83,0,0,1-1.12,1,2,2,0,0,1-.86,1.42v.56a.93.93,0,0,0-.46.61.91.91,0,0,1-.51.61.53.53,0,0,1-.18.51,3.71,3.71,0,0,0-.43.46,1.14,1.14,0,0,0-.15.33.76.76,0,0,1-.2.33.61.61,0,0,0-.41.46c0,.2-.17.27-.41.2.1.1.13.2.08.28a.53.53,0,0,0-.08.28.5.5,0,0,0-.48.41q-.08.36-.53.36a.69.69,0,0,1-.23.58,5.35,5.35,0,0,0-.48.43.41.41,0,0,1-.1.3c-.07.07-.07.19,0,.36h-.51a1.52,1.52,0,0,1-.66.74,1.81,1.81,0,0,1-1,.38,1.77,1.77,0,0,1-.71-.28l-.81-.51-.81-.51a3.87,3.87,0,0,1-.41-.28A2.69,2.69,0,0,1,9.58,42a1.2,1.2,0,0,1-.08-.33.3.3,0,0,1,.13-.28,1.19,1.19,0,0,0,.23-.18,5,5,0,0,1,.84-1c.15-.1.23-.39.23-.86a1.72,1.72,0,0,0,.74-.61,1.42,1.42,0,0,1,.74-.56,1.06,1.06,0,0,1,.48-.63,2,2,0,0,0,.58-.48.58.58,0,0,0,.18-.48,1.12,1.12,0,0,1,.08-.53,3.38,3.38,0,0,0,.86-.86.93.93,0,0,1,.61-.46v-.51a.84.84,0,0,0,.48-.51,2.09,2.09,0,0,1,.33-.61c.24-.27.41-.41.51-.43a.45.45,0,0,0,.25-.13.93.93,0,0,0,.3-.41.62.62,0,0,1,.41-.36q-.1-.41.15-.53a.37.37,0,0,0,.2-.43.41.41,0,0,0,.25-.08.41.41,0,0,1,.25-.08.67.67,0,0,1,.15-.53l.43-.58q.23-.3.43-.61a.75.75,0,0,0,.15-.56.45.45,0,0,0,.46-.23,1.43,1.43,0,0,1,.3-.43,1.83,1.83,0,0,1,.53-.38,1.82,1.82,0,0,0,.53-.38c.07-.24.14-.48.23-.74a.7.7,0,0,1,.53-.48c-.1-.24-.2-.43-.28-.58a1.72,1.72,0,0,0-.28-.38l-.33-.3-.48-.41a1.28,1.28,0,0,1-.3-.3.48.48,0,0,0-.41-.2q-.1-.41-.28-1a2.58,2.58,0,0,0-.43-.89,2,2,0,0,1-.53-1q0-.41-.58-.66a5.17,5.17,0,0,1-.84-1,1.23,1.23,0,0,0-.94-.58,1.1,1.1,0,0,1-.15-.36.46.46,0,0,0-.25-.3c-.3-.2-.47-.37-.51-.51a2.6,2.6,0,0,0-.13-.38,1.42,1.42,0,0,0-.23-.36,2.59,2.59,0,0,0-.56-.43,6.44,6.44,0,0,0-.84-1.24q-.53-.63-1-1.14a3,3,0,0,0-.46-.46,1.69,1.69,0,0,1-.41-.46,1.6,1.6,0,0,1-.2-.61.91.91,0,0,0-.41-.61,1.09,1.09,0,0,0-.56-.1,3.21,3.21,0,0,0-.2-.84,5,5,0,0,0-.41-.79q.2-.46.38-1a4.54,4.54,0,0,1,.43-.91c.17-.07.28-.06.33,0s.14.11.28.08a1,1,0,0,1,.53-.41,1.67,1.67,0,0,1,.71-.05,4.21,4.21,0,0,1,.76.18,4.46,4.46,0,0,0,.69.18,1.75,1.75,0,0,0,.56.66,1.41,1.41,0,0,1,.51.66c.17,0,.26.09.28.18s.13.09.33,0a4.72,4.72,0,0,0,.63,1.12,6.06,6.06,0,0,1,.58.86,3.24,3.24,0,0,1,.15.48,1.11,1.11,0,0,0,.2.43,1.81,1.81,0,0,1,.53.86,1.27,1.27,0,0,0,.18.56c.3.27.46.45.48.53a.43.43,0,0,0,.13.23,1.9,1.9,0,0,0,.43.41,2.89,2.89,0,0,1,.43.36,2.82,2.82,0,0,0,.74,1.35,8.6,8.6,0,0,0,1.19,1,2.06,2.06,0,0,0,.63.91,2.52,2.52,0,0,1,.69.91,1,1,0,0,1,.36.33.49.49,0,0,0,.36.23,1.36,1.36,0,0,0,1.12,1.12.4.4,0,0,0,.23-.33,4,4,0,0,0,0-.43.36.36,0,0,0,.3,0,.7.7,0,0,0,.18-.2,1.08,1.08,0,0,1,.15-.2c.05-.05.16-.06.33,0l.41-.53.41-.58a.68.68,0,0,1,0-.56,2.44,2.44,0,0,0,.23-.51.46.46,0,0,0,.36,0,.66.66,0,0,0,.15-.15,1,1,0,0,1,.13-.15c.05-.05.16-.06.33,0a5.14,5.14,0,0,0,.69-.84,2,2,0,0,1,.79-.69.59.59,0,0,1,.18-.43.59.59,0,0,0,.18-.43.64.64,0,0,0,.38-.2,3.33,3.33,0,0,0,.25-.36l.23-.38a.68.68,0,0,1,.36-.28.77.77,0,0,1,.15-.63.85.85,0,0,0,.2-.58,1.14,1.14,0,0,0,.61-.51,1.13,1.13,0,0,1,.61-.51c0-.17,0-.28.05-.33a.79.79,0,0,0,.2-.33,1.08,1.08,0,0,1,.56-.1,14.45,14.45,0,0,0,.84-1.24,2.26,2.26,0,0,1,1.14-.94c0-.1-.08-.21-.13-.33s0-.23.13-.33a3.31,3.31,0,0,0,.81-.1,3.35,3.35,0,0,1,.81-.1,1.3,1.3,0,0,1,.53.13,1,1,0,0,0,.58.08,4.59,4.59,0,0,0,.23.41.55.55,0,0,0,.38.25q-.2.15-.08.3a1,1,0,0,1,.18.3c-.1.2-.08.32.05.36s.2.27.2.71a1.26,1.26,0,0,1-.2.71,2.62,2.62,0,0,1-.51.56c-.07.24-.14.36-.23.36a.32.32,0,0,0-.23.1,1.23,1.23,0,0,1-.13.38.54.54,0,0,0,0,.38l-.28.28-.38.38a2.31,2.31,0,0,1-.41.33.79.79,0,0,1-.25.13c.1.44.08.63-.05.58l-.3-.13a1,1,0,0,0-.43.33,1,1,0,0,1-.43.33.53.53,0,0,0,.08.43.54.54,0,0,1,.08.43l-.61.1a3.19,3.19,0,0,1-1,.56.7.7,0,0,1,0,.61,1.49,1.49,0,0,1-.36.38,3.24,3.24,0,0,0-.43.41.75.75,0,0,0-.1.69q-.36-.1-.41.08a.46.46,0,0,1-.3.28.19.19,0,0,1,.05.28.49.49,0,0,0-.05.38,1.15,1.15,0,0,0-.56.33,1.15,1.15,0,0,1-.56.33c.07.2.05.35-.05.43a1.5,1.5,0,0,1-.41.23.93.93,0,0,1-.23.69,2.52,2.52,0,0,0-.38.48,1.08,1.08,0,0,0-.2.36,1.19,1.19,0,0,1-.15.3c-.3.14-.45.23-.43.28s0,.11-.08.18a.67.67,0,0,1-.23.15.51.51,0,0,0-.23.2.59.59,0,0,0-.18.28l-.05.25a.82.82,0,0,1-.13.28,1.49,1.49,0,0,1-.41.36,3.34,3.34,0,0,0,.38.74,3.38,3.38,0,0,1,.38.74,1.25,1.25,0,0,1,.56.46,1,1,0,0,0,.61.41.91.91,0,0,0,.18.43,5.64,5.64,0,0,0,.41.56l.43.51a.92.92,0,0,0,.36.28,1,1,0,0,0,.36.84,1.29,1.29,0,0,1,.46.79.92.92,0,0,1,.56.56,1.31,1.31,0,0,0,.56.66.71.71,0,0,0,.08.51.85.85,0,0,1,.13.46c0,.17.11.28.33.33a.34.34,0,0,1,.28.43.7.7,0,0,0,.51.15c-.07.3,0,.5.18.58s.25.28.18.58a3.55,3.55,0,0,1,.71,1.09,1.42,1.42,0,0,0,1,.79,1,1,0,0,0,.43.84l.79.48c.07.14.06.24,0,.3a.31.31,0,0,0-.13.25.91.91,0,0,0,.23.58q.23.28.53.61a7.33,7.33,0,0,1,.56.69A1.66,1.66,0,0,1,39.26,41.16Z"/><path class="cls-1" d="M45.93,25.41c.17.07.57,0,.48-.17l-.67-.13Z"/><path class="cls-1" d="M47.09,24a1.78,1.78,0,0,0-1.51-.25c.65.18.38.25,1.15.46.09.2-.19.36-.44.33.17.06-.13.31.29.41.5-.27.5-.62.06-.94C46.79,24,47,24,47.09,24Z"/><path class="cls-1" d="M38.33,6.34l.06.14A.24.24,0,0,0,38.33,6.34Z"/><path class="cls-1" d="M26.34,1.7a.16.16,0,0,0,.16-.13C26.4,1.6,26.32,1.64,26.34,1.7Z"/><path class="cls-1" d="M24.08.92l.14,0C24.16.9,24.11.87,24.08.92Z"/><path class="cls-1" d="M38.33,6.34,38.17,6C38,6.12,38.23,6.2,38.33,6.34Z"/><path class="cls-1" d="M45.19,21.6a.43.43,0,0,0,.2.13,1,1,0,0,1-.09-.14Z"/><path class="cls-1" d="M42.94,9.82,43,9.9l.27-.11Z"/><path class="cls-1" d="M45.6,13.41c0-.1-.54.15-.77.25a.54.54,0,0,1,.45,0A1.8,1.8,0,0,0,45.6,13.41Z"/><path class="cls-1" d="M47.24,20.24l.11.1Z"/><path class="cls-1" d="M40.77,7.45a.78.78,0,0,0,.1-.18A.55.55,0,0,0,40.77,7.45Z"/><path class="cls-1" d="M44.15,29.68l.1,0S44.16,29.65,44.15,29.68Z"/><path class="cls-1" d="M47.41,25.41l0,.07.31,0Z"/><path class="cls-1" d="M19.74.67h0C19.86.6,19.8.62,19.74.67Z"/><path class="cls-1" d="M.5,30.66c.38-.53.8.55,1.19-.2C1.49,30.57.69,30.06.5,30.66Z"/><path class="cls-1" d="M45.25,21.49a.7.7,0,0,1,0-.16A.2.2,0,0,0,45.25,21.49Z"/><path class="cls-1" d="M1.69,30.46h0l0-.07Z"/><path class="cls-1" d="M10.74,4.83A.78.78,0,0,0,11,5,.5.5,0,0,0,10.74,4.83Z"/><path class="cls-1" d="M17.6,2.39h-.19A.36.36,0,0,0,17.6,2.39Z"/><path class="cls-1" d="M8.31,7.81c-.1,0-.18,0-.22.14l.08,0C8.15,7.89,8.17,7.82,8.31,7.81Z"/><path class="cls-1" d="M5.72,10.66h.13l0-.12Z"/><path class="cls-1" d="M40.11,38.41a2.6,2.6,0,0,1,.49.21C40.26,38.41,40.47,38,40.11,38.41Z"/><path class="cls-1" d="M45.51,21.54c-.14,0-.22,0-.25-.05l0,.1A.43.43,0,0,0,45.51,21.54Z"/><path class="cls-1" d="M11.25,11.14l-.43.28A1.46,1.46,0,0,0,11.25,11.14Z"/><path class="cls-1" d="M19.18,44.82l.13,0S19.22,44.77,19.18,44.82Z"/><path class="cls-1" d="M9.88,12.57a1,1,0,0,0-.49,0,.53.53,0,0,0,.07.14Z"/><path class="cls-1" d="M40.61,38.63h0Z"/><path class="cls-1" d="M41.43,35.12c-.26.39.51.56.81.87-.13.62-.6-.05-1-.09,0,.41.4,1,.2,1.22-.11-.05-.18,0-.27-.17.24.65-.65.93-.36,1.75a.6.6,0,0,1-.18-.07,4.23,4.23,0,0,1,.83.6c-.15.18.06.63-.37.38.11-.1,0-.23-.1-.38v.32c-.67-.3,0-.4-.35-.73-.13.48-.09,1.28-.47,1.42-.54-.42.39-.78-.36-.84l.56-.23c-1.08-.41.27-.19-.84-.67-.61.36-.24.83-.89,1.16.15.38.43.36.57.74-.31,1.2-1.73-.74-1.66.43.15.47.61,1.18-.1,1.15l-.33-.71c-.58.34.35,1.12-.54,1.14-.07-.33.28-.53.15-.54-.72-.22,0,.55-.3.77L36,42.09c-.56.44-1,1.33-1.65,1.8-.05-.2,0-.45-.29-.55a3,3,0,0,1-1.4.71,8.56,8.56,0,0,1-1.62,0l-.16.69c-.08,0-.23-.21-.18-.34-.43-.12.09.36,0,.63-.2.09-.37-.25-.29-.46-.48.64-1.63,1.54-2.45,1l.11-.19c-.57-.15-.46,1.29-1,.83l.09-.12c-1.22-.16-2.6.44-3.48-.53-.24.84-1.14-.43-1.35.7-.62-.69-.39-.87-1.26-1.39-.24-.08-.51.65-.86.69l.13-.6-.57.52,0-.77-.33.08a.5.5,0,0,1,.11.5.66.66,0,0,1-.69-.33,1,1,0,0,1-.19-.7l-1.2.12c.11-.22.32-.24.5-.34-.77.39.14-.64-.57-.28,0,.15-.17.33-.23.44a1.26,1.26,0,0,0-1.11-.76l.26-.34c-.68-.4-1.56-.61-2.33-1.08.17.33-.29.92-.57.83l.27-.6c-.37.24.11.35-.48.57-.25-.27.23-.75.5-.81l-.46-.06c.09-.17.23-.2.39-.39-.37.23-.17-.94-.78-.52l.1-.17c-.72-.5-1.11-.67-1.69-1.11-.4.4-.53.12-1,.29-.25-.55-.33-1.29-.8-1.74-.51-.18-.45.2-.84.24.38-.35-.05-.85.44-.8a6.71,6.71,0,0,0-.66-.66l-.92-.69c-.12.21-.13.36-.31.4-.17-.12,0-.48.18-.59H7.3c-.62-.29-.68-1-.61-1.76s0-1.31-.59-1.54l.07,0-.84-.68c-.07-.43.45.11.64-.29a1.45,1.45,0,0,1-.57-.52,1.63,1.63,0,0,1-.12-.57,1.32,1.32,0,0,0-.4-1.07,1.19,1.19,0,0,0,.38-1.55A4.35,4.35,0,0,1,5,27.4a1,1,0,0,1,.29-.77L5,26.71c-.36-.2.19-.28.26-.44-.27,0-.31.25-.51.12a4.93,4.93,0,0,1,.18-2.86c.15-.47.39-.92.57-1.37l.28-.66c.11-.21.22-.43.32-.64.26-.62-1.68-.85-.64-1.48l.57.43a3.49,3.49,0,0,1,.36-2.11,4.63,4.63,0,0,0,.68-2c.09.14.26.24.2.36.55,0,.57-.9.24-1.11.15-.16.33.14.57.13.39-.09-.15-1,.35-.82.08,0,.08.15.08.22-.08-.28.57-.66,0-.84.53-.25.39-1,.92-1.07-.28-.61.82-.46.23-1.11.65.64,1.12-.18,1.1-.69.11.27.41,0,.57.38.26-.25.4-.61,0-.91,1.18.34.55-1.57,1.7-.71q.22-.39.46-.77c.17-.22.35-.44.53-.65a7.35,7.35,0,0,1,1.16-1.14c.37.79-1,.63-.44,1.43.58-.84.81-1.7,1.76-2,.27,0,0,.42,0,.6a2.67,2.67,0,0,1,1.23-.66,3.07,3.07,0,0,0,1.17-.66.39.39,0,0,1-.11.28c.16-.07.42,0,.29-.36L19,5.74c-.44-.5.33-1.37.3-1.68,0,1.21.93.06.82,1.63a.63.63,0,0,0,.1-.59c.18,0,.26.18.17.53.54-.37.25-.72.81-.81,0,.2-.07.29-.08.53.2-.42.43-.85.93-.76,0,.12.06.27-.08.29.77-.21,1.3-1.15,2.24-.84-.24.88.32.27.37,1A3.55,3.55,0,0,1,25,4.82l-.19-.37c.42,0,.82-.49,1.18-.23l-.33.29.8-.1-.43-.3c.46-.36,0-.95.59-.71-.13.07.45,0,.62.51h0c.24-.2.5-.42.8-.18,0,.25-.19.81-.16,1,.3-.58,1,0,1.41-.62a1.19,1.19,0,0,0-.19.6l.28-.45c.16.21.17.29.07.59.56.24,0-1,.63-.39-.06,0-.06.11-.19.15.64.38,1.45,0,2,.52-.07.78-.6,0-.59.65a7.35,7.35,0,0,0,1.5,0,2.36,2.36,0,0,1,1.39.38L34.08,6c.58-.89.39.76,1,.53-.13,0-.41.44-.33.35.44.48,1.21.41,2.21.67l-.25.15c.16.42.7.7.94,1,.26-.14.42,0,.55-.37A1.36,1.36,0,0,0,39.37,9.8c.6.19,1.19.43,1.08,1.28-.09-.09-.38-.07-.31,0l.81.52c.3-.36.13-.27.27-.66a.81.81,0,0,1,.8.15c-.53-.12-.55.47-.65.78.09-.11.25-.16.35-.27-.35.91.78-.51.76.38l-.21.12c.25.13.65.13.77.4-.37.4-.37-.08-.73.17.25.28,1.3,0,1,.64-.21-.06-.33-.26-.56-.31-.29.65-.16.61-.09.9v0l.09.69.06-.23c1.43-.3.76.67,1.82.84-1-.17-.49.14-1,.37-.08.22-.14.53-.33.54.57.05-.14.6.69.67-.17.1.12.29-.36.43.31.28.27-.21.51-.29.88.3-.27,1.58.9,2.07.56.6,1.22.57,1.72,1.2-.24.31-.74,0-.74,0a.84.84,0,0,0,.23,1c-.18,0-.31.06-.51.21.09.27.73.06.5.49a3.67,3.67,0,0,1-.81-.15c.23.29.64.57.86.89-.32.13-.54-.14-.78-.23.21.36.47.95,1,1l.18-.28c0,.14-.45.12-.56,0-.47-.28.11-.5.3-.55l.16.24c1.1-.4-.34-1-.35-1.49l.85.06-.76-.4c.19-.15.63-.33.8-.09.33-.46-.37-.26,0-.68a.11.11,0,0,1,.14,0l-.33-.31c.19,0,.55-.2.5.05.29-.79-.88-.9-.33-1.32l.06,0c-.55-.82-.6.08-1.51-.34q.64-.45,1.26-.94l-.61.12a.27.27,0,0,1,.21-.35c-.51-.19-.23.15-.67.1a.84.84,0,0,0-.1-.84c-.13-.24-.19-.46.23-.71-.49,0-.13.55-.64.24.89-.57-.41-.43-.16-1,.54-.13.46.37.7-.24-.92.18-.19-.85-.55-1.08-.64.35-.67-.52-1.19-.91.25-.12-.33-1.16-.47-1.78l.11-.06c-.66.36-.87-.21-1.28-.42a.92.92,0,0,1,.84-.27c-.09-.11-.18-.2-.28-.31a.72.72,0,0,1-.66-.07l.48-.29c-.41-.39-1.19-.39-1.43-1.13C41,8.76,40.78,9.78,40,9.56c.17-.22.48-.58.7-.53-.07,0-.32,0-.33-.15l.53-.14c-.09-.36-.39.17-.54,0,.27-.28.06-.33.3-.54.07,0,.05.27.23.22a1.15,1.15,0,0,1-.14-.95c-.13.18-.35.4-.54.3-.42-.34.17-.48.07-.85-.27.11-.37-.32-.75.14-.12-.1,0-.33.07-.49-.39,0-1.1-.73-1.22,0l0,.08h-.05C37.36,6.49,37,5.28,36.1,5l.1-.17c-.57-.08-1.14-.42-1.66-.21-.14-.07-.18-.49,0-.67-.44,0-.55.12-1-.38.52-.17,0-.33.5-.09-.44-.34-.45-.69-1.19-.38.36-.41-.18-.74-.47-.69l.24.47a1.88,1.88,0,0,1-.75-.29L32.19,2c-.43-.56-1-.34-1.57-.2s-1,.22-1.28-.49c-.38.41.54.42.17.91C29,2.07,28.65,1,28.48,1c-.67-.47-.79.84-1.49.52a.87.87,0,0,1-.45,1.07c-.48-.11-.56-1-.22-1.2.13,0,.18.06.17.14.17-.08.4-.17.22-.43l-.09.23c-.24-.26-1-.27-.78-.65-.41.21-.18.38.1.52-.66-.36-1-.1-1.73-.27.11.13.22.4.11.4-1-.24-.43.47-1.08.61-.4-.34.08-.87-.58-.53-.44-.22-.15-.62,0-.82-.6.47-1.22-.15-1.61-.19l.32-.24a1,1,0,0,1-.53.19l.26.44c-.21-.05-.38,0-.4-.22-.15.34.28.76,0,1.24-.3-.19-.72.36-.93-.22.85.06-.22-.61.46-.83a.58.58,0,0,1-.5.07c0-.06,0-.14,0-.18-.91-.36-.21.78-1,1,0-.37-.35-.6-.47-.5.33-.08.3.53.08.87-.58-.14-.49.34-.76.38l.33,0c0,.36-.26.38-.55.62-.12-.25.24-.29.09-.36-.17.72-1.05-.31-1.43.28-.33-.13-.27-.61-.54-.68-.43.64-.83-.18-1.3.46.38.35.35.23.13.85l.84-.78-.34.93c.29-.13.49-.58.7-.57-.15.48-.16.37.13.66-.68-.47-.6.75-1.25.53L13.9,3.31a1,1,0,0,0-1,.56,1.75,1.75,0,0,1-1,.88h.38c.13.47-.49.38-.66.7-.19-.35-.44-.36-.7-.49.18.23-.62.43-.23,1.12l-.67-.15c-.79.33-.05,1.42-.69,1.83-.11-.48-.56-.45-.37-1-.2.17-.42.28-.24.49-.28-.08-.17.88-.6.76,0,.2.3.52.07.69a.37.37,0,0,1-.14-.14c.13.13-.13.5.35.63-.69-.15-1.05.28-1.38.7a3.14,3.14,0,0,1-.51.57.88.88,0,0,1-.71.24,13.83,13.83,0,0,1-.8,1.57c-.08-.09-.16-.11-.08-.17-.68.4.73,1,0,1.42-.76,0-.08-.54-.41-.45-1.16-.57-.37.9-1.27,1v-.16c-.58.18,0,1.15-.38,1.7a.38.38,0,0,0-.18-.08A4.06,4.06,0,0,1,3,17.74c-.41-.35-.15-.36-.68-.42,0,.29.81.21.75.77a2.41,2.41,0,0,1-1.23.28c0-.18.1-.35.15-.53-.79,0-.2.69-.39.93l-.29-.12c-.12.86.64,1.06.37,1.9l.25,0c.65.62-.5.31,0,.89H1.1a10.52,10.52,0,0,1,.67,1.79c-.57-.37-.74-1.08-1-1.56C.68,22,.63,22.77,1,23c-.06-.14-.22-.32-.08-.43a1.9,1.9,0,0,1,.79,1.6C.17,24,1.21,25.76.1,26.26A2.76,2.76,0,0,1,.3,28a6.94,6.94,0,0,0,0,1.93c1.1-.69.09.39,1.28.07.12.28.15.4.08.44l-.48,1.08c-.29.31-.34-.22-.6-.13.08.7-.43.41-.62,1,.4-.21.66.07.61.51l.4-.71c.85.74-.73,1.12.21,1.86l-.47-.17c.38.41.65,1.82,1.79,1.83-.09.14-.34.39-.52.22a4.08,4.08,0,0,0,1.21,1.54c.51.44.94.87.92,1.43l-.3.09c.2.14.66,0,.58.42-.11.06-.3.1-.25.19s.78.18.82.52H4.58a1.57,1.57,0,0,0,1.11,1,4.6,4.6,0,0,1,1.42.48c-.65.58-.25,1.49,0,1.91l-.1.08a3.83,3.83,0,0,0,1.63,1c.58.2,1.23.27,1.82.51a2.05,2.05,0,0,0,1.12,1.51,11.13,11.13,0,0,1,1.73,1.34c-.1-.23.34-.6.58-.58.19.29,1-.2.61.51l-.09-.06c-.13.81.52.92,1,1.08l.46-1A1.83,1.83,0,0,0,17.73,49c.77,0,1.44,0,1.62.77.35-.17.71-.11,1.05-.33l-.12.55a5.22,5.22,0,0,0,2.27.39l-.25.39c.6.07.87-1.59,1.38-1.6l.12.85c1,.08,2.07.71,3-.1,0,.12,0,.37-.18.41.48,0,1.94.35,1.6-.77.12.74,1.05-.08,1.5-.5l0,.57c.3-.81.26-1,.82-1.35.16,0,.24.4,0,.31.55.16.23-.61.89-.47l-.12.4c.5-.09.42-.25.55-.74.22-.32.93-.19,1.18.26,0-.31.07-.79.4-.76a.38.38,0,0,1,0,.38c1,.08.88-1.1,1.64-.84a.54.54,0,0,0,.23.26,4.52,4.52,0,0,1-1.09.43c.2.47.75.31.63,1.16.27-.56.59-1.65,1.18-1.66a.76.76,0,0,1,.15.13l0,.08a.32.32,0,0,0,.27-.23,1,1,0,0,0,.46-.1c.27.34.67-.14.92-.27-.31-.47,0-.58-.49-.8.06,0,0,.08-.15.2s-.06.07-.07.11v-.05l-.56.39c0-.36.11-.68.53-.57-.07-.38-.14-.78-.16-1,.72.49,1.58.45,1.93.77.49-.78,1.52-1.35,1.19-2.53.08-.26.4,0,.57.11,0,.17-.16.27-.12.43.17-.52,1-1,.54-1.63.66-.16.24.72.73.06l.09.24c1-.19,1.09-1,1.2-1.79s.16-1.56,1.3-1.83a.42.42,0,0,1-.34,0,3.43,3.43,0,0,0,1-1.17,7.79,7.79,0,0,0,.65-1.4,6.5,6.5,0,0,1,1.55-2.65c.4-.46,0-.68-.25-1.11l.62.07c-.16-.26-.34-.52-.52-.76-.14-.46.3-.7.7-1s.76-.67.35-1.29l-.42.06c.13-.36-.06-1.2.4-1.08-.07,0-.4-.18-.17-.29l.32,0a7.93,7.93,0,0,0-.45-1c.26-.69,1.25.21,1.36-.86-.1-.42-.86-1.15-1.08-1a.54.54,0,0,1-.53.4l-.15-.34c-.93-.07-1.87-.29-2.56.45l.54.55-.46.15v-.44c-.44.23-.07.4.18.6a.84.84,0,0,0-.51.18l.86.6c-.37,0-.69-.3-.94,0,.37.28.85-.15,1.05.29-.46.21-.79.08-.48.43a.5.5,0,0,1-.47-.2c.24.3,0,.7.48.92-.54.17,0,.91-.89.7.19.12.56.6.53.85-.91-.69-.29.86-1.34.43.85.59,0,1.2.33,1.93-.06-.06-.18-.17-.12-.2-.18.28-.48.26-.71.38.71.34.65.87,1,1.33-.86,0-.73-.61-1.44-.8.59.25.28.88.81,1-.55.07-.32.14-1,0,.84.5,0,.33.43.83-.65.14-.86-.36-.85.2C41.51,35.65,41.43,35.12,41.43,35.12Zm-7,8.93h0l.21-.13Zm-.9.44a2.27,2.27,0,0,0,.4-.17c.12.16.17.36.07.39C34,44.58,33.7,44.58,33.5,44.5Zm3.84,2.38c-.12.17-.23.1-.31,0a1.94,1.94,0,0,0,.24-.23l0-.07A1.1,1.1,0,0,1,37.35,46.88Z"/><path class="cls-1" d="M37.25,46.07s0-.05,0-.07l-.16-.05,0,.18Z"/><path class="cls-1" d="M38.41,6.51v0a.22.22,0,0,1,0,.09A.49.49,0,0,1,38.41,6.51Z"/><polygon class="cls-1" points="20.27 44.82 20.24 44.96 20.35 44.86 20.27 44.82"/><path class="cls-1" d="M41.35,11.89a.31.31,0,0,0-.07.15A.39.39,0,0,0,41.35,11.89Z"/><path class="cls-1" d="M42.66,13.93v.4A1.28,1.28,0,0,0,42.66,13.93Z"/><path class="cls-1" d="M43.35,15.65l.23-.08h0Z"/><path class="cls-1" d="M18.83,6l-.06,0C18.65,6.14,18.74,6.07,18.83,6Z"/><path class="cls-1" d="M27.26,3.91a1.6,1.6,0,0,1-.31.22C27.1,4.2,27.22,4.23,27.26,3.91Z"/><path class="cls-1" d="M11.3,11.11h0l0,0Z"/><path class="cls-1" d="M26.54,4.1a.33.33,0,0,0,.41,0A.48.48,0,0,0,26.54,4.1Z"/><path class="cls-1" d="M45.39,23.2v.09h.09Z"/><path class="cls-1" d="M45.47,23.29l.07.09S45.53,23.3,45.47,23.29Z"/><path class="cls-1" d="M45.69,23.57l-.15-.19C45.54,23.45,45.53,23.54,45.69,23.57Z"/><path class="cls-1" d="M45.24,20.79l-.21,0Z"/><path class="cls-1" d="M45,20.09c0,.18-.31.53-.13.73H45C44.71,20.77,45.38,20.17,45,20.09Z"/><path class="cls-1" d="M46.35,16.21c0,.23.06.47.09.7.16-.19.38-.45.53-.17C47.27,15.67,46.6,17.09,46.35,16.21Z"/><path class="cls-1" d="M45.7,14.14c.25.29.28-.15.39-.19C45.81,13.82,45.74,13.8,45.7,14.14Z"/><path class="cls-1" d="M34.46,3.7l.24-.45C34.4,3.19,34.62,3.43,34.46,3.7Z"/><path class="cls-1" d="M30.9,5.18c0,.12.1.24.14.37l.25-.41A2.82,2.82,0,0,0,30.9,5.18Z"/><polygon class="cls-1" points="30.17 1.24 30.32 1.2 29.79 1.25 30.17 1.24"/><path class="cls-1" d="M5.75,9.79l.54.33C6.34,9.91,5.82,9.42,5.75,9.79Z"/><path class="cls-1" d="M1.34,20.39c-.35.05-.6.34-.32.59C1.1,20.73,1.38,20.53,1.34,20.39Z"/><polygon class="cls-1" points="16.12 48.83 15.82 48.95 16.31 48.94 16.12 48.83"/><path class="cls-1" d="M3.59,25.41c-.17-.07-.57,0-.48.17l.67.13Z"/><path class="cls-1" d="M2.44,26.78A1.78,1.78,0,0,0,3.94,27c-.65-.18-.38-.25-1.15-.46-.09-.2.19-.36.44-.33-.17-.06.13-.31-.29-.41-.5.27-.5.62-.06.94C2.73,26.85,2.56,26.79,2.44,26.78Z"/><path class="cls-1" d="M11.19,44.48l-.06-.14A.24.24,0,0,0,11.19,44.48Z"/><path class="cls-1" d="M23.19,49.12a.16.16,0,0,0-.16.13C23.13,49.22,23.2,49.18,23.19,49.12Z"/><path class="cls-1" d="M25.44,49.9l-.14,0C25.36,49.92,25.41,49.95,25.44,49.9Z"/><path class="cls-1" d="M11.19,44.48l.16.38C11.49,44.7,11.3,44.62,11.19,44.48Z"/><path class="cls-1" d="M4.33,29.22a.43.43,0,0,0-.2-.13,1,1,0,0,1,.09.14Z"/><path class="cls-1" d="M6.58,41l-.07-.08L6.25,41Z"/><path class="cls-1" d="M3.92,37.41c0,.1.54-.15.77-.25a.54.54,0,0,1-.45,0A1.8,1.8,0,0,0,3.92,37.41Z"/><path class="cls-1" d="M2.29,30.58l-.11-.1Z"/><path class="cls-1" d="M8.75,43.37a.78.78,0,0,0-.1.18A.55.55,0,0,0,8.75,43.37Z"/><path class="cls-1" d="M5.37,21.14l-.1,0S5.36,21.17,5.37,21.14Z"/><path class="cls-1" d="M2.12,25.41l0-.07-.31,0Z"/><path class="cls-1" d="M29.78,50.15h0C29.66,50.22,29.72,50.2,29.78,50.15Z"/><path class="cls-1" d="M49,20.16c-.38.53-.8-.55-1.19.2C48,20.25,48.84,20.76,49,20.16Z"/><path class="cls-1" d="M4.27,29.33a.7.7,0,0,1,0,.16A.2.2,0,0,0,4.27,29.33Z"/><path class="cls-1" d="M47.83,20.36h0l0,.07Z"/><path class="cls-1" d="M38.78,46a.78.78,0,0,0-.22-.14A.5.5,0,0,0,38.78,46Z"/><path class="cls-1" d="M31.93,48.43h.19A.36.36,0,0,0,31.93,48.43Z"/><path class="cls-1" d="M41.21,43c.1,0,.18,0,.22-.14l-.08,0C41.37,42.93,41.35,43,41.21,43Z"/><path class="cls-1" d="M43.8,40.16h-.13l0,.12Z"/><path class="cls-1" d="M9.41,12.41a2.6,2.6,0,0,1-.49-.21C9.26,12.41,9,12.85,9.41,12.41Z"/><path class="cls-1" d="M4,29.28c.14,0,.22,0,.25.05l0-.1A.43.43,0,0,0,4,29.28Z"/><path class="cls-1" d="M38.27,39.68l.43-.28A1.46,1.46,0,0,0,38.27,39.68Z"/><path class="cls-1" d="M30.35,6l-.13,0S30.3,6.05,30.35,6Z"/><path class="cls-1" d="M39.65,38.25a1,1,0,0,0,.49,0,.53.53,0,0,0-.07-.14Z"/><path class="cls-1" d="M8.92,12.19h0Z"/><path class="cls-1" d="M8.1,15.7c.26-.39-.51-.56-.81-.87.13-.62.6.05,1,.09,0-.41-.4-1-.2-1.22.11.05.18,0,.27.17-.24-.65.65-.93.36-1.75a.6.6,0,0,1,.18.07,4.23,4.23,0,0,1-.83-.6c.15-.18-.06-.63.37-.38-.11.1,0,.23.1.38v-.32c.67.3,0,.4.35.73.13-.48.09-1.28.47-1.42.54.42-.39.78.36.84l-.56.23c1.08.41-.27.19.84.67.61-.36.24-.83.89-1.16-.15-.38-.43-.36-.57-.74.31-1.2,1.73.74,1.66-.43-.15-.47-.61-1.18.1-1.15l.33.71c.58-.34-.35-1.12.54-1.14.07.33-.28.53-.15.54.72.22,0-.55.3-.77l.44.52c.56-.44,1-1.33,1.65-1.8.05.2,0,.45.29.55a3,3,0,0,1,1.4-.71,8.56,8.56,0,0,1,1.62,0L18.69,6c.08,0,.23.21.18.34.43.12-.09-.36,0-.63.2-.09.37.25.29.46.48-.64,1.63-1.54,2.45-1l-.11.19c.57.15.46-1.29,1-.83l-.09.12c1.22.16,2.6-.44,3.48.53.24-.84,1.14.43,1.35-.7.62.69.39.87,1.26,1.39.24.08.51-.65.86-.69l-.13.6.57-.52,0,.77L30.21,6a.5.5,0,0,1-.11-.5.66.66,0,0,1,.69.33,1,1,0,0,1,.19.7l1.2-.12c-.11.22-.32.24-.5.34.77-.39-.14.64.57.28,0-.15.17-.33.23-.44a1.26,1.26,0,0,0,1.11.76l-.26.34c.68.4,1.56.61,2.33,1.08-.17-.33.29-.92.57-.83l-.27.6c.37-.24-.11-.35.48-.57.25.27-.23.75-.5.81l.46.06c-.09.17-.23.2-.39.39.37-.23.17.94.78.52l-.1.17c.72.5,1.11.67,1.69,1.11.4-.4.53-.12,1-.29.25.55.33,1.29.8,1.74.51.18.45-.2.84-.24-.38.35.05.85-.44.8a6.71,6.71,0,0,0,.66.66l.92.69c.12-.21.13-.36.31-.4.17.12,0,.48-.18.59h-.07c.62.29.68,1,.61,1.76s0,1.31.59,1.54l-.07,0,.84.68c.07.43-.45-.11-.64.29a1.45,1.45,0,0,1,.57.52,1.63,1.63,0,0,1,.12.57,1.32,1.32,0,0,0,.4,1.07,1.19,1.19,0,0,0-.38,1.55,4.35,4.35,0,0,1,.23.84,1,1,0,0,1-.29.77l.35-.07c.36.2-.19.28-.26.44.27,0,.31-.25.51-.12a4.93,4.93,0,0,1-.18,2.86c-.15.47-.39.92-.57,1.37l-.28.66c-.11.21-.22.43-.32.64-.26.62,1.68.85.64,1.48L43.53,31a3.49,3.49,0,0,1-.36,2.11,4.63,4.63,0,0,0-.68,2c-.09-.14-.26-.24-.2-.36-.55,0-.57.9-.24,1.11-.15.16-.33-.14-.57-.13-.39.09.15,1-.35.82-.08,0-.08-.15-.08-.22.08.28-.57.66,0,.84-.53.25-.39,1-.92,1.07.28.61-.82.46-.23,1.11-.65-.64-1.12.18-1.1.69-.11-.27-.41,0-.57-.38-.26.25-.4.61,0,.91-1.18-.34-.55,1.57-1.7.71q-.22.39-.46.77c-.17.22-.35.44-.53.65a7.35,7.35,0,0,1-1.16,1.14c-.37-.79,1-.63.44-1.43-.58.84-.81,1.7-1.76,2-.27,0,0-.42,0-.6a2.67,2.67,0,0,1-1.23.66,3.07,3.07,0,0,0-1.17.66.39.39,0,0,1,.11-.28c-.16.07-.42,0-.29.36l.13-.15c.44.5-.33,1.37-.3,1.68,0-1.21-.93-.06-.82-1.63a.63.63,0,0,0-.1.59c-.18,0-.26-.18-.17-.53-.54.37-.25.72-.81.81,0-.2.07-.29.08-.53-.2.42-.43.85-.93.76,0-.12-.06-.27.08-.29-.77.21-1.3,1.15-2.24.84.24-.88-.32-.27-.37-1a3.55,3.55,0,0,1-.47.22l.19.37c-.42,0-.82.49-1.18.23l.33-.29-.8.1.43.3c-.46.36,0,.95-.59.71.13-.07-.45,0-.62-.51h0c-.24.2-.5.42-.8.18,0-.25.19-.81.16-1-.3.58-1,0-1.41.62a1.19,1.19,0,0,0,.19-.6l-.28.45c-.16-.21-.17-.29-.07-.59-.56-.24,0,1-.63.39.06,0,.06-.11.19-.15-.64-.38-1.45,0-2-.52.07-.78.6,0,.59-.65a7.35,7.35,0,0,0-1.5,0,2.36,2.36,0,0,1-1.39-.38l.12.15c-.58.89-.39-.76-1-.53.13,0,.41-.44.33-.35-.44-.48-1.21-.41-2.21-.67l.25-.15c-.16-.42-.7-.7-.94-1-.26.14-.42,0-.55.37A1.36,1.36,0,0,0,10.15,41c-.6-.19-1.19-.43-1.08-1.28.09.09.38.07.31,0l-.81-.52c-.3.36-.13.27-.27.66a.81.81,0,0,1-.8-.15c.53.12.55-.47.65-.78-.09.11-.25.16-.35.27.35-.91-.78.51-.76-.38l.21-.12c-.25-.13-.65-.13-.77-.4.37-.4.37.08.73-.17-.25-.28-1.3,0-1-.64.21.06.33.26.56.31.29-.65.16-.61.09-.9v0l-.09-.69-.06.23c-1.43.3-.76-.67-1.82-.84,1,.17.49-.14,1-.37.08-.22.14-.53.33-.54-.57-.05.14-.6-.69-.67.17-.1-.12-.29.36-.43-.31-.28-.27.21-.51.29-.88-.3.27-1.58-.9-2.07-.56-.6-1.22-.57-1.72-1.2.24-.31.74,0,.74,0a.84.84,0,0,0-.23-1c.18,0,.31-.06.51-.21-.09-.27-.73-.06-.5-.49a3.67,3.67,0,0,1,.81.15c-.23-.29-.64-.57-.86-.89.32-.13.54.14.78.23-.21-.36-.47-.95-1-1l-.18.28c0-.14.45-.12.56,0,.47.28-.11.5-.3.55L3,28c-1.1.4.34,1,.35,1.49l-.85-.06.76.4c-.19.15-.63.33-.8.09-.33.46.37.26,0,.68a.11.11,0,0,1-.14,0l.33.31c-.19,0-.55.2-.5-.05-.29.79.88.9.33,1.32l-.06,0c.55.82.6-.08,1.51.34q-.64.45-1.26.94l.61-.12a.27.27,0,0,1-.21.35c.51.19.23-.15.67-.1a.84.84,0,0,0,.1.84c.13.24.19.46-.23.71.49,0,.13-.55.64-.24-.89.57.41.43.16,1-.54.13-.46-.37-.7.24.92-.18.19.85.55,1.08.64-.35.67.52,1.19.91-.25.12.33,1.16.47,1.78l-.11.06c.66-.36.87.21,1.28.42a.92.92,0,0,1-.84.27c.09.11.18.2.28.31a.72.72,0,0,1,.66.07l-.48.29c.41.39,1.19.39,1.43,1.13.38-.35.61-1.37,1.36-1.15-.17.22-.48.58-.7.53.07,0,.32,0,.33.15l-.53.14c.09.36.39-.17.54,0-.27.28-.06.33-.3.54-.07,0-.05-.27-.23-.22a1.15,1.15,0,0,1,.14.95c.13-.18.35-.4.54-.3.42.34-.17.48-.07.85.27-.11.37.32.75-.14.12.1,0,.33-.07.49.39,0,1.1.73,1.22,0l0-.08h.05c1,.09,1.39,1.3,2.29,1.57l-.1.17c.57.08,1.14.42,1.66.21.14.07.18.49,0,.67.44,0,.55-.12,1,.38-.52.17,0,.33-.5.09.44.34.45.69,1.19.38-.36.41.18.74.47.69l-.24-.47a1.88,1.88,0,0,1,.75.29l-.33.59c.43.56,1,.34,1.57.2s1-.22,1.28.49c.38-.41-.54-.42-.17-.91.47.16.85,1.19,1,1.22.67.47.79-.84,1.49-.52A.87.87,0,0,1,23,48.2c.48.11.56,1,.22,1.2-.13,0-.18-.06-.17-.14-.17.08-.4.17-.22.43l.09-.23c.24.26,1,.27.78.65.41-.21.18-.38-.1-.52.66.36,1,.1,1.73.27-.11-.13-.22-.4-.11-.4,1,.24.43-.47,1.08-.61.4.34-.08.87.58.53.44.22.15.62,0,.82.6-.47,1.22.15,1.61.19l-.32.24a1,1,0,0,1,.53-.19L28.41,50c.21.05.38,0,.4.22.15-.34-.28-.76,0-1.24.3.19.72-.36.93.22-.85-.06.22.61-.46.83a.58.58,0,0,1,.5-.07c0,.06,0,.14,0,.18.91.36.21-.78,1-1,0,.37.35.6.47.5-.33.08-.3-.53-.08-.87.58.14.49-.34.76-.38l-.33,0c0-.36.26-.38.55-.62.12.25-.24.29-.09.36.17-.72,1.05.31,1.43-.28.33.13.27.61.54.68.43-.64.83.18,1.3-.46-.38-.35-.35-.23-.13-.85l-.84.78.34-.93c-.29.13-.49.58-.7.57.15-.48.16-.37-.13-.66.68.47.6-.75,1.25-.53l.51,1.07a1,1,0,0,0,1-.56,1.75,1.75,0,0,1,1-.88h-.38c-.13-.47.49-.38.66-.7.19.35.44.36.7.49-.18-.23.62-.43.23-1.12l.67.15c.79-.33.05-1.42.69-1.83.11.48.56.45.37,1,.2-.17.42-.28.24-.49.28.08.17-.88.6-.76,0-.2-.3-.52-.07-.69a.37.37,0,0,1,.14.14c-.13-.13.13-.5-.35-.63.69.15,1.05-.28,1.38-.7a3.14,3.14,0,0,1,.51-.57.88.88,0,0,1,.71-.24,13.83,13.83,0,0,1,.8-1.57c.08.09.16.11.08.17.68-.4-.73-1,0-1.42.76,0,.08.54.41.45,1.16.57.37-.9,1.27-1v.16c.58-.18,0-1.15.38-1.7a.38.38,0,0,0,.18.08,4.06,4.06,0,0,1-.27-2.21c.41.35.15.36.68.42,0-.29-.81-.21-.75-.77a2.41,2.41,0,0,1,1.23-.28c0,.18-.1.35-.15.53.79,0,.2-.69.39-.93l.29.12c.12-.86-.64-1.06-.37-1.9l-.25,0c-.65-.62.5-.31,0-.89h.8a10.52,10.52,0,0,1-.67-1.79c.57.37.74,1.08,1,1.56.06-.32.11-1.11-.25-1.31.06.14.22.32.08.43a1.9,1.9,0,0,1-.79-1.6c1.52.19.49-1.62,1.6-2.11a2.76,2.76,0,0,1-.2-1.75,6.94,6.94,0,0,0,0-1.93c-1.1.69-.09-.39-1.28-.07-.12-.28-.15-.4-.08-.44l.48-1.08c.29-.31.34.22.6.13-.08-.7.43-.41.62-1-.4.21-.66-.07-.61-.51l-.4.71c-.85-.74.73-1.12-.21-1.86l.47.17c-.38-.41-.65-1.82-1.79-1.83.09-.14.34-.39.52-.22a4.08,4.08,0,0,0-1.21-1.54c-.51-.44-.94-.87-.92-1.43l.3-.09c-.2-.14-.66,0-.58-.42.11-.06.3-.1.25-.19s-.78-.18-.82-.52h.42a1.57,1.57,0,0,0-1.11-1,4.6,4.6,0,0,1-1.42-.48c.65-.58.25-1.49,0-1.91l.1-.08a3.83,3.83,0,0,0-1.63-1c-.58-.2-1.23-.27-1.82-.51a2.05,2.05,0,0,0-1.12-1.51A11.13,11.13,0,0,1,36.2,2.93c.1.23-.34.6-.58.58-.19-.29-1,.2-.61-.51l.09.06c.13-.81-.52-.92-1-1.08l-.46,1a1.83,1.83,0,0,0-1.88-1.15c-.77,0-1.44,0-1.62-.77-.35.17-.71.11-1.05.33l.12-.55A5.22,5.22,0,0,0,27,.39L27.21,0c-.6-.07-.87,1.59-1.38,1.6L25.71.75c-1-.08-2.07-.71-3,.1,0-.12,0-.37.18-.41-.48,0-1.94-.35-1.6.77-.12-.74-1.05.08-1.5.5l0-.57c-.3.81-.26,1-.82,1.35-.16,0-.24-.4,0-.31-.55-.16-.23.61-.89.47l.12-.4c-.5.09-.42.25-.55.74-.22.32-.93.19-1.18-.26,0,.31-.07.79-.4.76a.38.38,0,0,1,0-.38c-1-.08-.88,1.1-1.64.84a.54.54,0,0,0-.23-.26,4.52,4.52,0,0,1,1.09-.43c-.2-.47-.75-.31-.63-1.16-.27.56-.59,1.65-1.18,1.66a.76.76,0,0,1-.15-.13l0-.08a.32.32,0,0,0-.27.23,1,1,0,0,0-.46.1c-.27-.34-.67.14-.92.27.31.47,0,.58.49.8-.06,0,0-.08.15-.2s.06-.07.07-.11v.05l.56-.39c0,.36-.11.68-.53.57.07.38.14.78.16,1-.72-.49-1.58-.45-1.93-.77-.49.78-1.52,1.35-1.19,2.53-.08.26-.4,0-.57-.11,0-.17.16-.27.12-.43-.17.52-1,1-.54,1.63-.66.16-.24-.72-.73-.06l-.09-.24c-1,.19-1.09,1-1.2,1.79S6.26,11.72,5.11,12a.42.42,0,0,1,.34,0,3.43,3.43,0,0,0-1,1.17,7.79,7.79,0,0,0-.65,1.4,6.5,6.5,0,0,1-1.55,2.65c-.4.46,0,.68.25,1.11l-.62-.07c.16.26.34.52.52.76.14.46-.3.7-.7,1s-.76.67-.35,1.29l.42-.06c-.13.36.06,1.2-.4,1.08.07,0,.4.18.17.29l-.32,0a7.93,7.93,0,0,0,.45,1c-.26.69-1.25-.21-1.36.86.1.42.86,1.15,1.08,1a.54.54,0,0,1,.53-.4l.15.34c.93.07,1.87.29,2.56-.45l-.54-.55.46-.15v.44c.44-.23.07-.4-.18-.6a.84.84,0,0,0,.51-.18L4,23.26c.37,0,.69.3.94,0-.37-.28-.85.15-1.05-.29.46-.21.79-.08.48-.43a.5.5,0,0,1,.47.2c-.24-.3,0-.7-.48-.92.54-.17,0-.91.89-.7-.19-.12-.56-.6-.53-.85.91.69.29-.86,1.34-.43-.85-.59,0-1.2-.33-1.93.06.06.18.17.12.2.18-.28.48-.26.71-.38-.71-.34-.65-.87-1-1.33.86,0,.73.61,1.44.8-.59-.25-.28-.88-.81-1,.55-.07.32-.14,1,0-.84-.5,0-.33-.43-.83.65-.14.86.36.85-.2C8,15.17,8.1,15.7,8.1,15.7Zm7-8.93h0l-.21.13Zm.9-.44a2.27,2.27,0,0,0-.4.17c-.12-.16-.17-.36-.07-.39C15.55,6.24,15.82,6.24,16,6.32ZM12.18,3.94c.12-.17.23-.1.31,0a1.94,1.94,0,0,0-.24.23l0,.07A1.1,1.1,0,0,1,12.18,3.94Z"/><path class="cls-1" d="M12.27,4.75s0,.05,0,.07l.16.05,0-.18Z"/><path class="cls-1" d="M11.12,44.31v0a.22.22,0,0,1,0-.09A.49.49,0,0,1,11.12,44.31Z"/><polygon class="cls-1" points="29.25 6 29.28 5.86 29.17 5.96 29.25 6"/><path class="cls-1" d="M8.17,38.93a.31.31,0,0,0,.07-.15A.39.39,0,0,0,8.17,38.93Z"/><path class="cls-1" d="M6.87,36.89v-.4A1.28,1.28,0,0,0,6.87,36.89Z"/><path class="cls-1" d="M6.17,35.17l-.23.08h0Z"/><path class="cls-1" d="M30.69,44.87l.06,0C30.87,44.68,30.78,44.75,30.69,44.87Z"/><path class="cls-1" d="M22.26,46.91a1.6,1.6,0,0,1,.31-.22C22.42,46.62,22.3,46.59,22.26,46.91Z"/><path class="cls-1" d="M38.23,39.71h0l0,0Z"/><path class="cls-1" d="M23,46.72a.33.33,0,0,0-.41,0A.48.48,0,0,0,23,46.72Z"/><path class="cls-1" d="M4.14,27.62v-.09H4.05Z"/><path class="cls-1" d="M4.05,27.53,4,27.44S4,27.52,4.05,27.53Z"/><path class="cls-1" d="M3.83,27.25l.15.19C4,27.37,4,27.28,3.83,27.25Z"/><path class="cls-1" d="M4.28,30l.21,0Z"/><path class="cls-1" d="M4.52,30.73c0-.18.31-.53.13-.73H4.49C4.81,30,4.15,30.65,4.52,30.73Z"/><path class="cls-1" d="M3.17,34.61c0-.23-.06-.47-.09-.7-.16.19-.38.45-.53.17C2.25,35.15,2.93,33.73,3.17,34.61Z"/><path class="cls-1" d="M3.82,36.68c-.25-.29-.28.15-.39.19C3.71,37,3.79,37,3.82,36.68Z"/><path class="cls-1" d="M15.07,47.12l-.24.45C15.12,47.63,14.91,47.39,15.07,47.12Z"/><path class="cls-1" d="M18.63,45.64c0-.12-.1-.24-.14-.37l-.25.41A2.82,2.82,0,0,0,18.63,45.64Z"/><polygon class="cls-1" points="19.35 49.59 19.21 49.62 19.73 49.57 19.35 49.59"/><path class="cls-1" d="M43.77,41l-.54-.33C43.18,40.91,43.7,41.4,43.77,41Z"/><path class="cls-1" d="M48.19,30.43c.35-.05.6-.34.32-.59C48.43,30.09,48.15,30.29,48.19,30.43Z"/><polygon class="cls-1" points="33.4 1.99 33.7 1.87 33.22 1.88 33.4 1.99"/></g></g></svg>