<svg xmlns="http://www.w3.org/2000/svg" xmlns:xlink="http://www.w3.org/1999/xlink" viewBox="0 0 148.1 244.87"><defs><style>.cls-1{fill:none;}.cls-2{fill:#d5842f;stroke:#000;stroke-width:0.75px;}.cls-2,.cls-5{stroke-miterlimit:10;}.cls-3{fill:#ffe5d4;}.cls-4,.cls-5{fill:#353531;}.cls-5{stroke:#353531;}.cls-6{opacity:0.23;}.cls-7{fill:#ff7bac;}.cls-8{fill:#c1272d;}.cls-9{fill:#f15a24;}.cls-10{fill:#fbb03b;}.cls-11{fill:#84272d;}.cls-12{fill:#1b6c87;}.cls-13{fill:#29abe2;}.cls-14{opacity:0.5;}.cls-15{clip-path:url(#clip-path);}.cls-16{fill:#8cc63f;}.cls-17{clip-path:url(#clip-path-2);}.cls-18{fill:#ffc54a;}.cls-19{fill:#fff;}</style><clipPath id="clip-path"><path class="cls-1" d="M84.74,218.7A37.44,37.44,0,0,0,71.94,221s-1.87,19.58,6.13,19.58S84.74,218.7,84.74,218.7Z"/></clipPath><clipPath id="clip-path-2"><path class="cls-1" d="M43.24,219.93a38.26,38.26,0,0,0-12,2.79s-1.83,17.39,6,18.11S43.24,219.93,43.24,219.93Z"/></clipPath></defs><title>splash-img-shib</title><g id="Layer_2" data-name="Layer 2"><g id="Layer_7" data-name="Layer 7"><rect class="cls-2" x="19.07" y="36.55" width="64" height="70"/><path class="cls-3" d="M37,70.21c-1.41.37.86,4.75-.55,5.12l-1.16,3.22c.1,2-2.9-2.32-2.68-.3a12.51,12.51,0,0,0,.72,3.39A9.19,9.19,0,0,0,36.2,85.2a20.77,20.77,0,0,0,12.56,4.27A42.19,42.19,0,0,0,61.94,87.3a17.09,17.09,0,0,0,4.94-2.14,19,19,0,0,0,4.72-5.46c1.67-2.58-3.73-.44-2.25-3.15.29-.53-2.71-1.39-2.76-2s2.37-.2,1.84,0l.92-2c-1-.19-.08-3.44-.92-4"/><path class="cls-4" d="M35.93,69.15c-1.73,1.46-.28,3.3-.55,5.12-.2,1.4-1.35,2.89-1.64,4.36l1.45-1.1c-.66.08-1.49-1.4-2.53-1.27a1.56,1.56,0,0,0-1.5,1.5c-.74,6.47,6,10.74,11.31,12.28,7.18,2.07,16,.68,22.77-2.32,2.4-1.07,10.33-6.81,7.67-10.14-.4-.5-.93-.48-1.42-.77l-1.12-.17q.54.68.47-.09c-.24-.24-.31-1.06-.61-1.41-.68-.78-1.91-.85-2.59-1.65v2.12L67,74.95c.43,1,2.14,1.67,2.74.36l.92-2a1.55,1.55,0,0,0-.23-1.82c-.46-.43-.2-2.9-.69-3.7-1-1.64-3.6-.14-2.59,1.51.89,1.45-.23,3,1.15,4.3L68,71.79l-.92,2,2.74.36c-.73-1.78-3-1.77-4.35-.66a1.53,1.53,0,0,0,0,2.12c.44.51,2.32,1.48,2.12,1.22.26.34-.06,1.26.35,1.75s1,.62,1.59,1c.22.13,1.65.48.92-.21-.54-.51-2.12,2.39-2.57,2.86C64,86.36,56.16,87.72,50.67,88c-5.73.24-17.41-2.28-16.51-10.19l-1.5,1.5c.59-.07,1.52,1.4,2.53,1.27a1.55,1.55,0,0,0,1.45-1.1A33.17,33.17,0,0,1,38,75.93c.17-.59.05-4.65.06-4.66,1.48-1.25-.65-3.36-2.12-2.12Z"/><path class="cls-3" d="M19.58,42.87c1.78,8.92,2.88,17.09,9.56,22.62a19.33,19.33,0,0,0,6.19,3.66,22.25,22.25,0,0,0,5.49.88,93.67,93.67,0,0,0,24.74-1.69A27.85,27.85,0,0,0,72.82,66c4.66-2.39,8.13-7,10.38-12s3.39-10.56,4.43-16c1.5-7.92-6.23-10.43-7.24-18.44s-7.31-13.06-13.8-17c-4.13-2.51-5.42,6.53-10.12,6C45.62,7.32,49.94,5,39.89,9.55c-5.13,2.34-5.61.39-9.2,5-1.68,2.15-3.71,4.35-4.6,7-1,3.1-7.28.7-7.36,4-.19,7.58.65,10.18,1.77,17.67"/><path class="cls-4" d="M18.5,43.17c1.64,8.35,3,17.3,9.85,23.12,7.56,6.43,18.47,5.52,27.75,4.6,9-.89,18.14-2.22,24.07-9.64a34.68,34.68,0,0,0,5.45-10.34c1.61-4.63,3.59-10.53,3.3-15.51-.17-2.92-1.7-5.3-3.34-7.63A37.4,37.4,0,0,1,83,23.86c-1.39-2.63-1.4-5.4-2.36-8.15a22.07,22.07,0,0,0-6.28-9c-2.17-2-5.6-5.24-8.54-5.68C64,.82,62.87,1.79,61.74,3a35.81,35.81,0,0,1-2.48,3.09c-2.34,2-5,1.13-7.81.47-1.78-.42-3.37-1-5.21-.73-3.46.53-6.63,2.84-10,3.8s-4.94,2.3-7.25,5.19c-1.24,1.56-2.22,3.26-3.38,4.86-1.62,2.22-2.95,2.19-5.24,2.9-3.22,1-2.9,3.33-2.83,6.38.11,4.91,1.08,9.71,1.83,14.54.22,1.43,2.39.82,2.17-.6C21,39.24,20.26,35.55,20,31.84c-.15-1.92-.53-4,.44-5.78,1.08-1.92,1.9-1.19,3.75-1.78A4.57,4.57,0,0,0,27.11,22c2-3.09,3.76-7.5,7.2-9.41,1.81-1,4.21-1.23,6.14-2.05,2.44-1,4.91-2.66,7.64-2.49,3.83.24,8,3.09,11.58.67C61.27,7.65,62,5.83,63.33,4.6c2.94-2.64,7,1.58,9.41,3.74a19.37,19.37,0,0,1,6.31,10c.71,3,1.24,5.49,2.92,8.15s3.89,4.8,4.51,7.9c.86,4.31-1.16,10-2.45,14.12-2.75,8.91-7.83,16.14-17.27,18.37a85.6,85.6,0,0,1-17.33,2.13c-5.48.15-11.92.54-16.76-2.41-8.66-5.28-10.2-14.9-12-24.07-.28-1.42-2.45-.82-2.17.6Z"/><ellipse class="cls-5" cx="35.29" cy="47.55" rx="2.76" ry="3"/><ellipse class="cls-5" cx="72.1" cy="47.55" rx="2.76" ry="3"/><g class="cls-6"><path class="cls-7" d="M33.71,57.58l6.2-2.26c1.49-.54,1.4-3.05-.4-2.95A23.1,23.1,0,0,0,32.18,54c-1.77.71-1,3.61.8,2.89a20.62,20.62,0,0,1,6.53-1.5l-.4-2.95-6.2,2.26c-1.8.66-1,3.56.8,2.89Z"/></g><g class="cls-6"><path class="cls-7" d="M69.43,54.86,75.72,56l.4-2.95A56,56,0,0,0,69.95,53c-1.92.08-1.93,3.08,0,3a56,56,0,0,1,6.18.08c1.67.11,2.07-2.64.4-2.95L70.23,52c-1.89-.34-2.7,2.55-.8,2.89Z"/></g><path class="cls-4" d="M47,58.9a7.14,7.14,0,0,0,12.24-.43,1.13,1.13,0,0,0-1.94-1.14,4.85,4.85,0,0,1-8.36.43c-.82-1.18-2.77-.06-1.94,1.14Z"/></g><g id="Layer_3" data-name="Layer 3"><path d="M84.08,67.39c0,5.25.24,10.71,4.25,14.58,1,1,2.64-.58,1.59-1.59-3.56-3.43-3.62-8.36-3.59-13a1.13,1.13,0,0,0-2.25,0Z"/><path class="cls-8" d="M80.93,84.2a11.29,11.29,0,0,1-1.83-4.27c-1.14-4.19-2.29-6.38-3.43-10.56l0,.32c-1.42,1.79-4.2-2.93-5.63-1.13,0,0-9.55,11.35-17.5,11.5-4,.08-17-8-17-8A31.5,31.5,0,0,0,30,74c-9.7,2.87-18.36,6.14-24.13,14.44l.2.05a120.14,120.14,0,0,1,10,9.35l.54.69a40.13,40.13,0,0,1,6.3-5.1,4.61,4.61,0,0,0,1.42-1.22H25.5c1.28,6.42.91,13,.88,19.53,0,8-.07,20.13,1.2,28.07L82,134.21c.69-15.26.83-35.58-1.57-50.66l-.23-.23a73.19,73.19,0,0,1,20.35-1.84l.14-.28L99.4,76.12c-1.09-4.18-2.19-8.41-2.13-12.73l-.16-.2C90.06,64.53,83,68,76,69.55"/><path class="cls-9" d="M27.56,131.43a279.46,279.46,0,0,0,54-5.25c1.42-.29.82-2.46-.6-2.17a276.13,276.13,0,0,1-53.4,5.17,1.13,1.13,0,0,0,0,2.25Z"/><path class="cls-10" d="M27.33,127.42c10.61.55,21.1.85,31.66-.6,8.11-1.11,15.8-3.72,23.77-5.46,1.41-.31.82-2.48-.6-2.17-7.89,1.72-15.5,4.31-23.52,5.41-10.43,1.44-20.83,1.11-31.31.57-1.45-.07-1.44,2.18,0,2.25Z"/><path class="cls-9" d="M26.69,121.68c19,1.24,37.14-2.24,55.7-5.36,1.42-.24.82-2.41-.6-2.17-18.35,3.08-36.36,6.5-55.1,5.28-1.45-.09-1.44,2.16,0,2.25Z"/><path class="cls-10" d="M26.44,116.76c9.91.25,19.86-.87,29.68-2.16,8.77-1.16,17.88-1.2,26.42-3.58a1.13,1.13,0,0,0-.6-2.17c-8.71,2.43-18.12,2.49-27.07,3.66a184.15,184.15,0,0,1-28.43,2,1.13,1.13,0,0,0,0,2.25Z"/><path class="cls-9" d="M26.7,110.3c10,.83,20.18-.3,30.1-1.23,4.25-.4,8.5-.84,12.76-1.25s8.78-.31,12.69-2.2c1.3-.63.16-2.57-1.14-1.94-4.49,2.17-10.64,1.8-15.57,2.28-3.87.38-7.74.78-11.61,1.12-9,.79-18.22,1.72-27.23,1-1.44-.12-1.44,2.13,0,2.25Z"/><path class="cls-10" d="M27.2,105.64c18.73-.21,37.28-1.79,55.89-3.86,1.42-.16,1.44-2.41,0-2.25-18.61,2.07-37.16,3.65-55.89,3.86a1.13,1.13,0,0,0,0,2.25Z"/><path class="cls-9" d="M26.08,100.65c8.95.06,17.85-.24,26.78-.69,10-.51,19.72-2.72,29.52-4.56,1.42-.27.82-2.44-.6-2.17-10.25,1.92-20.34,4-30.77,4.57-8.32.42-16.61.66-24.94.6a1.13,1.13,0,0,0,0,2.25Z"/><path class="cls-10" d="M26.44,95a147.54,147.54,0,0,0,30.78-.29c7.66-1,15.42-1,23-2.75,1.41-.32.81-2.49-.6-2.17C71.94,91.57,64,91.76,56.17,92.59a155.5,155.5,0,0,1-29.73.19C25,92.65,25,94.9,26.44,95Z"/><path class="cls-9" d="M25.94,91.51c8.87-.62,17.72-1.46,26.57-2.23s18.28-.63,26.93-3.34c1.38-.43.79-2.6-.6-2.17C70,86.55,60.25,86.34,51,87.16c-8.36.74-16.71,1.51-25.08,2.1-1.44.1-1.45,2.35,0,2.25Z"/><path class="cls-10" d="M26.32,85.33c9.52,0,19.1-.23,28.59-1C62.88,83.76,71,84,78.8,82a1.13,1.13,0,0,0-.6-2.17c-7.87,2-16.27,1.81-24.35,2.39-9.14.65-18.36.87-27.53.88a1.13,1.13,0,0,0,0,2.25Z"/><path class="cls-9" d="M26,81.63c7.65,1.36,16.09.65,23.84.21a150.93,150.93,0,0,0,22.39-3.16c1.42-.3.82-2.47-.6-2.17a146.33,146.33,0,0,1-21.79,3.08C42.38,80,34,80.77,26.63,79.46c-1.42-.25-2,1.92-.6,2.17Z"/><path class="cls-10" d="M23.83,79.27c6.41-.67,12.79-1.41,19.24-1.59,1.44,0,1.45-2.29,0-2.25-6.45.19-12.83.92-19.24,1.59-1.43.15-1.44,2.4,0,2.25Z"/><path class="cls-10" d="M59.07,77.67a94.08,94.08,0,0,0,10.7-1.73c1.87-.42,3.86-1.14,5.8-1,1.45.09,1.44-2.16,0-2.25a18.26,18.26,0,0,0-5.11.8,95.92,95.92,0,0,1-11.38,1.95c-1.42.15-1.44,2.4,0,2.25Z"/><path class="cls-9" d="M29.2,75.42a64.67,64.67,0,0,0,7.87-.28c1.43-.14,1.44-2.39,0-2.25a64.67,64.67,0,0,1-7.87.28,1.13,1.13,0,0,0,0,2.25Z"/><path class="cls-9" d="M66.33,73l7.87-.14a1.13,1.13,0,0,0,0-2.25l-7.87.14a1.13,1.13,0,0,0,0,2.25Z"/><path class="cls-9" d="M78.26,69.82c.88,4.34,1.69,10.85,6.13,13.06,1.29.64,2.43-1.3,1.14-1.94-3.67-1.83-4.36-8.09-5.09-11.71-.29-1.42-2.46-.82-2.17.6Z"/><path class="cls-10" d="M88.53,65.94Q89.46,71.2,90,76.51c.19,1.89.24,3.65,1.64,5.08,1,1,2.61-.56,1.59-1.59-1.55-1.58-1.19-5.71-1.47-7.85s-.65-4.55-1-6.81c-.25-1.42-2.42-.82-2.17.6Z"/><path class="cls-9" d="M92.77,64.3c.55,5.21.22,11.82,3.38,16.28.83,1.17,2.78.05,1.94-1.14C95.19,75.35,95.53,69.11,95,64.3c-.15-1.43-2.4-1.44-2.25,0Z"/><path class="cls-9" d="M8.09,87.21c3.72,2.45,7.9,4.92,9.57,9.3.51,1.34,2.69.76,2.17-.6-1.91-5-6.31-7.82-10.6-10.64-1.21-.8-2.34,1.15-1.14,1.94Z"/><path class="cls-10" d="M11.91,84.23a32.86,32.86,0,0,1,9.37,9.68C22,95.13,24,94,23.22,92.78A35.6,35.6,0,0,0,13,82.29c-1.2-.81-2.33,1.13-1.14,1.94Z"/><path class="cls-9" d="M16.11,81.57a13.29,13.29,0,0,1,6,5.17c.76,1.23,2.71.1,1.94-1.14a15.33,15.33,0,0,0-6.8-6C15.93,79,14.79,81,16.11,81.57Z"/><path class="cls-11" d="M52.07,79c-3.56-.11-7.38-2.08-10.61-3.42q-3.86-1.6-7.63-3.38c-1.74-.82-3.26,1.77-1.51,2.59,5.89,2.78,13.14,7,19.76,7.2,1.93.06,1.93-2.94,0-3Z"/><path class="cls-11" d="M70,69.49C65.6,73.78,59.44,78.68,53.07,79c-1.92.11-1.93,3.11,0,3,7.25-.42,14-5.53,19.06-10.44,1.39-1.35-.74-3.47-2.12-2.12Z"/><path class="cls-11" d="M7,88.6A126.69,126.69,0,0,1,17,98c1.34,1.4,3.46-.73,2.12-2.12a126.69,126.69,0,0,0-10-9.35c-1.47-1.23-3.6.88-2.12,2.12Z"/><path class="cls-11" d="M99.52,80.15C98.2,75,96.81,69.7,96.76,64.39a1.5,1.5,0,0,0-3,0c.05,5.58,1.48,11.19,2.87,16.56a1.5,1.5,0,0,0,2.89-.8Z"/><path class="cls-4" d="M81.9,83.63c-2.57-4.09-3.8-9.92-5.15-14.57a1.13,1.13,0,0,0-1.38-.79c-1.62.62-3.09.15-4.73-.7a1.16,1.16,0,0,0-1.36.18C64.9,72,57.65,78.14,51.14,77.33c-3.41-.42-6.89-2.43-9.94-3.91-1.6-.78-3.91-2.63-5.69-2.9-3.69-.56-9.87,3.45-13,5C16.15,78.57,9.21,82.17,4.92,87.92a1.13,1.13,0,0,0,.67,1.65c1.8.47,4.69,4.15,6.07,5.48a44.7,44.7,0,0,1,4.16,4.33,1.14,1.14,0,0,0,1.59,0c1.87-1.78,4.06-4.12,6.47-5.19.06,0,1-.82,1-.8s.16,4,.18,4.16c.45,5.39.17,10.83.15,16.23,0,8.8,0,17.67,1.25,26.39a1.12,1.12,0,0,0,1.08.83L82,135.33a1.16,1.16,0,0,0,1.13-1.12c.42-9.6.59-19.22.28-28.83-.15-4.73-.41-9.46-.88-14.17-.21-2.15.05-7.1-1.53-8.69l-.5,1.88a78.6,78.6,0,0,1,20.06-1.8,1.1,1.1,0,0,0,1-.56c1.08-2.17-1.23-6.77-1.75-8.91-.71-2.93-.81-5.9-1.39-8.81-.19-1,.07-1.19-.51-1.92a1.12,1.12,0,0,0-1.09-.29c-7.2,1.55-13.92,4.62-21.06,6.36-1.41.34-.81,2.51.6,2.17,4.79-1.17,9.35-2.94,14-4.46,1.37-.45,4.82-2.18,5.82-.94.75.93.8,5.71,1,6.68.4,1.83,2.08,5.22,1.77,7-.37,2.15-2.65,1.28-4.92,1.37a79.84,79.84,0,0,0-14.13,1.91,1.13,1.13,0,0,0-.5,1.88c1,1,.72,5.53.87,7.1.22,2.18.39,4.36.52,6.55.25,4,.39,7.94.46,11.92.14,8.18,0,16.36-.39,24.54L82,133.08l-40.91,4.25-9.95,1c-.72.07-2.12.52-2.78.29-1.33-.46-.23-.84-.19-2.83.11-7.07-.72-14.26-.7-21.37,0-7.53.41-15-.91-22.49a1.13,1.13,0,0,0-1.08-.83c-3.5,0-7.28,4.36-9.68,6.65h1.59a55.31,55.31,0,0,0-6-6.09c-1.37-1.26-3.3-3.8-5.19-4.3l.67,1.65c5.24-7,15.07-11.13,22.93-14.39,1.4-.58,2.84-1.05,4.23-1.63,1-.42,1.09-.3.76-.36,2.82.58,6.06,3.12,8.7,4.28,7,3.1,11.83,3.28,18.61-.83A47.89,47.89,0,0,0,66.66,73c.93-.72,2.36-2.58,3.49-2.93,1.3-.4.34.12,2.42.71A5.89,5.89,0,0,0,76,70.45l-1.38-.79C76,74.5,77.28,80.5,80,84.77c.77,1.22,2.72.1,1.94-1.14Z"/></g><g id="Layer_2-2" data-name="Layer 2"><path class="cls-12" d="M82.41,123.77c-21.34,4.78-32.34,6.78-54.67,5l-.81.08c-.55,32.32.94,72.68,4.44,104.82.3,2.77,1,6.05,3.58,7.08,2,.8,4.39-.28,5.72-2a12.81,12.81,0,0,0,2.12-6.06c1-6.41.73-12.94.51-19.41l-2-58.91-.38.28c13.65,1,19.47-.47,32.62-4.28l.6.66c-.76,19.31-1.52,44.62-2.28,63.93-.16,4.12-.32,8.25-.26,12.37a26.17,26.17,0,0,0,1.28,8.83c.83,2.21,2.53,4.41,4.89,4.56a5,5,0,0,0,4.11-2.07,10.79,10.79,0,0,0,1.83-4.38,51,51,0,0,0,.91-8.69c.8-17.32,1.23-40.65,1.27-58,0-4.64,0-9.29-.34-13.92-.3-4.2-.87-8.38-1.44-12.55-.43-3.13-.85-14.27-1.28-17.4"/><path class="cls-13" d="M51.6,129.77a126,126,0,0,1,1.76,12.69c.08,1,1.58,1,1.5,0A129.94,129.94,0,0,0,53,129.37c-.18-.95-1.63-.55-1.45.4Z"/><path class="cls-13" d="M59.08,129.13a15.1,15.1,0,0,1-5,11.24c-.71.65.35,1.71,1.06,1.06a16.63,16.63,0,0,0,5.45-12.3.75.75,0,0,0-1.5,0Z"/><path class="cls-13" d="M35.86,129.74c-1,4.55-5.1,6.93-8.89,9-.85.47-.09,1.76.76,1.3,4.13-2.27,8.5-5,9.58-9.91.2-.94-1.24-1.34-1.45-.4Z"/><path class="cls-13" d="M72.78,126.8a7.63,7.63,0,0,0,3.07,5.95c2.06,1.56,4.77,3.46,7.28,4.13a.75.75,0,0,0,.4-1.45c-2-.54-4-2.06-5.78-3.2a6.58,6.58,0,0,1-3.46-5.43c0-1-1.54-1-1.5,0Z"/><path class="cls-4" d="M82.11,122.68c-9.51,2.12-19.06,4.26-28.78,5.13-4.18.37-8.39.52-12.59.47-4.5,0-9.37-1-13.82-.53a1.15,1.15,0,0,0-1.12,1.13c-.46,29.2.44,58.47,2.81,87.57.5,6.18.67,12.64,1.83,18.74.7,3.7,2.77,7,6.93,6.75,12.29-.73,7.24-23.38,7-30.6-.69-19-1.3-38-1.95-57,0-.77-1-1.51-1.69-1l-.38.28a1.14,1.14,0,0,0,.57,2.1,71.49,71.49,0,0,0,22.67-1.73c1.7-.43,3.39-.91,5.07-1.39s3.87-1.51,4.53-.4c.28.47-.42,5.1-.45,5.87q-.14,3.74-.27,7.48c-.67,18.8-1.61,37.62-2,56.43-.11,5.45-1.16,17,5.63,19.46,6.08,2.22,8.55-5.44,9.14-9.8,1.18-8.74,1-17.85,1.19-26.65q.36-13.76.49-27.53a422.18,422.18,0,0,0-3-53.78c-.17-1.42-2.42-1.44-2.25,0,3.7,31.09,3.26,62.29,2.12,93.54-.14,3.93-.19,7.9-.54,11.82-.24,2.66-.45,8.81-3.74,10-6,2.16-6.59-7-6.78-9.95-.53-8.39.33-17,.63-25.37.63-17.57,1.17-35.15,1.86-52.73a1.16,1.16,0,0,0-.83-1.08c-4.12-1.71-9.82,1.62-14.06,2.55a68.19,68.19,0,0,1-19.46,1l.57,2.1.38-.28-1.69-1,1.82,53c.13,3.92.28,7.82.59,11.73.36,4.7,1.2,10.28-.13,14.89-1,3.3-5.17,9.11-8.84,3.69-1-1.52-1.07-3.85-1.27-5.62-.42-3.81-.77-7.63-1.1-11.44a893.59,893.59,0,0,1-3.16-91.78L26.93,130c4.46-.45,9.3.49,13.82.53a126.61,126.61,0,0,0,14-.61c9.44-1,18.72-3,28-5.08,1.41-.32.81-2.49-.6-2.17Z"/><path class="cls-4" d="M43.24,219.93a38.26,38.26,0,0,0-12,2.79s-1.83,17.39,6,18.11S43.24,219.93,43.24,219.93Z"/><path class="cls-4" d="M43.24,218.43a44.48,44.48,0,0,0-12.4,2.85,1.59,1.59,0,0,0-1.1,1.45c-.55,5.48-.37,22.06,9.19,19.44,7.43-2,6.27-16.52,5.81-22.24-.16-1.91-3.16-1.93-3,0a64,64,0,0,1,.16,7c-.09,3.19,0,9.48-2.74,11.74-6.23,5.06-6.72-12.94-6.42-15.93l-1.1,1.45a41.42,41.42,0,0,1,11.6-2.74C45.15,221.27,45.17,218.27,43.24,218.43Z"/><path class="cls-4" d="M84.74,218.7A37.44,37.44,0,0,0,71.94,221s-1.87,19.58,6.13,19.58S84.74,218.7,84.74,218.7Z"/><path class="cls-4" d="M84.74,217.2a43.4,43.4,0,0,0-13.2,2.32,1.57,1.57,0,0,0-1.1,1.45c-.52,5.65-1.06,22.39,8.42,21,8.46-1.23,7.74-17.22,7.38-23.28-.11-1.92-3.11-1.93-3,0a64.41,64.41,0,0,1,0,7.69c-.2,3.24-.42,10.83-4.07,12.4-6.53,2.8-6-14.44-5.69-17.82l-1.1,1.45a40.52,40.52,0,0,1,12.4-2.22C86.67,220.16,86.68,217.16,84.74,217.2Z"/><g class="cls-14"><g class="cls-15"><path class="cls-7" d="M84,231.09a1,1,0,0,1-.23.39l.59.45a4.08,4.08,0,0,0,.2-.55.38.38,0,0,0-.72-.2,2.13,2.13,0,0,1-.12.38c-.15.35.28.81.59.45a2.18,2.18,0,0,0,.42-.72c.16-.45-.56-.65-.72-.2Z"/><path class="cls-7" d="M84.33,230.47a1.28,1.28,0,0,1-.5-.14l.1.36v-.06l-.17.22a.69.69,0,0,0,.24.22c.4.28.77-.37.38-.65s-1-.55-1.17,0,.56.7.91.76.67-.64.2-.72Z"/><path class="cls-7" d="M84.56,231.27l.83.18c.34.07.66-.36.36-.63a1.2,1.2,0,0,0-1.1-.3c-.47.09-.27.82.2.72a.36.36,0,0,1,.37.1l.36-.63-.83-.18c-.47-.1-.67.62-.2.72Z"/><path class="cls-7" d="M84.9,231c.26-.35.79-1.21.26-1.56s-.82.56-.8.95.77.48.75,0a1.67,1.67,0,0,0,0-.33l-.29,0,.08,0-.26-.26c.08.22-.23.59-.35.76-.29.39.36.76.65.38Z"/><path class="cls-13" d="M82.75,234.54A1.31,1.31,0,0,1,83,235l.69-.29a4.1,4.1,0,0,0-.36-.46c-.32-.36-.85.17-.53.53a1.68,1.68,0,0,1,.24.31.38.38,0,0,0,.69-.29,2,2,0,0,0-.33-.66c-.29-.38-.94,0-.65.38Z"/><path class="cls-13" d="M82.45,234a1.13,1.13,0,0,1-.39.33l.36.1,0,0,.11.27v-.07l-.11.27a.74.74,0,0,1,.36-.24c.44-.18.25-.9-.2-.72s-1.06.5-.72,1,.91-.08,1.16-.35-.2-.89-.53-.53Z"/><path class="cls-13" d="M83.28,234.2l.6-.6a.38.38,0,0,0-.36-.63,1.19,1.19,0,0,0-.83.77c-.18.45.55.64.72.2a.37.37,0,0,1,.31-.25l-.36-.63-.6.6a.38.38,0,0,0,.53.53Z"/><path class="cls-13" d="M83.28,233.87c-.16-.42-.6-1.42-1.22-1.12s0,1,.39,1.19a.38.38,0,0,0,.38-.65,2.38,2.38,0,0,0-.28-.16l-.19.32.07-.05-.29,0c.19,0,.35.48.4.64.17.45.89.25.72-.2Z"/><path class="cls-16" d="M80.5,230.11A1.38,1.38,0,0,1,80,230l-.1.74a4.1,4.1,0,0,0,.59,0c.48-.07.27-.79-.2-.72a2.1,2.1,0,0,1-.39,0,.38.38,0,0,0-.1.74,2,2,0,0,0,.73.1c.48,0,.48-.77,0-.75Z"/><path class="cls-16" d="M81.14,230.15a1,1,0,0,1,0-.5l-.26.26h.06l-.29,0,.06,0-.17-.22a.75.75,0,0,1,0,.42c-.1.47.62.67.72.2s.16-1.17-.45-1.13-.42.82-.33,1.18.83.27.72-.2Z"/><path class="cls-16" d="M80.52,230.78l.16.84c.07.39.61.32.72,0a1.15,1.15,0,0,0-.14-1c-.27-.4-.92,0-.65.38a.48.48,0,0,1,.06.47h.72l-.16-.84c-.09-.47-.81-.27-.72.2Z"/><path class="cls-16" d="M80.8,230.93c.43.1,1.59.29,1.59-.45s-.87-.44-1.23-.26-.05.86.38.65a.68.68,0,0,1,.24-.09q.14,0,0,0l-.19-.32v.09l.11-.27c-.14.13-.6,0-.75-.05-.47-.11-.67.61-.2.72Z"/><path class="cls-7" d="M79.6,233.49a1,1,0,0,1-.23.39l.59.45a4.08,4.08,0,0,0,.2-.55.38.38,0,0,0-.72-.2,2.13,2.13,0,0,1-.12.38c-.15.35.28.81.59.45a2.18,2.18,0,0,0,.42-.72c.16-.45-.56-.65-.72-.2Z"/><path class="cls-7" d="M79.94,232.88a1.28,1.28,0,0,1-.5-.14l.1.36V233l-.17.22a.69.69,0,0,0,.24.22c.4.28.77-.37.38-.65s-1-.55-1.17,0,.56.7.91.76.67-.64.2-.72Z"/><path class="cls-7" d="M80.18,233.68l.83.18c.34.07.66-.36.36-.63a1.2,1.2,0,0,0-1.1-.3c-.47.09-.27.82.2.72a.36.36,0,0,1,.37.1l.36-.63-.83-.18c-.47-.1-.67.62-.2.72Z"/><path class="cls-7" d="M80.52,233.45c.26-.35.79-1.21.26-1.56s-.82.56-.8.95.77.48.75,0a1.67,1.67,0,0,0,0-.33l-.29,0,.08,0-.26-.26c.08.22-.23.59-.35.76-.29.39.36.76.65.38Z"/><path class="cls-13" d="M78.37,236.95a1.31,1.31,0,0,1,.25.48l.69-.29a4.1,4.1,0,0,0-.36-.46c-.32-.36-.85.17-.53.53a1.68,1.68,0,0,1,.24.31.38.38,0,0,0,.69-.29,2,2,0,0,0-.33-.66c-.29-.38-.94,0-.65.38Z"/><path class="cls-13" d="M78.07,236.4a1.13,1.13,0,0,1-.39.33l.36.1,0,0,.11.27V237l-.11.27a.74.74,0,0,1,.36-.24c.44-.18.25-.9-.2-.72s-1.06.5-.72,1,.91-.08,1.16-.35-.2-.89-.53-.53Z"/><path class="cls-13" d="M78.9,236.6l.6-.6a.38.38,0,0,0-.36-.63,1.19,1.19,0,0,0-.83.77c-.18.45.55.64.72.2a.37.37,0,0,1,.31-.25l-.36-.63-.6.6a.38.38,0,0,0,.53.53Z"/><path class="cls-13" d="M78.9,236.28c-.16-.42-.6-1.42-1.22-1.12s0,1,.39,1.19a.38.38,0,0,0,.38-.65,2.38,2.38,0,0,0-.28-.16l-.19.32.07-.05-.29,0c.19,0,.35.48.4.64.17.45.89.25.72-.2Z"/><path class="cls-16" d="M76.12,232.52a1.38,1.38,0,0,1-.54-.07l-.1.74a4.1,4.1,0,0,0,.59,0c.48-.07.27-.79-.2-.72a2.1,2.1,0,0,1-.39,0,.38.38,0,0,0-.1.74,2,2,0,0,0,.73.1c.48,0,.48-.77,0-.75Z"/><path class="cls-16" d="M76.76,232.55a1,1,0,0,1,0-.5l-.26.26h.06l-.29,0,.06,0-.17-.22a.75.75,0,0,1,0,.42c-.1.47.62.67.72.2s.16-1.17-.45-1.13-.42.82-.33,1.18.83.27.72-.2Z"/><path class="cls-16" d="M76.13,233.18l.16.84c.07.39.61.32.72,0a1.15,1.15,0,0,0-.14-1c-.27-.4-.92,0-.65.38a.48.48,0,0,1,.06.47H77l-.16-.84c-.09-.47-.81-.27-.72.2Z"/><path class="cls-16" d="M76.42,233.34c.43.1,1.59.29,1.59-.45s-.87-.44-1.23-.26-.05.86.38.65a.68.68,0,0,1,.24-.09q.14,0,0,0l-.19-.32v.09l.11-.27c-.14.13-.6,0-.75-.05-.47-.11-.67.61-.2.72Z"/><path class="cls-7" d="M82.88,237.4a1,1,0,0,1-.23.39l.59.45a4.08,4.08,0,0,0,.2-.55.38.38,0,0,0-.72-.2,2.13,2.13,0,0,1-.12.38c-.15.35.28.81.59.45a2.18,2.18,0,0,0,.42-.72c.16-.45-.56-.65-.72-.2Z"/><path class="cls-7" d="M83.23,236.78a1.28,1.28,0,0,1-.5-.14l.1.36v-.06l-.17.22a.69.69,0,0,0,.24.22c.4.28.77-.37.38-.65s-1-.55-1.17,0,.56.7.91.76.67-.64.2-.72Z"/><path class="cls-7" d="M83.47,237.58l.83.18c.34.07.66-.36.36-.63a1.2,1.2,0,0,0-1.1-.3c-.47.09-.27.82.2.72a.36.36,0,0,1,.37.1l.36-.63-.83-.18c-.47-.1-.67.62-.2.72Z"/><path class="cls-7" d="M83.8,237.35c.26-.35.79-1.21.26-1.56s-.82.56-.8.95.77.48.75,0a1.67,1.67,0,0,0,0-.33l-.29,0,.08,0-.26-.26c.08.22-.23.59-.35.76-.29.39.36.76.65.38Z"/><path class="cls-13" d="M81.65,240.85a1.31,1.31,0,0,1,.25.48l.69-.29a4.1,4.1,0,0,0-.36-.46c-.32-.36-.85.17-.53.53a1.68,1.68,0,0,1,.24.31.38.38,0,0,0,.69-.29,2,2,0,0,0-.33-.66c-.29-.38-.94,0-.65.38Z"/><path class="cls-13" d="M81.35,240.3a1.13,1.13,0,0,1-.39.33l.36.1,0,0,.11.27v-.07l-.11.27a.74.74,0,0,1,.36-.24c.44-.18.25-.9-.2-.72s-1.06.5-.72,1,.91-.08,1.16-.35-.2-.89-.53-.53Z"/><path class="cls-13" d="M82.18,240.5l.6-.6a.38.38,0,0,0-.36-.63,1.19,1.19,0,0,0-.83.77c-.18.45.55.64.72.2a.37.37,0,0,1,.31-.25l-.36-.63-.6.6a.38.38,0,0,0,.53.53Z"/><path class="cls-13" d="M82.18,240.18c-.16-.42-.6-1.42-1.22-1.12s0,1,.39,1.19a.38.38,0,0,0,.38-.65,2.38,2.38,0,0,0-.28-.16l-.19.32.07-.05-.29,0c.19,0,.35.48.4.64.17.45.89.25.72-.2Z"/><path class="cls-16" d="M79.4,236.42a1.38,1.38,0,0,1-.54-.07l-.1.74a4.1,4.1,0,0,0,.59,0c.48-.07.27-.79-.2-.72a2.1,2.1,0,0,1-.39,0,.38.38,0,0,0-.1.74,2,2,0,0,0,.73.1c.48,0,.48-.77,0-.75Z"/><path class="cls-16" d="M80,236.45a1,1,0,0,1,0-.5l-.26.26h.06l-.29,0,.06,0L79.4,236a.75.75,0,0,1,0,.42c-.1.47.62.67.72.2s.16-1.17-.45-1.13-.42.82-.33,1.18.83.27.72-.2Z"/><path class="cls-16" d="M79.42,237.09l.16.84c.07.39.61.32.72,0a1.15,1.15,0,0,0-.14-1c-.27-.4-.92,0-.65.38a.48.48,0,0,1,.06.47h.72l-.16-.84c-.09-.47-.81-.27-.72.2Z"/><path class="cls-16" d="M79.7,237.24c.43.1,1.59.29,1.59-.45s-.87-.44-1.23-.26-.05.86.38.65a.68.68,0,0,1,.24-.09q.14,0,0,0l-.19-.32v.09l.11-.27c-.14.13-.6,0-.75-.05-.47-.11-.67.61-.2.72Z"/><path class="cls-7" d="M86.7,231.88a1,1,0,0,1-.23.39l.59.45a4.08,4.08,0,0,0,.2-.55.38.38,0,0,0-.72-.2,2.13,2.13,0,0,1-.12.38c-.15.35.28.81.59.45a2.18,2.18,0,0,0,.42-.72c.16-.45-.56-.65-.72-.2Z"/><path class="cls-7" d="M87,231.26a1.28,1.28,0,0,1-.5-.14l.1.36v-.06l-.17.22a.69.69,0,0,0,.24.22c.4.28.77-.37.38-.65s-1-.55-1.17,0,.56.7.91.76.67-.64.2-.72Z"/><path class="cls-7" d="M87.28,232.06l.83.18c.34.07.66-.36.36-.63a1.2,1.2,0,0,0-1.1-.3c-.47.09-.27.82.2.72a.36.36,0,0,1,.37.1l.36-.63-.83-.18c-.47-.1-.67.62-.2.72Z"/><path class="cls-7" d="M87.62,231.83c.26-.35.79-1.21.26-1.56s-.82.56-.8.95.77.48.75,0a1.67,1.67,0,0,0,0-.33l-.29,0,.08,0-.26-.26c.08.22-.23.59-.35.76-.29.39.36.76.65.38Z"/><path class="cls-13" d="M85.47,235.33a1.31,1.31,0,0,1,.25.48l.69-.29a4.1,4.1,0,0,0-.36-.46c-.32-.36-.85.17-.53.53a1.68,1.68,0,0,1,.24.31.38.38,0,0,0,.69-.29,2,2,0,0,0-.33-.66c-.29-.38-.94,0-.65.38Z"/><path class="cls-13" d="M85.17,234.78a1.13,1.13,0,0,1-.39.33l.36.1,0,0,.11.27v-.07l-.11.27a.74.74,0,0,1,.36-.24c.44-.18.25-.9-.2-.72s-1.06.5-.72,1,.91-.08,1.16-.35-.2-.89-.53-.53Z"/><path class="cls-13" d="M86,235l.6-.6a.38.38,0,0,0-.36-.63,1.19,1.19,0,0,0-.83.77c-.18.45.55.64.72.2a.37.37,0,0,1,.31-.25l-.36-.63-.6.6A.38.38,0,0,0,86,235Z"/><path class="cls-13" d="M86,234.66c-.16-.42-.6-1.42-1.22-1.12s0,1,.39,1.19a.38.38,0,0,0,.38-.65,2.38,2.38,0,0,0-.28-.16l-.19.32.07-.05-.29,0c.19,0,.35.48.4.64.17.45.89.25.72-.2Z"/><path class="cls-16" d="M83.22,230.9a1.38,1.38,0,0,1-.54-.07l-.1.74a4.1,4.1,0,0,0,.59,0c.48-.07.27-.79-.2-.72a2.1,2.1,0,0,1-.39,0,.38.38,0,0,0-.1.74,2,2,0,0,0,.73.1c.48,0,.48-.77,0-.75Z"/><path class="cls-16" d="M83.85,230.94a1,1,0,0,1,0-.5l-.26.26h.06l-.29,0,.06,0-.17-.22a.75.75,0,0,1,0,.42c-.1.47.62.67.72.2s.16-1.17-.45-1.13-.42.82-.33,1.18.83.27.72-.2Z"/><path class="cls-16" d="M83.23,231.57l.16.84c.07.39.61.32.72,0a1.15,1.15,0,0,0-.14-1c-.27-.4-.92,0-.65.38a.48.48,0,0,1,.06.47h.72l-.16-.84c-.09-.47-.81-.27-.72.2Z"/><path class="cls-16" d="M83.52,231.72c.43.1,1.59.29,1.59-.45s-.87-.44-1.23-.26-.05.86.38.65a.68.68,0,0,1,.24-.09q.14,0,0,0l-.19-.32v.09l.11-.27c-.14.13-.6,0-.75-.05-.47-.11-.67.61-.2.72Z"/><path class="cls-7" d="M78.94,228.15a1,1,0,0,1-.23.39l.59.45a4.08,4.08,0,0,0,.2-.55.38.38,0,0,0-.72-.2,2.13,2.13,0,0,1-.12.38c-.15.35.28.81.59.45a2.18,2.18,0,0,0,.42-.72c.16-.45-.56-.65-.72-.2Z"/><path class="cls-7" d="M79.29,227.54a1.28,1.28,0,0,1-.5-.14l.1.36v-.06l-.17.22a.69.69,0,0,0,.24.22c.4.28.77-.37.38-.65s-1-.55-1.17,0,.56.7.91.76.67-.64.2-.72Z"/><path class="cls-7" d="M79.53,228.33l.83.18c.34.07.66-.36.36-.63a1.2,1.2,0,0,0-1.1-.3c-.47.09-.27.82.2.72a.36.36,0,0,1,.37.1l.36-.63-.83-.18c-.47-.1-.67.62-.2.72Z"/><path class="cls-7" d="M79.86,228.1c.26-.35.79-1.21.26-1.56s-.82.56-.8.95.77.48.75,0a1.67,1.67,0,0,0,0-.33l-.29,0,.08,0-.26-.26c.08.22-.23.59-.35.76-.29.39.36.76.65.38Z"/><path class="cls-13" d="M77.71,231.6a1.31,1.31,0,0,1,.25.48l.69-.29a4.1,4.1,0,0,0-.36-.46c-.32-.36-.85.17-.53.53a1.68,1.68,0,0,1,.24.31.38.38,0,0,0,.69-.29,2,2,0,0,0-.33-.66c-.29-.38-.94,0-.65.38Z"/><path class="cls-13" d="M77.42,231.05a1.13,1.13,0,0,1-.39.33l.36.1,0,0,.11.27v-.07l-.11.27a.74.74,0,0,1,.36-.24c.44-.18.25-.9-.2-.72s-1.06.5-.72,1,.91-.08,1.16-.35-.2-.89-.53-.53Z"/><path class="cls-13" d="M78.25,231.26l.6-.6a.38.38,0,0,0-.36-.63,1.19,1.19,0,0,0-.83.77c-.18.45.55.64.72.2a.37.37,0,0,1,.31-.25l-.36-.63-.6.6a.38.38,0,0,0,.53.53Z"/><path class="cls-13" d="M78.25,230.93c-.16-.42-.6-1.42-1.22-1.12s0,1,.39,1.19a.38.38,0,0,0,.38-.65,2.38,2.38,0,0,0-.28-.16l-.19.32.07-.05-.29,0c.19,0,.35.48.4.64.17.45.89.25.72-.2Z"/><path class="cls-16" d="M75.46,227.18a1.38,1.38,0,0,1-.54-.07l-.1.74a4.1,4.1,0,0,0,.59,0c.48-.07.27-.79-.2-.72a2.1,2.1,0,0,1-.39,0,.38.38,0,0,0-.1.74,2,2,0,0,0,.73.1c.48,0,.48-.77,0-.75Z"/><path class="cls-16" d="M76.1,227.21a1,1,0,0,1,0-.5l-.26.26h.06l-.29,0,.06,0-.17-.22a.75.75,0,0,1,0,.42c-.1.47.62.67.72.2s.16-1.17-.45-1.13-.42.82-.33,1.18.83.27.72-.2Z"/><path class="cls-16" d="M75.48,227.84l.16.84c.07.39.61.32.72,0a1.15,1.15,0,0,0-.14-1c-.27-.4-.92,0-.65.38a.48.48,0,0,1,.06.47h.72l-.16-.84c-.09-.47-.81-.27-.72.2Z"/><path class="cls-16" d="M75.76,228c.43.1,1.59.29,1.59-.45s-.87-.44-1.23-.26-.05.86.38.65a.68.68,0,0,1,.24-.09q.14,0,0,0l-.19-.32v.09l.11-.27c-.14.13-.6,0-.75-.05-.47-.11-.67.61-.2.72Z"/><path class="cls-7" d="M83.9,226.72a1.4,1.4,0,0,1-.35.42l.59.45a3.37,3.37,0,0,0,.23-.43c.2-.44-.45-.82-.65-.38a3.37,3.37,0,0,1-.23.43c-.24.38.28.71.59.45a2,2,0,0,0,.47-.57.38.38,0,0,0-.65-.38Z"/><path class="cls-7" d="M84.26,226.18a1,1,0,0,1-.45-.24l.1.36,0-.06-.17.22.06,0-.29,0a.85.85,0,0,1,.35.25c.34.34.88-.19.53-.53s-.91-.75-1.19-.2.49.78.84.91.65-.57.2-.72Z"/><path class="cls-7" d="M84.48,227.05l.79.31c.39.15.57-.37.36-.63a1.14,1.14,0,0,0-1-.43.38.38,0,0,0,0,.75.47.47,0,0,1,.43.21l.36-.63-.79-.31c-.45-.18-.64.55-.2.72Z"/><path class="cls-7" d="M84.77,226.88c.32-.31,1-1.09.52-1.53s-.89.48-.94.87.69.47.75,0,.14-.43.08-.3H84.8l.08,0-.17-.22c0,.16-.36.5-.46.6-.35.33.18.86.53.53Z"/><path class="cls-13" d="M82.13,230a1,1,0,0,1,.14.42l.7-.19a3.37,3.37,0,0,0-.24-.43c-.26-.4-.91,0-.65.38a3.37,3.37,0,0,1,.24.43.38.38,0,0,0,.7-.19,2.19,2.19,0,0,0-.24-.8c-.22-.43-.87,0-.65.38Z"/><path class="cls-13" d="M81.85,229.41a1.31,1.31,0,0,1-.36.22l.27.11,0,0,.11.27v-.07l-.11.27a1,1,0,0,1,.41-.15c.47-.1.27-.83-.2-.72s-1.12.38-.78.9.92,0,1.22-.24-.15-.82-.53-.53Z"/><path class="cls-13" d="M82.65,229.72l.69-.5c.27-.19.22-.74-.19-.7a1.19,1.19,0,0,0-1,.59.38.38,0,0,0,.65.38.36.36,0,0,1,.32-.22l-.19-.7-.69.5c-.39.28,0,.93.38.65Z"/><path class="cls-13" d="M82.72,229.33c-.08-.44-.38-1.45-1-1.24s-.13,1,.18,1.2.91-.23.53-.53c-.05,0-.28-.21-.27-.29l-.19.32.08,0h-.38c.23.1.3.56.34.77.09.47.81.27.72-.2Z"/><path class="cls-16" d="M80.55,225.22a1,1,0,0,1-.42-.14l-.29.69a4.12,4.12,0,0,0,.59.06.38.38,0,0,0,0-.75,1.85,1.85,0,0,1-.39,0c-.39-.07-.69.47-.29.69a2.18,2.18,0,0,0,.8.24c.48.05.47-.7,0-.75Z"/><path class="cls-16" d="M81.24,225.4a1.19,1.19,0,0,1,0-.51l-.32.19H81l-.27-.11.05,0-.11-.27a1,1,0,0,1-.11.51c-.18.45.55.64.72.2s.3-1.09-.29-1.13-.54.72-.51,1.08.78.48.75,0Z"/><path class="cls-16" d="M80.51,225.84l0,.85a.38.38,0,0,0,.7.19,1.2,1.2,0,0,0,0-1.14c-.2-.44-.85-.06-.65.38a.36.36,0,0,1,0,.38l.7.19,0-.85a.38.38,0,0,0-.75,0Z"/><path class="cls-16" d="M80.74,226.07c.41.18,1.37.54,1.64,0s-.73-.7-1.1-.59a.38.38,0,0,0,.2.72.47.47,0,0,0,.31-.1l-.1-.36v.09l.17-.22c-.17.11-.57-.07-.73-.14-.44-.19-.82.46-.38.65Z"/><path class="cls-7" d="M74.56,230.56a1,1,0,0,1-.23.39l.59.45a4.08,4.08,0,0,0,.2-.55.38.38,0,0,0-.72-.2,2.13,2.13,0,0,1-.12.38c-.15.35.28.81.59.45a2.18,2.18,0,0,0,.42-.72c.16-.45-.56-.65-.72-.2Z"/><path class="cls-7" d="M74.91,229.94a1.28,1.28,0,0,1-.5-.14l.1.36v-.06l-.17.22a.69.69,0,0,0,.24.22c.4.28.77-.37.38-.65s-1-.55-1.17,0,.56.7.91.76.67-.64.2-.72Z"/><path class="cls-7" d="M75.15,230.74l.83.18c.34.07.66-.36.36-.63a1.2,1.2,0,0,0-1.1-.3c-.47.09-.27.82.2.72a.36.36,0,0,1,.37.1l.36-.63-.83-.18c-.47-.1-.67.62-.2.72Z"/><path class="cls-7" d="M75.48,230.51c.26-.35.79-1.21.26-1.56s-.82.56-.8.95.77.48.75,0a1.67,1.67,0,0,0,0-.33l-.29,0,.08,0-.26-.26c.08.22-.23.59-.35.76-.29.39.36.76.65.38Z"/><path class="cls-13" d="M73.33,234a1.31,1.31,0,0,1,.25.48l.69-.29a4.1,4.1,0,0,0-.36-.46c-.32-.36-.85.17-.53.53a1.68,1.68,0,0,1,.24.31.38.38,0,0,0,.69-.29,2,2,0,0,0-.33-.66c-.29-.38-.94,0-.65.38Z"/><path class="cls-13" d="M73,233.46a1.13,1.13,0,0,1-.39.33l.36.1,0,0,.11.27V234l-.11.27a.74.74,0,0,1,.36-.24c.44-.18.25-.9-.2-.72s-1.06.5-.72,1,.91-.08,1.16-.35-.2-.89-.53-.53Z"/><path class="cls-13" d="M73.86,233.66l.6-.6a.38.38,0,0,0-.36-.63,1.19,1.19,0,0,0-.83.77c-.18.45.55.64.72.2a.37.37,0,0,1,.31-.25l-.36-.63-.6.6a.38.38,0,0,0,.53.53Z"/><path class="cls-13" d="M73.86,233.34c-.16-.42-.6-1.42-1.22-1.12s0,1,.39,1.19a.38.38,0,0,0,.38-.65,2.38,2.38,0,0,0-.28-.16l-.19.32.07-.05-.29,0c.19,0,.35.48.4.64.17.45.89.25.72-.2Z"/><path class="cls-16" d="M71.08,229.58a1.38,1.38,0,0,1-.54-.07l-.1.74a4.1,4.1,0,0,0,.59,0c.48-.07.27-.79-.2-.72a2.1,2.1,0,0,1-.39,0,.38.38,0,0,0-.1.74,2,2,0,0,0,.73.1c.48,0,.48-.77,0-.75Z"/><path class="cls-16" d="M71.72,229.61a1,1,0,0,1,0-.5l-.26.26h.06l-.29,0,.06,0-.17-.22a.75.75,0,0,1,0,.42c-.1.47.62.67.72.2s.16-1.17-.45-1.13-.42.82-.33,1.18.83.27.72-.2Z"/><path class="cls-16" d="M71.1,230.25l.16.84c.07.39.61.32.72,0a1.15,1.15,0,0,0-.14-1c-.27-.4-.92,0-.65.38a.48.48,0,0,1,.06.47H72l-.16-.84c-.09-.47-.81-.27-.72.2Z"/><path class="cls-16" d="M71.38,230.4c.43.1,1.59.29,1.59-.45s-.87-.44-1.23-.26-.05.86.38.65a.68.68,0,0,1,.24-.09q.14,0,0,0l-.19-.32V230l.11-.27c-.14.13-.6,0-.75-.05-.47-.11-.67.61-.2.72Z"/><path class="cls-7" d="M75.7,236.78a1,1,0,0,1-.23.39l.59.45a4.08,4.08,0,0,0,.2-.55.38.38,0,0,0-.72-.2,2.13,2.13,0,0,1-.12.38c-.15.35.28.81.59.45a2.18,2.18,0,0,0,.42-.72c.16-.45-.56-.65-.72-.2Z"/><path class="cls-7" d="M76,236.17a1.28,1.28,0,0,1-.5-.14l.1.36v-.06l-.17.22a.69.69,0,0,0,.24.22c.4.28.77-.37.38-.65s-1-.55-1.17,0,.56.7.91.76.67-.64.2-.72Z"/><path class="cls-7" d="M76.28,237l.83.18c.34.07.66-.36.36-.63a1.2,1.2,0,0,0-1.1-.3c-.47.09-.27.82.2.72a.36.36,0,0,1,.37.1l.36-.63-.83-.18c-.47-.1-.67.62-.2.72Z"/><path class="cls-7" d="M76.62,236.73c.26-.35.79-1.21.26-1.56s-.82.56-.8.95.77.48.75,0a1.67,1.67,0,0,0,0-.33l-.29,0,.08,0-.26-.26c.08.22-.23.59-.35.76-.29.39.36.76.65.38Z"/><path class="cls-13" d="M74.47,240.23a1.31,1.31,0,0,1,.25.48l.69-.29A4.1,4.1,0,0,0,75,240c-.32-.36-.85.17-.53.53a1.68,1.68,0,0,1,.24.31.38.38,0,0,0,.69-.29,2,2,0,0,0-.33-.66c-.29-.38-.94,0-.65.38Z"/><path class="cls-13" d="M74.17,239.68a1.13,1.13,0,0,1-.39.33l.36.1,0,0,.11.27v-.07l-.11.27a.74.74,0,0,1,.36-.24c.44-.18.25-.9-.2-.72s-1.06.5-.72,1,.91-.08,1.16-.35-.2-.89-.53-.53Z"/><path class="cls-13" d="M75,239.89l.6-.6a.38.38,0,0,0-.36-.63,1.19,1.19,0,0,0-.83.77c-.18.45.55.64.72.2a.37.37,0,0,1,.31-.25l-.36-.63-.6.6a.38.38,0,0,0,.53.53Z"/><path class="cls-13" d="M75,239.56c-.16-.42-.6-1.42-1.22-1.12s0,1,.39,1.19a.38.38,0,0,0,.38-.65,2.38,2.38,0,0,0-.28-.16l-.19.32.07-.05-.29,0c.19,0,.35.48.4.64.17.45.89.25.72-.2Z"/><path class="cls-16" d="M72.22,235.8a1.38,1.38,0,0,1-.54-.07l-.1.74a4.1,4.1,0,0,0,.59,0c.48-.07.27-.79-.2-.72a2.1,2.1,0,0,1-.39,0,.38.38,0,0,0-.1.74,2,2,0,0,0,.73.1c.48,0,.48-.77,0-.75Z"/><path class="cls-16" d="M72.86,235.84a1,1,0,0,1,0-.5l-.26.26h.06l-.29,0,.06,0-.17-.22a.75.75,0,0,1,0,.42c-.1.47.62.67.72.2s.16-1.17-.45-1.13-.42.82-.33,1.18.83.27.72-.2Z"/><path class="cls-16" d="M72.23,236.47l.16.84c.07.39.61.32.72,0a1.15,1.15,0,0,0-.14-1c-.27-.4-.92,0-.65.38a.48.48,0,0,1,.06.47h.72l-.16-.84c-.09-.47-.81-.27-.72.2Z"/><path class="cls-16" d="M72.52,236.63c.43.1,1.59.29,1.59-.45s-.87-.44-1.23-.26-.05.86.38.65a.68.68,0,0,1,.24-.09q.14,0,0,0l-.19-.32v.09l.11-.27c-.14.13-.6,0-.75-.05-.47-.11-.67.61-.2.72Z"/><path class="cls-7" d="M79,240.68a1,1,0,0,1-.23.39l.59.45a4.08,4.08,0,0,0,.2-.55.38.38,0,0,0-.72-.2,2.13,2.13,0,0,1-.12.38c-.15.35.28.81.59.45a2.18,2.18,0,0,0,.42-.72c.16-.45-.56-.65-.72-.2Z"/><path class="cls-7" d="M79.33,240.07a1.28,1.28,0,0,1-.5-.14l.1.36v-.06l-.17.22a.69.69,0,0,0,.24.22c.4.28.77-.37.38-.65s-1-.55-1.17,0,.56.7.91.76.67-.64.2-.72Z"/><path class="cls-7" d="M79.56,240.86l.83.18c.34.07.66-.36.36-.63a1.2,1.2,0,0,0-1.1-.3c-.47.09-.27.82.2.72a.36.36,0,0,1,.37.1l.36-.63-.83-.18c-.47-.1-.67.62-.2.72Z"/><path class="cls-7" d="M79.9,240.63c.26-.35.79-1.21.26-1.56s-.82.56-.8.95.77.48.75,0a1.67,1.67,0,0,0,0-.33l-.29,0,.08,0-.26-.26c.08.22-.23.59-.35.76-.29.39.36.76.65.38Z"/><path class="cls-13" d="M77.75,244.13a1.31,1.31,0,0,1,.25.48l.69-.29a4.1,4.1,0,0,0-.36-.46c-.32-.36-.85.17-.53.53a1.68,1.68,0,0,1,.24.31.38.38,0,0,0,.69-.29,2,2,0,0,0-.33-.66c-.29-.38-.94,0-.65.38Z"/><path class="cls-13" d="M77.45,243.58a1.13,1.13,0,0,1-.39.33l.36.1,0,0,.11.27v-.07l-.11.27a.74.74,0,0,1,.36-.24c.44-.18.25-.9-.2-.72s-1.06.5-.72,1,.91-.08,1.16-.35-.2-.89-.53-.53Z"/><path class="cls-13" d="M78.28,243.79l.6-.6a.38.38,0,0,0-.36-.63,1.19,1.19,0,0,0-.83.77c-.18.45.55.64.72.2a.37.37,0,0,1,.31-.25l-.36-.63-.6.6a.38.38,0,0,0,.53.53Z"/><path class="cls-13" d="M78.28,243.46c-.16-.42-.6-1.42-1.22-1.12s0,1,.39,1.19a.38.38,0,0,0,.38-.65,2.38,2.38,0,0,0-.28-.16l-.19.32.07-.05-.29,0c.19,0,.35.48.4.64.17.45.89.25.72-.2Z"/><path class="cls-16" d="M75.5,239.71a1.38,1.38,0,0,1-.54-.07l-.1.74a4.1,4.1,0,0,0,.59,0c.48-.07.27-.79-.2-.72a2.1,2.1,0,0,1-.39,0,.38.38,0,0,0-.1.74,2,2,0,0,0,.73.1c.48,0,.48-.77,0-.75Z"/><path class="cls-16" d="M76.14,239.74a1,1,0,0,1,0-.5l-.26.26h.06l-.29,0,.06,0-.17-.22a.75.75,0,0,1,0,.42c-.1.47.62.67.72.2s.16-1.17-.45-1.13-.42.82-.33,1.18.83.27.72-.2Z"/><path class="cls-16" d="M75.52,240.37l.16.84c.07.39.61.32.72,0a1.15,1.15,0,0,0-.14-1c-.27-.4-.92,0-.65.38a.48.48,0,0,1,.06.47h.72l-.16-.84c-.09-.47-.81-.27-.72.2Z"/><path class="cls-16" d="M75.8,240.53c.43.1,1.59.29,1.59-.45s-.87-.44-1.23-.26-.05.86.38.65a.68.68,0,0,1,.24-.09q.14,0,0,0l-.19-.32v.09l.11-.27c-.14.13-.6,0-.75-.05-.47-.11-.67.61-.2.72Z"/><path class="cls-7" d="M81.8,220.88a1,1,0,0,1-.23.39l.59.45a4.08,4.08,0,0,0,.2-.55.38.38,0,0,0-.72-.2,2.13,2.13,0,0,1-.12.38c-.15.35.28.81.59.45a2.18,2.18,0,0,0,.42-.72c.16-.45-.56-.65-.72-.2Z"/><path class="cls-7" d="M82.14,220.27a1.28,1.28,0,0,1-.5-.14l.1.36v-.06l-.17.22a.69.69,0,0,0,.24.22c.4.28.77-.37.38-.65s-1-.55-1.17,0,.56.7.91.76.67-.64.2-.72Z"/><path class="cls-7" d="M82.38,221.06l.83.18c.34.07.66-.36.36-.63a1.2,1.2,0,0,0-1.1-.3c-.47.09-.27.82.2.72a.36.36,0,0,1,.37.1l.36-.63-.83-.18c-.47-.1-.67.62-.2.72Z"/><path class="cls-7" d="M82.72,220.83c.26-.35.79-1.21.26-1.56s-.82.56-.8.95.77.48.75,0a1.67,1.67,0,0,0,0-.33l-.29,0,.08,0-.26-.26c.08.22-.23.59-.35.76-.29.39.36.76.65.38Z"/><path class="cls-13" d="M80.57,224.33a1.31,1.31,0,0,1,.25.48l.69-.29a4.1,4.1,0,0,0-.36-.46c-.32-.36-.85.17-.53.53a1.68,1.68,0,0,1,.24.31.38.38,0,0,0,.69-.29,2,2,0,0,0-.33-.66c-.29-.38-.94,0-.65.38Z"/><path class="cls-13" d="M80.27,223.78a1.13,1.13,0,0,1-.39.33l.36.1,0,0,.11.27v-.07l-.11.27a.74.74,0,0,1,.36-.24c.44-.18.25-.9-.2-.72s-1.06.5-.72,1,.91-.08,1.16-.35-.2-.89-.53-.53Z"/><path class="cls-13" d="M81.1,224l.6-.6a.38.38,0,0,0-.36-.63,1.19,1.19,0,0,0-.83.77c-.18.45.55.64.72.2a.37.37,0,0,1,.31-.25l-.36-.63-.6.6a.38.38,0,0,0,.53.53Z"/><path class="cls-13" d="M81.1,223.66c-.16-.42-.6-1.42-1.22-1.12s0,1,.39,1.19a.38.38,0,0,0,.38-.65,2.38,2.38,0,0,0-.28-.16l-.19.32.07-.05-.29,0c.19,0,.35.48.4.64.17.45.89.25.72-.2Z"/><path class="cls-16" d="M78.31,219.9a1.38,1.38,0,0,1-.54-.07l-.1.74a4.1,4.1,0,0,0,.59,0c.48-.07.27-.79-.2-.72a2.1,2.1,0,0,1-.39,0,.38.38,0,0,0-.1.74,2,2,0,0,0,.73.1c.48,0,.48-.77,0-.75Z"/><path class="cls-16" d="M79,219.94a1,1,0,0,1,0-.5l-.26.26h.06l-.29,0,.06,0-.17-.22a.75.75,0,0,1,0,.42c-.1.47.62.67.72.2s.16-1.17-.45-1.13-.42.82-.33,1.18.83.27.72-.2Z"/><path class="cls-16" d="M78.33,220.57l.16.84c.07.39.61.32.72,0a1.15,1.15,0,0,0-.14-1c-.27-.4-.92,0-.65.38a.48.48,0,0,1,.06.47h.72l-.16-.84c-.09-.47-.81-.27-.72.2Z"/><path class="cls-16" d="M78.61,220.73c.43.1,1.59.29,1.59-.45s-.87-.44-1.23-.26-.05.86.38.65a.68.68,0,0,1,.24-.09q.14,0,0,0l-.19-.32v.09l.11-.27c-.14.13-.6,0-.75-.05-.47-.11-.67.61-.2.72Z"/><path class="cls-7" d="M77.9,224.16a1,1,0,0,1-.23.39l.59.45a4.08,4.08,0,0,0,.2-.55.38.38,0,0,0-.72-.2,2.13,2.13,0,0,1-.12.38c-.15.35.28.81.59.45a2.18,2.18,0,0,0,.42-.72c.16-.45-.56-.65-.72-.2Z"/><path class="cls-7" d="M78.24,223.55a1.28,1.28,0,0,1-.5-.14l.1.36v-.06l-.17.22a.69.69,0,0,0,.24.22c.4.28.77-.37.38-.65s-1-.55-1.17,0,.56.7.91.76.67-.64.2-.72Z"/><path class="cls-7" d="M78.48,224.35l.83.18c.34.07.66-.36.36-.63a1.2,1.2,0,0,0-1.1-.3c-.47.09-.27.82.2.72a.36.36,0,0,1,.37.1l.36-.63-.83-.18c-.47-.1-.67.62-.2.72Z"/><path class="cls-7" d="M78.81,224.11c.26-.35.79-1.21.26-1.56s-.82.56-.8.95.77.48.75,0a1.67,1.67,0,0,0,0-.33l-.29,0,.08,0-.26-.26c.08.22-.23.59-.35.76-.29.39.36.76.65.38Z"/><path class="cls-13" d="M76.67,227.61a1.31,1.31,0,0,1,.25.48l.69-.29a4.1,4.1,0,0,0-.36-.46c-.32-.36-.85.17-.53.53a1.68,1.68,0,0,1,.24.31.38.38,0,0,0,.69-.29,2,2,0,0,0-.33-.66c-.29-.38-.94,0-.65.38Z"/><path class="cls-13" d="M76.37,227.07a1.13,1.13,0,0,1-.39.33l.36.1,0,0,.11.27v-.07l-.11.27a.74.74,0,0,1,.36-.24c.44-.18.25-.9-.2-.72s-1.06.5-.72,1,.91-.08,1.16-.35-.2-.89-.53-.53Z"/><path class="cls-13" d="M77.2,227.27l.6-.6a.38.38,0,0,0-.36-.63,1.19,1.19,0,0,0-.83.77c-.18.45.55.64.72.2a.37.37,0,0,1,.31-.25l-.36-.63-.6.6a.38.38,0,0,0,.53.53Z"/><path class="cls-13" d="M77.2,226.95c-.16-.42-.6-1.42-1.22-1.12s0,1,.39,1.19a.38.38,0,0,0,.38-.65,2.38,2.38,0,0,0-.28-.16l-.19.32.07-.05-.29,0c.19,0,.35.48.4.64.17.45.89.25.72-.2Z"/><path class="cls-16" d="M74.41,223.19a1.38,1.38,0,0,1-.54-.07l-.1.74a4.1,4.1,0,0,0,.59,0c.48-.07.27-.79-.2-.72a2.1,2.1,0,0,1-.39,0,.38.38,0,0,0-.1.74,2,2,0,0,0,.73.1c.48,0,.48-.77,0-.75Z"/><path class="cls-16" d="M75.05,223.22a1,1,0,0,1,0-.5l-.26.26h.06l-.29,0,.06,0-.17-.22a.75.75,0,0,1,0,.42c-.1.47.62.67.72.2s.16-1.17-.45-1.13-.42.82-.33,1.18.83.27.72-.2Z"/><path class="cls-16" d="M74.43,223.85l.16.84c.07.39.61.32.72,0a1.15,1.15,0,0,0-.14-1c-.27-.4-.92,0-.65.38a.48.48,0,0,1,.06.47h.72l-.16-.84c-.09-.47-.81-.27-.72.2Z"/><path class="cls-16" d="M74.71,224c.43.1,1.59.29,1.59-.45s-.87-.44-1.23-.26-.05.86.38.65a.68.68,0,0,1,.24-.09q.14,0,0,0l-.19-.32v.09l.11-.27c-.14.13-.6,0-.75-.05-.47-.11-.67.61-.2.72Z"/><path class="cls-7" d="M73,225.69a1,1,0,0,1-.23.39l.59.45a4.08,4.08,0,0,0,.2-.55.38.38,0,0,0-.72-.2,2.13,2.13,0,0,1-.12.38c-.15.35.28.81.59.45a2.18,2.18,0,0,0,.42-.72c.16-.45-.56-.65-.72-.2Z"/><path class="cls-7" d="M73.38,225.08a1.28,1.28,0,0,1-.5-.14l.1.36v-.06l-.17.22a.69.69,0,0,0,.24.22c.4.28.77-.37.38-.65s-1-.55-1.17,0,.56.7.91.76.67-.64.2-.72Z"/><path class="cls-7" d="M73.61,225.88l.83.18c.34.07.66-.36.36-.63a1.2,1.2,0,0,0-1.1-.3c-.47.09-.27.82.2.72a.36.36,0,0,1,.37.1l.36-.63-.83-.18c-.47-.1-.67.62-.2.72Z"/><path class="cls-7" d="M74,225.65c.26-.35.79-1.21.26-1.56s-.82.56-.8.95.77.48.75,0a1.67,1.67,0,0,0,0-.33l-.29,0,.08,0-.26-.26c.08.22-.23.59-.35.76-.29.39.36.76.65.38Z"/><path class="cls-13" d="M71.8,229.14a1.31,1.31,0,0,1,.25.48l.69-.29a4.1,4.1,0,0,0-.36-.46c-.32-.36-.85.17-.53.53a1.68,1.68,0,0,1,.24.31.38.38,0,0,0,.69-.29,2,2,0,0,0-.33-.66c-.29-.38-.94,0-.65.38Z"/><path class="cls-13" d="M71.5,228.6a1.13,1.13,0,0,1-.39.33l.36.1,0,0,.11.27v-.07l-.11.27a.74.74,0,0,1,.36-.24c.44-.18.25-.9-.2-.72s-1.06.5-.72,1,.91-.08,1.16-.35-.2-.89-.53-.53Z"/><path class="cls-13" d="M72.33,228.8l.6-.6a.38.38,0,0,0-.36-.63,1.19,1.19,0,0,0-.83.77c-.18.45.55.64.72.2a.37.37,0,0,1,.31-.25l-.36-.63-.6.6a.38.38,0,0,0,.53.53Z"/><path class="cls-13" d="M72.33,228.48c-.16-.42-.6-1.42-1.22-1.12s0,1,.39,1.19a.38.38,0,0,0,.38-.65,2.38,2.38,0,0,0-.28-.16l-.19.32.07-.05-.29,0c.19,0,.35.48.4.64.17.45.89.25.72-.2Z"/><path class="cls-16" d="M69.55,224.72a1.38,1.38,0,0,1-.54-.07l-.1.74a4.1,4.1,0,0,0,.59,0c.48-.07.27-.79-.2-.72a2.1,2.1,0,0,1-.39,0,.38.38,0,0,0-.1.74,2,2,0,0,0,.73.1c.48,0,.48-.77,0-.75Z"/><path class="cls-16" d="M70.19,224.75a1,1,0,0,1,0-.5l-.26.26h.06l-.29,0,.06,0-.17-.22a.75.75,0,0,1,0,.42c-.1.47.62.67.72.2s.16-1.17-.45-1.13-.42.82-.33,1.18.83.27.72-.2Z"/><path class="cls-16" d="M69.57,225.38l.16.84c.07.39.61.32.72,0a1.15,1.15,0,0,0-.14-1c-.27-.4-.92,0-.65.38a.48.48,0,0,1,.06.47h.72l-.16-.84c-.09-.47-.81-.27-.72.2Z"/><path class="cls-16" d="M69.85,225.54c.43.1,1.59.29,1.59-.45s-.87-.44-1.23-.26-.05.86.38.65a.68.68,0,0,1,.24-.09q.14,0,0,0l-.19-.32v.09l.11-.27c-.14.13-.6,0-.75-.05-.47-.11-.67.61-.2.72Z"/><path class="cls-7" d="M76.36,219.3a1,1,0,0,1-.23.39l.59.45a4.08,4.08,0,0,0,.2-.55.38.38,0,0,0-.72-.2,2.13,2.13,0,0,1-.12.38c-.15.35.28.81.59.45a2.18,2.18,0,0,0,.42-.72c.16-.45-.56-.65-.72-.2Z"/><path class="cls-7" d="M76.71,218.68a1.28,1.28,0,0,1-.5-.14l.1.36v-.06l-.17.22a.69.69,0,0,0,.24.22c.4.28.77-.37.38-.65s-1-.55-1.17,0,.56.7.91.76.67-.64.2-.72Z"/><path class="cls-7" d="M76.95,219.48l.83.18c.34.07.66-.36.36-.63a1.2,1.2,0,0,0-1.1-.3c-.47.09-.27.82.2.72a.36.36,0,0,1,.37.1l.36-.63-.83-.18c-.47-.1-.67.62-.2.72Z"/><path class="cls-7" d="M77.28,219.25c.26-.35.79-1.21.26-1.56s-.82.56-.8.95.77.48.75,0a1.67,1.67,0,0,0,0-.33l-.29,0,.08,0-.26-.26c.08.22-.23.59-.35.76-.29.39.36.76.65.38Z"/><path class="cls-13" d="M75.14,222.75a1.31,1.31,0,0,1,.25.48l.69-.29a4.1,4.1,0,0,0-.36-.46c-.32-.36-.85.17-.53.53a1.68,1.68,0,0,1,.24.31.38.38,0,0,0,.69-.29,2,2,0,0,0-.33-.66c-.29-.38-.94,0-.65.38Z"/><path class="cls-13" d="M74.84,222.2a1.13,1.13,0,0,1-.39.33l.36.1,0,0,.11.27v-.07l-.11.27a.74.74,0,0,1,.36-.24c.44-.18.25-.9-.2-.72s-1.06.5-.72,1,.91-.08,1.16-.35-.2-.89-.53-.53Z"/><path class="cls-13" d="M75.67,222.41l.6-.6a.38.38,0,0,0-.36-.63,1.19,1.19,0,0,0-.83.77c-.18.45.55.64.72.2a.37.37,0,0,1,.31-.25l-.36-.63-.6.6a.38.38,0,0,0,.53.53Z"/><path class="cls-13" d="M75.67,222.08c-.16-.42-.6-1.42-1.22-1.12s0,1,.39,1.19a.38.38,0,0,0,.38-.65,2.38,2.38,0,0,0-.28-.16l-.19.32.07-.05-.29,0c.19,0,.35.48.4.64.17.45.89.25.72-.2Z"/><path class="cls-16" d="M72.88,218.32a1.38,1.38,0,0,1-.54-.07l-.1.74a4.1,4.1,0,0,0,.59,0c.48-.07.27-.79-.2-.72a2.1,2.1,0,0,1-.39,0,.38.38,0,0,0-.1.74,2,2,0,0,0,.73.1c.48,0,.48-.77,0-.75Z"/><path class="cls-16" d="M73.52,218.36a1,1,0,0,1,0-.5l-.26.26h.06l-.29,0,.06,0-.17-.22a.75.75,0,0,1,0,.42c-.1.47.62.67.72.2s.16-1.17-.45-1.13-.42.82-.33,1.18.83.27.72-.2Z"/><path class="cls-16" d="M72.9,219l.16.84c.07.39.61.32.72,0a1.15,1.15,0,0,0-.14-1c-.27-.4-.92,0-.65.38a.48.48,0,0,1,.06.47h.72l-.16-.84c-.09-.47-.81-.27-.72.2Z"/><path class="cls-16" d="M73.18,219.15c.43.1,1.59.29,1.59-.45s-.87-.44-1.23-.26-.05.86.38.65a.68.68,0,0,1,.24-.09q.14,0,0,0l-.19-.32v.09l.11-.27c-.14.13-.6,0-.75-.05-.47-.11-.67.61-.2.72Z"/><path class="cls-7" d="M72,221.7a1,1,0,0,1-.23.39l.59.45a4.08,4.08,0,0,0,.2-.55.38.38,0,0,0-.72-.2,2.13,2.13,0,0,1-.12.38c-.15.35.28.81.59.45a2.18,2.18,0,0,0,.42-.72c.16-.45-.56-.65-.72-.2Z"/><path class="cls-7" d="M72.33,221.09a1.28,1.28,0,0,1-.5-.14l.1.36v-.06l-.17.22a.69.69,0,0,0,.24.22c.4.28.77-.37.38-.65s-1-.55-1.17,0,.56.7.91.76.67-.64.2-.72Z"/><path class="cls-7" d="M72.57,221.89l.83.18c.34.07.66-.36.36-.63a1.2,1.2,0,0,0-1.1-.3c-.47.09-.27.82.2.72a.36.36,0,0,1,.37.1l.36-.63-.83-.18c-.47-.1-.67.62-.2.72Z"/><path class="cls-7" d="M72.9,221.66c.26-.35.79-1.21.26-1.56s-.82.56-.8.95.77.48.75,0a1.67,1.67,0,0,0,0-.33l-.29,0,.08,0-.26-.26c.08.22-.23.59-.35.76-.29.39.36.76.65.38Z"/><path class="cls-13" d="M70.75,225.16a1.31,1.31,0,0,1,.25.48l.69-.29a4.1,4.1,0,0,0-.36-.46c-.32-.36-.85.17-.53.53a1.68,1.68,0,0,1,.24.31.38.38,0,0,0,.69-.29,2,2,0,0,0-.33-.66c-.29-.38-.94,0-.65.38Z"/><path class="cls-13" d="M70.45,224.61a1.13,1.13,0,0,1-.39.33l.36.1,0,0,.11.27v-.07l-.11.27a.74.74,0,0,1,.36-.24c.44-.18.25-.9-.2-.72s-1.06.5-.72,1,.91-.08,1.16-.35-.2-.89-.53-.53Z"/><path class="cls-13" d="M71.28,224.81l.6-.6a.38.38,0,0,0-.36-.63,1.19,1.19,0,0,0-.83.77c-.18.45.55.64.72.2a.37.37,0,0,1,.31-.25l-.36-.63-.6.6a.38.38,0,0,0,.53.53Z"/><path class="cls-13" d="M71.28,224.49c-.16-.42-.6-1.42-1.22-1.12s0,1,.39,1.19a.38.38,0,0,0,.38-.65,2.38,2.38,0,0,0-.28-.16l-.19.32.07-.05-.29,0c.19,0,.35.48.4.64.17.45.89.25.72-.2Z"/><path class="cls-16" d="M68.4,220.74a.79.79,0,0,0-.42.4c-.06.1-.1.21-.15.32l-.08.18q-.12.16.12,0l.1.74a.67.67,0,0,0,.4-.45c0-.12.08-.24.12-.36s.14-.3.06-.26c.42-.23,0-.88-.38-.65a.81.81,0,0,0-.32.48c0,.12-.08.25-.12.37s-.16.22,0,.15a.38.38,0,0,0,.1.74.57.57,0,0,0,.51-.35c.07-.11.11-.24.17-.35a1.21,1.21,0,0,0,.09-.18c0-.11.15-.12,0-.05.44-.17.25-.9-.2-.72Z"/><path class="cls-16" d="M69.14,220.76a1,1,0,0,1,0-.5l-.26.26h.06l-.29,0,.06,0-.17-.22a.75.75,0,0,1,0,.42c-.1.47.62.67.72.2s.16-1.17-.45-1.13-.42.82-.33,1.18.83.27.72-.2Z"/><path class="cls-16" d="M68.52,221.39l.16.84c.07.39.61.32.72,0a1.15,1.15,0,0,0-.14-1c-.27-.4-.92,0-.65.38a.48.48,0,0,1,.06.47h.72l-.16-.84c-.09-.47-.81-.27-.72.2Z"/><path class="cls-16" d="M68.8,221.55c.43.1,1.59.29,1.59-.45s-.87-.44-1.23-.26-.05.86.38.65a.68.68,0,0,1,.24-.09q.14,0,0,0l-.19-.32v.09l.11-.27c-.14.13-.6,0-.75-.05-.47-.11-.67.61-.2.72Z"/><path class="cls-7" d="M85.48,223.42a1,1,0,0,1-.23.39l.59.45a4.08,4.08,0,0,0,.2-.55.38.38,0,0,0-.72-.2,2.13,2.13,0,0,1-.12.38c-.15.35.28.81.59.45a2.18,2.18,0,0,0,.42-.72c.16-.45-.56-.65-.72-.2Z"/><path class="cls-7" d="M85.82,222.81a1.28,1.28,0,0,1-.5-.14l.1.36V223l-.17.22a.69.69,0,0,0,.24.22c.4.28.77-.37.38-.65s-1-.55-1.17,0,.56.7.91.76.67-.64.2-.72Z"/><path class="cls-7" d="M86.06,223.61l.83.18c.34.07.66-.36.36-.63a1.2,1.2,0,0,0-1.1-.3c-.47.09-.27.82.2.72a.36.36,0,0,1,.37.1l.36-.63-.83-.18c-.47-.1-.67.62-.2.72Z"/><path class="cls-7" d="M86.39,223.37c.26-.35.79-1.21.26-1.56s-.82.56-.8.95.77.48.75,0a1.67,1.67,0,0,0,0-.33l-.29,0,.08,0-.26-.26c.08.22-.23.59-.35.76-.29.39.36.76.65.38Z"/><path class="cls-13" d="M84.25,226.87a1.31,1.31,0,0,1,.25.48l.69-.29a4.1,4.1,0,0,0-.36-.46c-.32-.36-.85.17-.53.53a1.68,1.68,0,0,1,.24.31.38.38,0,0,0,.69-.29,2,2,0,0,0-.33-.66c-.29-.38-.94,0-.65.38Z"/><path class="cls-13" d="M83.95,226.33a1.13,1.13,0,0,1-.39.33l.36.1,0,0L84,227v-.07l-.11.27a.74.74,0,0,1,.36-.24c.44-.18.25-.9-.2-.72s-1.06.5-.72,1,.91-.08,1.16-.35-.2-.89-.53-.53Z"/><path class="cls-13" d="M84.78,226.53l.6-.6a.38.38,0,0,0-.36-.63,1.19,1.19,0,0,0-.83.77c-.18.45.55.64.72.2a.37.37,0,0,1,.31-.25l-.36-.63-.6.6a.38.38,0,0,0,.53.53Z"/><path class="cls-13" d="M84.78,226.21c-.16-.42-.6-1.42-1.22-1.12s0,1,.39,1.19a.38.38,0,0,0,.38-.65,2.38,2.38,0,0,0-.28-.16l-.19.32.07-.05-.29,0c.19,0,.35.48.4.64.17.45.89.25.72-.2Z"/><path class="cls-16" d="M82,222.45a1.38,1.38,0,0,1-.54-.07l-.1.74a4.1,4.1,0,0,0,.59,0c.48-.07.27-.79-.2-.72a2.1,2.1,0,0,1-.39,0,.38.38,0,0,0-.1.74,2,2,0,0,0,.73.1c.48,0,.48-.77,0-.75Z"/><path class="cls-16" d="M82.63,222.48a1,1,0,0,1,0-.5l-.26.26h.06l-.29,0,.06,0L82,222a.75.75,0,0,1,0,.42c-.1.47.62.67.72.2s.16-1.17-.45-1.13-.42.82-.33,1.18.83.27.72-.2Z"/><path class="cls-16" d="M82,223.11l.16.84c.07.39.61.32.72,0a1.15,1.15,0,0,0-.14-1c-.27-.4-.92,0-.65.38a.48.48,0,0,1,.06.47h.72l-.16-.84c-.09-.47-.81-.27-.72.2Z"/><path class="cls-16" d="M82.29,223.27c.43.1,1.59.29,1.59-.45s-.87-.44-1.23-.26-.05.86.38.65a.68.68,0,0,1,.24-.09q.14,0,0,0l-.19-.32v.09l.11-.27c-.14.13-.6,0-.75-.05-.47-.11-.67.61-.2.72Z"/><path class="cls-7" d="M88.85,229.56a1,1,0,0,1-.23.39l.59.45a4.08,4.08,0,0,0,.2-.55.38.38,0,0,0-.72-.2,2.13,2.13,0,0,1-.12.38c-.15.35.28.81.59.45a2.18,2.18,0,0,0,.42-.72c.16-.45-.56-.65-.72-.2Z"/><path class="cls-7" d="M89.19,228.94a1.28,1.28,0,0,1-.5-.14l.1.36v-.06l-.17.22a.69.69,0,0,0,.24.22c.4.28.77-.37.38-.65s-1-.55-1.17,0,.56.7.91.76.67-.64.2-.72Z"/><path class="cls-7" d="M89.43,229.74l.83.18c.34.07.66-.36.36-.63a1.2,1.2,0,0,0-1.1-.3c-.47.09-.27.82.2.72a.36.36,0,0,1,.37.1l.36-.63-.83-.18c-.47-.1-.67.62-.2.72Z"/><path class="cls-7" d="M89.76,229.51c.26-.35.79-1.21.26-1.56s-.82.56-.8.95.77.48.75,0a1.67,1.67,0,0,0,0-.33l-.29,0,.08,0-.26-.26c.08.22-.23.59-.35.76-.29.39.36.76.65.38Z"/><path class="cls-13" d="M87.62,233a1.31,1.31,0,0,1,.25.48l.69-.29a4.1,4.1,0,0,0-.36-.46c-.32-.36-.85.17-.53.53a1.68,1.68,0,0,1,.24.31.38.38,0,0,0,.69-.29,2,2,0,0,0-.33-.66c-.29-.38-.94,0-.65.38Z"/><path class="cls-13" d="M87.32,232.46a1.13,1.13,0,0,1-.39.33l.36.1,0,0,.11.27V233l-.11.27a.74.74,0,0,1,.36-.24c.44-.18.25-.9-.2-.72s-1.06.5-.72,1,.91-.08,1.16-.35-.2-.89-.53-.53Z"/><path class="cls-13" d="M88.15,232.66l.6-.6a.38.38,0,0,0-.36-.63,1.19,1.19,0,0,0-.83.77c-.18.45.55.64.72.2a.37.37,0,0,1,.31-.25l-.36-.63-.6.6a.38.38,0,0,0,.53.53Z"/><path class="cls-13" d="M88.15,232.34c-.16-.42-.6-1.42-1.22-1.12s0,1,.39,1.19a.38.38,0,0,0,.38-.65,2.38,2.38,0,0,0-.28-.16l-.19.32.07-.05-.29,0c.19,0,.35.48.4.64.17.45.89.25.72-.2Z"/><path class="cls-16" d="M85.36,228.58a1.38,1.38,0,0,1-.54-.07l-.1.74a4.1,4.1,0,0,0,.59,0c.48-.07.27-.79-.2-.72a2.1,2.1,0,0,1-.39,0,.38.38,0,0,0-.1.74,2,2,0,0,0,.73.1c.48,0,.48-.77,0-.75Z"/><path class="cls-16" d="M86,228.61a1,1,0,0,1,0-.5l-.26.26h.06l-.29,0,.06,0-.17-.22a.75.75,0,0,1,0,.42c-.1.47.62.67.72.2s.16-1.17-.45-1.13-.42.82-.33,1.18.83.27.72-.2Z"/><path class="cls-16" d="M85.38,229.25l.16.84c.07.39.61.32.72,0a1.15,1.15,0,0,0-.14-1c-.27-.4-.92,0-.65.38a.48.48,0,0,1,.06.47h.72L86.1,229c-.09-.47-.81-.27-.72.2Z"/><path class="cls-16" d="M85.66,229.4c.43.1,1.59.29,1.59-.45s-.87-.44-1.23-.26-.05.86.38.65a.68.68,0,0,1,.24-.09q.14,0,0,0l-.19-.32V229l.11-.27c-.14.13-.6,0-.75-.05-.47-.11-.67.61-.2.72Z"/></g></g><g class="cls-14"><g class="cls-17"><path class="cls-7" d="M34.63,225.36A1.4,1.4,0,0,1,35,225l-.45-.59a4.1,4.1,0,0,0-.36.46c-.27.4.38.78.65.38a1.66,1.66,0,0,1,.24-.31.38.38,0,0,0-.45-.59,1.94,1.94,0,0,0-.56.48c-.3.37.23.91.53.53Z"/><path class="cls-7" d="M34.17,225.78a1.08,1.08,0,0,1,.42.3v-.38l0,.06.22-.17-.06,0,.29,0a.74.74,0,0,1-.32-.29c-.28-.39-.93,0-.65.38s.74.91,1.14.45-.3-.87-.63-1-.8.42-.38.65Z"/><path class="cls-7" d="M34.16,224.92l-.73-.44a.38.38,0,0,0-.51.51,1.14,1.14,0,0,0,.85.6c.47.07.68-.66.2-.72a.47.47,0,0,1-.41-.26l-.51.51.73.44a.38.38,0,0,0,.38-.65Z"/><path class="cls-7" d="M33.85,225c-.37.25-1.23.92-.79,1.45s.95-.29,1.06-.68a.38.38,0,0,0-.72-.2l-.1.31.36.1-.07-.06.11.27c0-.19.4-.45.53-.54.4-.27,0-.92-.38-.65Z"/><path class="cls-13" d="M37,222.41a1.38,1.38,0,0,1-.07-.54l-.74.1a4.08,4.08,0,0,0,.2.55c.19.44.84.06.65-.38a2.11,2.11,0,0,1-.12-.37.38.38,0,0,0-.74.1,2,2,0,0,0,.1.73c.15.46.87.26.72-.2Z"/><path class="cls-13" d="M37.09,223a1,1,0,0,1,.48-.17l-.32-.19,0,.05,0-.29,0,.06.17-.22a.75.75,0,0,1-.42.1c-.48,0-.48.78,0,.75s1.17-.15,1-.73-.9-.19-1.23,0,0,.88.38.65Z"/><path class="cls-13" d="M36.32,222.6l-.77.37c-.36.17-.15.68.19.7a1.14,1.14,0,0,0,1-.4c.31-.36-.21-.9-.53-.53a.48.48,0,0,1-.44.19l.19.7.77-.37c.43-.21.05-.86-.38-.65Z"/><path class="cls-13" d="M36.24,222.92c0,.44.12,1.56.81,1.43s.24-1,0-1.26-.85.17-.53.53a.67.67,0,0,1,.15.21q.05.14,0,0l.26-.26-.08,0,.29,0c-.15-.1-.15-.6-.15-.74a.38.38,0,0,0-.75,0Z"/><path class="cls-16" d="M37.67,227.36a1.31,1.31,0,0,1,.48.25l.29-.69a3.37,3.37,0,0,0-.47-.13c-.47-.09-.67.63-.2.72a3.37,3.37,0,0,1,.47.13c.44.15.6-.45.29-.69a2,2,0,0,0-.66-.33.38.38,0,0,0-.2.72Z"/><path class="cls-16" d="M37.06,227.14a1,1,0,0,1-.14.49l.32-.19h-.06l.27.11,0-.05.11.27a.93.93,0,0,1,.17-.39A.38.38,0,0,0,37,227c-.21.34-.51,1.07.1,1.19s.64-.67.68-1-.7-.48-.75,0Z"/><path class="cls-16" d="M37.84,226.8,38,226c0-.32-.37-.7-.63-.36a1.19,1.19,0,0,0-.25,1.11.38.38,0,0,0,.72-.2.37.37,0,0,1,.06-.38l-.63-.36-.12.84c-.07.47.65.68.72.2Z"/><path class="cls-16" d="M37.61,226.47c-.36-.24-1.24-.71-1.58-.19s.57.8,1,.76.48-.8,0-.75a3.51,3.51,0,0,1-.4,0l.1.36,0-.08-.17.22c.14-.06.57.24.69.32.41.26.78-.39.38-.65Z"/><path class="cls-7" d="M39.56,224.51a1.4,1.4,0,0,1,.41-.36l-.45-.59a4.1,4.1,0,0,0-.36.46c-.27.4.38.78.65.38a1.66,1.66,0,0,1,.24-.31.38.38,0,0,0-.45-.59A1.94,1.94,0,0,0,39,224c-.3.37.23.91.53.53Z"/><path class="cls-7" d="M39.1,224.94a1.08,1.08,0,0,1,.42.3v-.38l0,.06.22-.17-.06,0,.29,0a.74.74,0,0,1-.32-.29c-.28-.39-.93,0-.65.38s.74.91,1.14.45-.3-.87-.63-1-.8.42-.38.65Z"/><path class="cls-7" d="M39.09,224.07l-.73-.44a.38.38,0,0,0-.51.51,1.14,1.14,0,0,0,.85.6c.47.07.68-.66.2-.72a.47.47,0,0,1-.41-.26l-.51.51.73.44a.38.38,0,0,0,.38-.65Z"/><path class="cls-7" d="M38.78,224.16c-.37.25-1.23.92-.79,1.45s.95-.29,1.06-.68a.38.38,0,0,0-.72-.2l-.1.31.36.1-.07-.06.11.27c0-.19.4-.45.53-.54.4-.27,0-.92-.38-.65Z"/><path class="cls-13" d="M41.88,221.56a1.38,1.38,0,0,1-.07-.54l-.74.1a4.08,4.08,0,0,0,.2.55c.19.44.84.06.65-.38a2.11,2.11,0,0,1-.12-.37.38.38,0,0,0-.74.1,2,2,0,0,0,.1.73c.15.46.87.26.72-.2Z"/><path class="cls-13" d="M42,222.19a1,1,0,0,1,.48-.17l-.32-.19,0,.05,0-.29,0,.06.17-.22a.75.75,0,0,1-.42.1c-.48,0-.48.78,0,.75s1.17-.15,1-.73-.9-.19-1.23,0,0,.88.38.65Z"/><path class="cls-13" d="M41.25,221.76l-.77.37c-.36.17-.15.68.19.7a1.14,1.14,0,0,0,1-.4c.31-.36-.21-.9-.53-.53a.48.48,0,0,1-.44.19l.19.7.77-.37c.43-.21.05-.86-.38-.65Z"/><path class="cls-13" d="M41.17,222.07c0,.44.12,1.56.81,1.43s.24-1,0-1.26-.85.17-.53.53a.67.67,0,0,1,.15.21q.05.14,0,0l.26-.26-.08,0,.29,0c-.15-.1-.15-.6-.15-.74a.38.38,0,0,0-.75,0Z"/><path class="cls-16" d="M42.6,226.52a1.31,1.31,0,0,1,.48.25l.29-.69a3.37,3.37,0,0,0-.47-.13c-.47-.09-.67.63-.2.72a3.37,3.37,0,0,1,.47.13c.44.15.6-.45.29-.69a2,2,0,0,0-.66-.33.38.38,0,0,0-.2.72Z"/><path class="cls-16" d="M42,226.29a1,1,0,0,1-.14.49l.32-.19H42.1l.27.11,0-.05.11.27a.93.93,0,0,1,.17-.39.38.38,0,0,0-.65-.38c-.21.34-.51,1.07.1,1.19s.64-.67.68-1-.7-.48-.75,0Z"/><path class="cls-16" d="M42.77,226l.12-.84c0-.32-.37-.7-.63-.36a1.19,1.19,0,0,0-.25,1.11.38.38,0,0,0,.72-.2.37.37,0,0,1,.06-.38l-.63-.36-.12.84c-.07.47.65.68.72.2Z"/><path class="cls-16" d="M42.54,225.62c-.36-.24-1.24-.71-1.58-.19s.57.8,1,.76.48-.8,0-.75a3.51,3.51,0,0,1-.4,0l.1.36,0-.08-.17.22c.14-.06.57.24.69.32.41.26.78-.39.38-.65Z"/><path class="cls-7" d="M37.73,219.75a1.4,1.4,0,0,1,.41-.36l-.45-.59a4.1,4.1,0,0,0-.36.46c-.27.4.38.78.65.38a1.66,1.66,0,0,1,.24-.31.38.38,0,0,0-.45-.59,1.94,1.94,0,0,0-.56.48c-.3.37.23.91.53.53Z"/><path class="cls-7" d="M37.27,220.18a1.08,1.08,0,0,1,.42.3v-.38l0,.06.22-.17-.06,0,.29,0a.74.74,0,0,1-.32-.29c-.28-.39-.93,0-.65.38s.74.91,1.14.45-.3-.87-.63-1-.8.42-.38.65Z"/><path class="cls-7" d="M37.26,219.32l-.73-.44a.38.38,0,0,0-.51.51,1.14,1.14,0,0,0,.85.6c.47.07.68-.66.2-.72a.47.47,0,0,1-.41-.26l-.51.51.73.44a.38.38,0,0,0,.38-.65Z"/><path class="cls-7" d="M36.94,219.4c-.37.25-1.23.92-.79,1.45s.95-.29,1.06-.68a.38.38,0,0,0-.72-.2l-.1.31.36.1-.07-.06.11.27c0-.19.4-.45.53-.54.4-.27,0-.92-.38-.65Z"/><path class="cls-13" d="M40.05,216.81a1.38,1.38,0,0,1-.07-.54l-.74.1a4.08,4.08,0,0,0,.2.55c.19.44.84.06.65-.38a2.11,2.11,0,0,1-.12-.37.38.38,0,0,0-.74.1,2,2,0,0,0,.1.73c.15.46.87.26.72-.2Z"/><path class="cls-13" d="M40.19,217.43a1,1,0,0,1,.48-.17l-.32-.19,0,.05,0-.29,0,.06.17-.22a.75.75,0,0,1-.42.1c-.48,0-.48.78,0,.75s1.17-.15,1-.73-.9-.19-1.23,0,0,.88.38.65Z"/><path class="cls-13" d="M39.42,217l-.77.37c-.36.17-.15.68.19.7a1.14,1.14,0,0,0,1-.4c.31-.36-.21-.9-.53-.53a.48.48,0,0,1-.44.19l.19.7.77-.37c.43-.21.05-.86-.38-.65Z"/><path class="cls-13" d="M39.34,217.31c0,.44.12,1.56.81,1.43s.24-1,0-1.26-.85.17-.53.53a.67.67,0,0,1,.15.21q.05.14,0,0L40,218l-.08,0,.29,0c-.15-.1-.15-.6-.15-.74a.38.38,0,0,0-.75,0Z"/><path class="cls-16" d="M40.77,221.76a1.31,1.31,0,0,1,.48.25l.29-.69a3.37,3.37,0,0,0-.47-.13c-.47-.09-.67.63-.2.72a3.37,3.37,0,0,1,.47.13c.44.15.6-.45.29-.69A2,2,0,0,0,41,221a.38.38,0,0,0-.2.72Z"/><path class="cls-16" d="M40.15,221.54A1,1,0,0,1,40,222l.32-.19h-.06l.27.11,0-.05.11.27a.93.93,0,0,1,.17-.39.38.38,0,0,0-.65-.38c-.21.34-.51,1.07.1,1.19s.64-.67.68-1-.7-.48-.75,0Z"/><path class="cls-16" d="M40.93,221.19l.12-.84c0-.32-.37-.7-.63-.36a1.19,1.19,0,0,0-.25,1.11.38.38,0,0,0,.72-.2.37.37,0,0,1,.06-.38l-.63-.36-.12.84c-.07.47.65.68.72.2Z"/><path class="cls-16" d="M40.71,220.86c-.36-.24-1.24-.71-1.58-.19s.57.8,1,.76.48-.8,0-.75a3.51,3.51,0,0,1-.4,0l.1.36,0-.08-.17.22c.14-.06.57.24.69.32.41.26.78-.39.38-.65Z"/><path class="cls-7" d="M32.32,223.72a1.4,1.4,0,0,1,.41-.36l-.45-.59a4.1,4.1,0,0,0-.36.46c-.27.4.38.78.65.38a1.66,1.66,0,0,1,.24-.31.38.38,0,0,0-.45-.59,1.94,1.94,0,0,0-.56.48c-.3.37.23.91.53.53Z"/><path class="cls-7" d="M31.86,224.15a1.08,1.08,0,0,1,.42.3v-.38l0,.06.22-.17-.06,0,.29,0a.74.74,0,0,1-.32-.29c-.28-.39-.93,0-.65.38s.74.91,1.14.45-.3-.87-.63-1-.8.42-.38.65Z"/><path class="cls-7" d="M31.85,223.29l-.73-.44a.38.38,0,0,0-.51.51,1.14,1.14,0,0,0,.85.6c.47.07.68-.66.2-.72a.47.47,0,0,1-.41-.26l-.51.51.73.44a.38.38,0,0,0,.38-.65Z"/><path class="cls-7" d="M31.54,223.38c-.37.25-1.23.92-.79,1.45s.95-.29,1.06-.68a.38.38,0,0,0-.72-.2l-.1.31.36.1-.07-.06.11.27c0-.19.4-.45.53-.54.4-.27,0-.92-.38-.65Z"/><path class="cls-13" d="M34.65,220.78a1.38,1.38,0,0,1-.07-.54l-.74.1a4.08,4.08,0,0,0,.2.55c.19.44.84.06.65-.38a2.11,2.11,0,0,1-.12-.37.38.38,0,0,0-.74.1,2,2,0,0,0,.1.73c.15.46.87.26.72-.2Z"/><path class="cls-13" d="M34.78,221.41a1,1,0,0,1,.48-.17l-.32-.19,0,.05,0-.29,0,.06.17-.22a.75.75,0,0,1-.42.1c-.48,0-.48.78,0,.75s1.17-.15,1-.73-.9-.19-1.23,0,0,.88.38.65Z"/><path class="cls-13" d="M34,221l-.77.37c-.36.17-.15.68.19.7a1.14,1.14,0,0,0,1-.4c.31-.36-.21-.9-.53-.53a.48.48,0,0,1-.44.19l.19.7.77-.37c.43-.21.05-.86-.38-.65Z"/><path class="cls-13" d="M33.93,221.29c0,.44.12,1.56.81,1.43s.24-1,0-1.26-.85.17-.53.53a.67.67,0,0,1,.15.21q.05.14,0,0l.26-.26-.08,0,.29,0c-.15-.1-.15-.6-.15-.74a.38.38,0,0,0-.75,0Z"/><path class="cls-16" d="M35.36,225.73a1.31,1.31,0,0,1,.48.25l.29-.69a3.37,3.37,0,0,0-.47-.13c-.47-.09-.67.63-.2.72a3.37,3.37,0,0,1,.47.13c.44.15.6-.45.29-.69a2,2,0,0,0-.66-.33.38.38,0,0,0-.2.72Z"/><path class="cls-16" d="M34.75,225.51a1,1,0,0,1-.14.49l.32-.19h-.06l.27.11,0-.05.11.27a.93.93,0,0,1,.17-.39.38.38,0,0,0-.65-.38c-.21.34-.51,1.07.1,1.19s.64-.67.68-1-.7-.48-.75,0Z"/><path class="cls-16" d="M35.53,225.17l.12-.84c0-.32-.37-.7-.63-.36a1.19,1.19,0,0,0-.25,1.11.38.38,0,0,0,.72-.2.37.37,0,0,1,.06-.38l-.63-.36-.12.84c-.07.47.65.68.72.2Z"/><path class="cls-16" d="M35.3,224.84c-.36-.24-1.24-.71-1.58-.19s.57.8,1,.76.48-.8,0-.75a3.51,3.51,0,0,1-.4,0l.1.36,0-.08-.17.22c.14-.06.57.24.69.32.41.26.78-.39.38-.65Z"/><path class="cls-7" d="M38.44,229.77a1.4,1.4,0,0,1,.41-.36l-.45-.59a4.1,4.1,0,0,0-.36.46c-.27.4.38.78.65.38a1.66,1.66,0,0,1,.24-.31.38.38,0,0,0-.45-.59,1.94,1.94,0,0,0-.56.48c-.3.37.23.91.53.53Z"/><path class="cls-7" d="M38,230.2a1.08,1.08,0,0,1,.42.3v-.38l0,.06.22-.17-.06,0,.29,0a.74.74,0,0,1-.32-.29c-.28-.39-.93,0-.65.38s.74.91,1.14.45-.3-.87-.63-1-.8.42-.38.65Z"/><path class="cls-7" d="M38,229.34l-.73-.44a.38.38,0,0,0-.51.51,1.14,1.14,0,0,0,.85.6c.47.07.68-.66.2-.72a.47.47,0,0,1-.41-.26l-.51.51.73.44a.38.38,0,0,0,.38-.65Z"/><path class="cls-7" d="M37.65,229.43c-.37.25-1.23.92-.79,1.45s.95-.29,1.06-.68a.38.38,0,0,0-.72-.2l-.1.31.36.1-.07-.06.11.27c0-.19.4-.45.53-.54.4-.27,0-.92-.38-.65Z"/><path class="cls-13" d="M40.76,226.83a1.38,1.38,0,0,1-.07-.54l-.74.1a4.08,4.08,0,0,0,.2.55c.19.44.84.06.65-.38a2.11,2.11,0,0,1-.12-.37.38.38,0,0,0-.74.1,2,2,0,0,0,.1.73c.15.46.87.26.72-.2Z"/><path class="cls-13" d="M40.9,227.46a1,1,0,0,1,.48-.17l-.32-.19,0,.05,0-.29,0,.06.17-.22a.75.75,0,0,1-.42.1c-.48,0-.48.78,0,.75s1.17-.15,1-.73-.9-.19-1.23,0,0,.88.38.65Z"/><path class="cls-13" d="M40.13,227l-.77.37c-.36.17-.15.68.19.7a1.14,1.14,0,0,0,1-.4c.31-.36-.21-.9-.53-.53a.48.48,0,0,1-.44.19l.19.7.77-.37c.43-.21.05-.86-.38-.65Z"/><path class="cls-13" d="M40,227.34c0,.44.12,1.56.81,1.43s.24-1,0-1.26-.85.17-.53.53a.67.67,0,0,1,.15.21q.05.14,0,0l.26-.26-.08,0,.29,0c-.15-.1-.15-.6-.15-.74a.38.38,0,0,0-.75,0Z"/><path class="cls-16" d="M41.48,231.78A1.31,1.31,0,0,1,42,232l.29-.69a3.37,3.37,0,0,0-.47-.13c-.47-.09-.67.63-.2.72a3.37,3.37,0,0,1,.47.13c.44.15.6-.45.29-.69a2,2,0,0,0-.66-.33.38.38,0,0,0-.2.72Z"/><path class="cls-16" d="M40.86,231.56a1,1,0,0,1-.14.49l.32-.19H41l.27.11,0-.05.11.27a.93.93,0,0,1,.17-.39.38.38,0,0,0-.65-.38c-.21.34-.51,1.07.1,1.19s.64-.67.68-1-.7-.48-.75,0Z"/><path class="cls-16" d="M41.64,231.22l.12-.84c0-.32-.37-.7-.63-.36a1.19,1.19,0,0,0-.25,1.11.38.38,0,0,0,.72-.2.37.37,0,0,1,.06-.38l-.63-.36-.12.84c-.07.47.65.68.72.2Z"/><path class="cls-16" d="M41.42,230.89c-.36-.24-1.24-.71-1.58-.19s.57.8,1,.76.48-.8,0-.75a3.51,3.51,0,0,1-.4,0l.1.36,0-.08-.17.22c.14-.06.57.24.69.32.41.26.78-.39.38-.65Z"/><path class="cls-7" d="M33.35,229.44a1,1,0,0,1,.38-.23l-.36-.63a3.37,3.37,0,0,0-.36.33c-.33.35.2.88.53.53a3.37,3.37,0,0,1,.36-.33c.29-.23,0-.76-.36-.63a2.18,2.18,0,0,0-.71.43c-.36.32.17.85.53.53Z"/><path class="cls-7" d="M32.76,229.8c.11.09.32.22.37.36l.1-.36,0,0,.27-.11a.92.92,0,0,0-.12-.3c-.22-.43-.86-.05-.65.38s.6,1,1,.56-.15-.88-.43-1.1-.91.23-.53.53Z"/><path class="cls-7" d="M32.94,229l-.65-.55c-.26-.22-.77,0-.63.36a1.19,1.19,0,0,0,.81.79c.46.14.66-.58.2-.72a.36.36,0,0,1-.29-.27l-.63.36.65.55c.36.31.9-.22.53-.53Z"/><path class="cls-7" d="M32.53,229c-.4.19-1.31.72-.95,1.29s1-.11,1.13-.47-.44-.82-.65-.38c0,0-.16.32-.13.32l.27.11-.06-.07.1.36c0-.24.47-.42.67-.51.44-.2.06-.85-.38-.65Z"/><path class="cls-13" d="M36.07,226.89a1,1,0,0,1,0-.44l-.74-.1a4.12,4.12,0,0,0,.1.58c.11.47.84.27.72-.2a1.84,1.84,0,0,1-.07-.38c0-.39-.64-.54-.74-.1a2.19,2.19,0,0,0,0,.84c.07.48.8.27.72-.2Z"/><path class="cls-13" d="M36.08,227.61a1.2,1.2,0,0,1,.5-.11l-.26-.26,0,.06,0-.29,0,.06.22-.17a1,1,0,0,1-.52,0c-.48-.05-.47.7,0,.75s1.14,0,1-.58-.83-.33-1.18-.21-.26.88.2.72Z"/><path class="cls-13" d="M35.46,227l-.82.24a.38.38,0,0,0,0,.72,1.19,1.19,0,0,0,1.11-.27c.37-.31-.16-.84-.53-.53a.36.36,0,0,1-.38.08V228l.82-.24a.38.38,0,0,0-.2-.72Z"/><path class="cls-13" d="M35.3,227.3c-.06.44-.16,1.59.56,1.58s.41-.88.19-1.22-.9,0-.65.38c0,0,.16.31.18.27l.32-.19h-.09l.27.11c-.13-.12-.08-.6-.06-.74.06-.47-.66-.68-.72-.2Z"/><path class="cls-16" d="M35.95,231.94a1.4,1.4,0,0,1,.44.32l.45-.59a4.1,4.1,0,0,0-.54-.24c-.45-.17-.65.56-.2.72a1.81,1.81,0,0,1,.36.17.38.38,0,0,0,.45-.59,1.94,1.94,0,0,0-.59-.44c-.43-.21-.81.44-.38.65Z"/><path class="cls-16" d="M35.41,231.6a1.06,1.06,0,0,1-.2.47l.36-.1-.06,0,.22.17,0-.06,0,.29A.75.75,0,0,1,36,232c.31-.36-.22-.9-.53-.53s-.7.94-.16,1.21.77-.5.87-.86a.38.38,0,0,0-.72-.2Z"/><path class="cls-16" d="M36.25,231.37l.26-.81a.38.38,0,0,0-.63-.36,1.14,1.14,0,0,0-.38,1c0,.48.8.48.75,0a.46.46,0,0,1,.16-.45l-.63-.36-.26.81c-.15.46.58.66.72.2Z"/><path class="cls-16" d="M36.09,231.09c-.33-.3-1.14-.94-1.56-.45s.51.88.89.9.48-.72,0-.75a1.5,1.5,0,0,0-.31,0v.38l0-.08-.22.17c.16,0,.53.3.64.4.36.32.89-.2.53-.53Z"/><path class="cls-7" d="M43.36,228.93a1.4,1.4,0,0,1,.41-.36l-.45-.59a4.1,4.1,0,0,0-.36.46c-.27.4.38.78.65.38a1.66,1.66,0,0,1,.24-.31.38.38,0,0,0-.45-.59,1.94,1.94,0,0,0-.56.48c-.3.37.23.91.53.53Z"/><path class="cls-7" d="M42.91,229.35a1.08,1.08,0,0,1,.42.3v-.38l0,.06.22-.17-.06,0,.29,0a.74.74,0,0,1-.32-.29c-.28-.39-.93,0-.65.38s.74.91,1.14.45-.3-.87-.63-1-.8.42-.38.65Z"/><path class="cls-7" d="M42.89,228.49l-.73-.44a.38.38,0,0,0-.51.51,1.14,1.14,0,0,0,.85.6c.47.07.68-.66.2-.72a.47.47,0,0,1-.41-.26l-.51.51.73.44a.38.38,0,0,0,.38-.65Z"/><path class="cls-7" d="M42.58,228.58c-.37.25-1.23.92-.79,1.45s.95-.29,1.06-.68a.38.38,0,0,0-.72-.2l-.1.31.36.1-.07-.06.11.27c0-.19.4-.45.53-.54.4-.27,0-.92-.38-.65Z"/><path class="cls-13" d="M45.69,226a1.38,1.38,0,0,1-.07-.54l-.74.1a4.08,4.08,0,0,0,.2.55c.19.44.84.06.65-.38a2.11,2.11,0,0,1-.12-.37.38.38,0,0,0-.74.1,2,2,0,0,0,.1.73c.15.46.87.26.72-.2Z"/><path class="cls-13" d="M45.83,226.61a1,1,0,0,1,.48-.17l-.32-.19,0,.05,0-.29,0,.06.17-.22a.75.75,0,0,1-.42.1c-.48,0-.48.78,0,.75s1.17-.15,1-.73-.9-.19-1.23,0,0,.88.38.65Z"/><path class="cls-13" d="M45.06,226.17l-.77.37c-.36.17-.15.68.19.7a1.14,1.14,0,0,0,1-.4c.31-.36-.21-.9-.53-.53a.48.48,0,0,1-.44.19l.19.7.77-.37c.43-.21.05-.86-.38-.65Z"/><path class="cls-13" d="M45,226.49c0,.44.12,1.56.81,1.43s.24-1,0-1.26-.85.17-.53.53a.67.67,0,0,1,.15.21q.05.14,0,0l.26-.26-.08,0,.29,0c-.15-.1-.15-.6-.15-.74a.38.38,0,0,0-.75,0Z"/><path class="cls-16" d="M46.41,230.93a1.31,1.31,0,0,1,.48.25l.29-.69a3.37,3.37,0,0,0-.47-.13c-.47-.09-.67.63-.2.72a3.37,3.37,0,0,1,.47.13c.44.15.6-.45.29-.69a2,2,0,0,0-.66-.33.38.38,0,0,0-.2.72Z"/><path class="cls-16" d="M45.79,230.71a1,1,0,0,1-.14.49L46,231h-.06l.27.11,0-.05.11.27a.93.93,0,0,1,.17-.39.38.38,0,0,0-.65-.38c-.21.34-.51,1.07.1,1.19s.64-.67.68-1-.7-.48-.75,0Z"/><path class="cls-16" d="M46.57,230.37l.12-.84c0-.32-.37-.7-.63-.36a1.19,1.19,0,0,0-.25,1.11.38.38,0,0,0,.72-.2.37.37,0,0,1,.06-.38l-.63-.36-.12.84c-.07.47.65.68.72.2Z"/><path class="cls-16" d="M46.34,230c-.36-.24-1.24-.71-1.58-.19s.57.8,1,.76.48-.8,0-.75a3.51,3.51,0,0,1-.4,0l.1.36,0-.08-.17.22c.14-.06.57.24.69.32.41.26.78-.39.38-.65Z"/><path class="cls-7" d="M44.32,222.67a1.4,1.4,0,0,1,.41-.36l-.45-.59a4.1,4.1,0,0,0-.36.46c-.27.4.38.78.65.38a1.66,1.66,0,0,1,.24-.31.38.38,0,0,0-.45-.59,1.94,1.94,0,0,0-.56.48c-.3.37.23.91.53.53Z"/><path class="cls-7" d="M43.86,223.1a1.08,1.08,0,0,1,.42.3V223l0,.06.22-.17-.06,0,.29,0a.74.74,0,0,1-.32-.29c-.28-.39-.93,0-.65.38s.74.91,1.14.45-.3-.87-.63-1-.8.42-.38.65Z"/><path class="cls-7" d="M43.85,222.24l-.73-.44a.38.38,0,0,0-.51.51,1.14,1.14,0,0,0,.85.6c.47.07.68-.66.2-.72a.47.47,0,0,1-.41-.26l-.51.51.73.44a.38.38,0,0,0,.38-.65Z"/><path class="cls-7" d="M43.53,222.33c-.37.25-1.23.92-.79,1.45s.95-.29,1.06-.68a.38.38,0,0,0-.72-.2l-.1.31.36.1-.07-.06.11.27c0-.19.4-.45.53-.54.4-.27,0-.92-.38-.65Z"/><path class="cls-13" d="M46.64,219.73a1.38,1.38,0,0,1-.07-.54l-.74.1a4.08,4.08,0,0,0,.2.55c.19.44.84.06.65-.38a2.11,2.11,0,0,1-.12-.37.38.38,0,0,0-.74.1,2,2,0,0,0,.1.73c.15.46.87.26.72-.2Z"/><path class="cls-13" d="M46.78,220.36a1,1,0,0,1,.48-.17l-.32-.19,0,.05,0-.29,0,.06.17-.22a.75.75,0,0,1-.42.1c-.48,0-.48.78,0,.75s1.17-.15,1-.73-.9-.19-1.23,0,0,.88.38.65Z"/><path class="cls-13" d="M46,219.92l-.77.37c-.36.17-.15.68.19.7a1.14,1.14,0,0,0,1-.4c.31-.36-.21-.9-.53-.53a.48.48,0,0,1-.44.19l.19.7.77-.37c.43-.21.05-.86-.38-.65Z"/><path class="cls-13" d="M45.93,220.24c0,.44.12,1.56.81,1.43s.24-1,0-1.26-.85.17-.53.53a.67.67,0,0,1,.15.21q.05.14,0,0l.26-.26-.08,0,.29,0c-.15-.1-.15-.6-.15-.74a.38.38,0,0,0-.75,0Z"/><path class="cls-16" d="M47.36,224.68a1.31,1.31,0,0,1,.48.25l.29-.69a3.37,3.37,0,0,0-.47-.13c-.47-.09-.67.63-.2.72a3.37,3.37,0,0,1,.47.13c.44.15.6-.45.29-.69a2,2,0,0,0-.66-.33.38.38,0,0,0-.2.72Z"/><path class="cls-16" d="M46.74,224.46a1,1,0,0,1-.14.49l.32-.19h-.06l.27.11,0-.05.11.27a.93.93,0,0,1,.17-.39.38.38,0,0,0-.65-.38c-.21.34-.51,1.07.1,1.19s.64-.67.68-1-.7-.48-.75,0Z"/><path class="cls-16" d="M47.52,224.12l.12-.84c0-.32-.37-.7-.63-.36a1.19,1.19,0,0,0-.25,1.11.38.38,0,0,0,.72-.2.37.37,0,0,1,.06-.38l-.63-.36-.12.84c-.07.47.65.68.72.2Z"/><path class="cls-16" d="M47.3,223.79c-.36-.24-1.24-.71-1.58-.19s.57.8,1,.76.48-.8,0-.75a3.51,3.51,0,0,1-.4,0l.1.36,0-.08-.17.22c.14-.06.57.24.69.32.41.26.78-.39.38-.65Z"/><path class="cls-7" d="M42.48,217.92a1.4,1.4,0,0,1,.41-.36l-.45-.59a4.1,4.1,0,0,0-.36.46c-.27.4.38.78.65.38a1.66,1.66,0,0,1,.24-.31.38.38,0,0,0-.45-.59,1.94,1.94,0,0,0-.56.48c-.3.37.23.91.53.53Z"/><path class="cls-7" d="M42,218.34a1.08,1.08,0,0,1,.42.3v-.38l0,.06.22-.17-.06,0,.29,0a.74.74,0,0,1-.32-.29c-.28-.39-.93,0-.65.38s.74.91,1.14.45-.3-.87-.63-1-.8.42-.38.65Z"/><path class="cls-7" d="M42,217.48l-.73-.44a.38.38,0,0,0-.51.51,1.14,1.14,0,0,0,.85.6c.47.07.68-.66.2-.72a.47.47,0,0,1-.41-.26l-.51.51.73.44a.38.38,0,0,0,.38-.65Z"/><path class="cls-7" d="M41.7,217.57c-.37.25-1.23.92-.79,1.45s.95-.29,1.06-.68a.38.38,0,0,0-.72-.2l-.1.31.36.1-.07-.06.11.27c0-.19.4-.45.53-.54.4-.27,0-.92-.38-.65Z"/><path class="cls-13" d="M44.81,215a1.38,1.38,0,0,1-.07-.54l-.74.1a4.08,4.08,0,0,0,.2.55c.19.44.84.06.65-.38a2.11,2.11,0,0,1-.12-.37.38.38,0,0,0-.74.1,2,2,0,0,0,.1.73c.15.46.87.26.72-.2Z"/><path class="cls-13" d="M44.94,215.6a1,1,0,0,1,.48-.17l-.32-.19,0,.05,0-.29,0,.06.17-.22a.75.75,0,0,1-.42.1c-.48,0-.48.78,0,.75s1.17-.15,1-.73-.9-.19-1.23,0,0,.88.38.65Z"/><path class="cls-13" d="M44.18,215.16l-.77.37c-.36.17-.15.68.19.7a1.14,1.14,0,0,0,1-.4c.31-.36-.21-.9-.53-.53a.48.48,0,0,1-.44.19l.19.7.77-.37c.43-.21.05-.86-.38-.65Z"/><path class="cls-13" d="M44.1,215.48c0,.44.12,1.56.81,1.43s.24-1,0-1.26-.85.17-.53.53a.67.67,0,0,1,.15.21q.05.14,0,0l.26-.26-.08,0,.29,0c-.15-.1-.15-.6-.15-.74a.38.38,0,0,0-.75,0Z"/><path class="cls-16" d="M45.53,219.92a1.31,1.31,0,0,1,.48.25l.29-.69a3.37,3.37,0,0,0-.47-.13c-.47-.09-.67.63-.2.72a3.37,3.37,0,0,1,.47.13c.44.15.6-.45.29-.69a2,2,0,0,0-.66-.33.38.38,0,0,0-.2.72Z"/><path class="cls-16" d="M44.91,219.7a1,1,0,0,1-.14.49l.32-.19H45l.27.11,0-.05.11.27a.93.93,0,0,1,.17-.39.38.38,0,0,0-.65-.38c-.21.34-.51,1.07.1,1.19s.64-.67.68-1-.7-.48-.75,0Z"/><path class="cls-16" d="M45.69,219.36l.12-.84c0-.32-.37-.7-.63-.36a1.19,1.19,0,0,0-.25,1.11.38.38,0,0,0,.72-.2.37.37,0,0,1,.06-.38l-.63-.36-.12.84c-.07.47.65.68.72.2Z"/><path class="cls-16" d="M45.46,219c-.36-.24-1.24-.71-1.58-.19s.57.8,1,.76.48-.8,0-.75a3.51,3.51,0,0,1-.4,0l.1.36,0-.08-.17.22c.14-.06.57.24.69.32.41.26.78-.39.38-.65Z"/><path class="cls-7" d="M33.37,235.72a1.4,1.4,0,0,1,.41-.36l-.45-.59a4.1,4.1,0,0,0-.36.46c-.27.4.38.78.65.38a1.66,1.66,0,0,1,.24-.31.38.38,0,0,0-.45-.59,1.94,1.94,0,0,0-.56.48c-.3.37.23.91.53.53Z"/><path class="cls-7" d="M32.91,236.15a1.08,1.08,0,0,1,.42.3v-.38l0,.06.22-.17-.06,0,.29,0a.74.74,0,0,1-.32-.29c-.28-.39-.93,0-.65.38s.74.91,1.14.45-.3-.87-.63-1-.8.42-.38.65Z"/><path class="cls-7" d="M32.9,235.29l-.73-.44a.38.38,0,0,0-.51.51,1.14,1.14,0,0,0,.85.6c.47.07.68-.66.2-.72a.47.47,0,0,1-.41-.26l-.51.51.73.44a.38.38,0,0,0,.38-.65Z"/><path class="cls-7" d="M32.59,235.37c-.37.25-1.23.92-.79,1.45s.95-.29,1.06-.68a.38.38,0,0,0-.72-.2l-.1.31.36.1-.07-.06.11.27c0-.19.4-.45.53-.54.4-.27,0-.92-.38-.65Z"/><path class="cls-13" d="M35.7,232.78a1.38,1.38,0,0,1-.07-.54l-.74.1a4.08,4.08,0,0,0,.2.55c.19.44.84.06.65-.38a2.11,2.11,0,0,1-.12-.37.38.38,0,0,0-.74.1,2,2,0,0,0,.1.73c.15.46.87.26.72-.2Z"/><path class="cls-13" d="M35.83,233.4a1,1,0,0,1,.48-.17L36,233l0,.05,0-.29,0,.06.17-.22a.75.75,0,0,1-.42.1c-.48,0-.48.78,0,.75s1.17-.15,1-.73-.9-.19-1.23,0,0,.88.38.65Z"/><path class="cls-13" d="M35.06,233l-.77.37c-.36.17-.15.68.19.7a1.14,1.14,0,0,0,1-.4c.31-.36-.21-.9-.53-.53a.48.48,0,0,1-.44.19l.19.7.77-.37c.43-.21.05-.86-.38-.65Z"/><path class="cls-13" d="M35,233.28c0,.44.12,1.56.81,1.43s.24-1,0-1.26-.85.17-.53.53a.67.67,0,0,1,.15.21q.05.14,0,0l.26-.26-.08,0,.29,0c-.15-.1-.15-.6-.15-.74a.38.38,0,0,0-.75,0Z"/><path class="cls-16" d="M36.41,237.73a1.31,1.31,0,0,1,.48.25l.29-.69a3.37,3.37,0,0,0-.47-.13c-.47-.09-.67.63-.2.72A3.37,3.37,0,0,1,37,238c.44.15.6-.45.29-.69a2,2,0,0,0-.66-.33.38.38,0,0,0-.2.72Z"/><path class="cls-16" d="M35.8,237.51a1,1,0,0,1-.14.49l.32-.19h-.06l.27.11,0-.05.11.27a.93.93,0,0,1,.17-.39.38.38,0,0,0-.65-.38c-.21.34-.51,1.07.1,1.19s.64-.67.68-1-.7-.48-.75,0Z"/><path class="cls-16" d="M36.58,237.16l.12-.84c0-.32-.37-.7-.63-.36a1.19,1.19,0,0,0-.25,1.11.38.38,0,0,0,.72-.2.37.37,0,0,1,.06-.38l-.63-.36-.12.84c-.07.47.65.68.72.2Z"/><path class="cls-16" d="M36.35,236.83c-.36-.24-1.24-.71-1.58-.19s.57.8,1,.76.48-.8,0-.75a3.51,3.51,0,0,1-.4,0l.1.36,0-.08-.17.22c.14-.06.57.24.69.32.41.26.78-.39.38-.65Z"/><path class="cls-7" d="M38.13,233.89a1.4,1.4,0,0,1,.41-.36l-.45-.59a4.1,4.1,0,0,0-.36.46c-.27.4.38.78.65.38a1.66,1.66,0,0,1,.24-.31.38.38,0,0,0-.45-.59,1.94,1.94,0,0,0-.56.48c-.3.37.23.91.53.53Z"/><path class="cls-7" d="M37.67,234.31a1.08,1.08,0,0,1,.42.3v-.38l0,.06.22-.17-.06,0,.29,0a.74.74,0,0,1-.32-.29c-.28-.39-.93,0-.65.38s.74.91,1.14.45-.3-.87-.63-1-.8.42-.38.65Z"/><path class="cls-7" d="M37.66,233.45l-.73-.44a.38.38,0,0,0-.51.51,1.14,1.14,0,0,0,.85.6c.47.07.68-.66.2-.72a.47.47,0,0,1-.41-.26l-.51.51.73.44a.38.38,0,0,0,.38-.65Z"/><path class="cls-7" d="M37.35,233.54c-.37.25-1.23.92-.79,1.45s.95-.29,1.06-.68a.38.38,0,0,0-.72-.2l-.1.31.36.1-.07-.06.11.27c0-.19.4-.45.53-.54.4-.27,0-.92-.38-.65Z"/><path class="cls-13" d="M40.46,230.94a1.38,1.38,0,0,1-.07-.54l-.74.1a4.08,4.08,0,0,0,.2.55c.19.44.84.06.65-.38a2.11,2.11,0,0,1-.12-.37.38.38,0,0,0-.74.1,2,2,0,0,0,.1.73c.15.46.87.26.72-.2Z"/><path class="cls-13" d="M40.59,231.57a1,1,0,0,1,.48-.17l-.32-.19,0,.05,0-.29,0,.06.17-.22a.75.75,0,0,1-.42.1c-.48,0-.48.78,0,.75s1.17-.15,1-.73-.9-.19-1.23,0,0,.88.38.65Z"/><path class="cls-13" d="M39.82,231.13l-.77.37c-.36.17-.15.68.19.7a1.14,1.14,0,0,0,1-.4c.31-.36-.21-.9-.53-.53a.48.48,0,0,1-.44.19l.19.7.77-.37c.43-.21.05-.86-.38-.65Z"/><path class="cls-13" d="M39.74,231.45c0,.44.12,1.56.81,1.43s.24-1,0-1.26-.85.17-.53.53a.67.67,0,0,1,.15.21q.05.14,0,0l.26-.26-.08,0,.29,0c-.15-.1-.15-.6-.15-.74a.38.38,0,0,0-.75,0Z"/><path class="cls-16" d="M41.17,235.89a1.31,1.31,0,0,1,.48.25l.29-.69a3.37,3.37,0,0,0-.47-.13c-.47-.09-.67.63-.2.72a3.37,3.37,0,0,1,.47.13c.44.15.6-.45.29-.69a2,2,0,0,0-.66-.33.38.38,0,0,0-.2.72Z"/><path class="cls-16" d="M40.55,235.67a1,1,0,0,1-.14.49l.32-.19h-.06l.27.11,0-.05.11.27a.93.93,0,0,1,.17-.39.38.38,0,0,0-.65-.38c-.21.34-.51,1.07.1,1.19s.64-.67.68-1-.7-.48-.75,0Z"/><path class="cls-16" d="M41.34,235.33l.12-.84c0-.32-.37-.7-.63-.36a1.19,1.19,0,0,0-.25,1.11.38.38,0,0,0,.72-.2.37.37,0,0,1,.06-.38l-.63-.36-.12.84c-.07.47.65.68.72.2Z"/><path class="cls-16" d="M41.11,235c-.36-.24-1.24-.71-1.58-.19s.57.8,1,.76.48-.8,0-.75a3.51,3.51,0,0,1-.4,0l.1.36,0-.08-.17.22c.14-.06.57.24.69.32.41.26.78-.39.38-.65Z"/><path class="cls-7" d="M43.23,234a1.4,1.4,0,0,1,.41-.36l-.45-.59a4.1,4.1,0,0,0-.36.46c-.27.4.38.78.65.38a1.66,1.66,0,0,1,.24-.31.38.38,0,0,0-.45-.59,1.94,1.94,0,0,0-.56.48c-.3.37.23.91.53.53Z"/><path class="cls-7" d="M42.77,234.45a1.08,1.08,0,0,1,.42.3v-.38l0,.06.22-.17-.06,0,.29,0a.74.74,0,0,1-.32-.29c-.28-.39-.93,0-.65.38s.74.91,1.14.45-.3-.87-.63-1-.8.42-.38.65Z"/><path class="cls-7" d="M42.76,233.59l-.73-.44a.38.38,0,0,0-.51.51,1.14,1.14,0,0,0,.85.6c.47.07.68-.66.2-.72a.47.47,0,0,1-.41-.26l-.51.51.73.44a.38.38,0,0,0,.38-.65Z"/><path class="cls-7" d="M42.44,233.68c-.37.25-1.23.92-.79,1.45s.95-.29,1.06-.68a.38.38,0,0,0-.72-.2l-.1.31.36.1-.07-.06.11.27c0-.19.4-.45.53-.54.4-.27,0-.92-.38-.65Z"/><path class="cls-13" d="M45.55,231.08a1.38,1.38,0,0,1-.07-.54l-.74.1a4.08,4.08,0,0,0,.2.55c.19.44.84.06.65-.38a2.11,2.11,0,0,1-.12-.37.38.38,0,0,0-.74.1,2,2,0,0,0,.1.73c.15.46.87.26.72-.2Z"/><path class="cls-13" d="M45.69,231.71a1,1,0,0,1,.48-.17l-.32-.19,0,.05,0-.29,0,.06L46,231a.75.75,0,0,1-.42.1c-.48,0-.48.78,0,.75s1.17-.15,1-.73-.9-.19-1.23,0,0,.88.38.65Z"/><path class="cls-13" d="M44.92,231.27l-.77.37c-.36.17-.15.68.19.7a1.14,1.14,0,0,0,1-.4c.31-.36-.21-.9-.53-.53a.48.48,0,0,1-.44.19l.19.7.77-.37c.43-.21.05-.86-.38-.65Z"/><path class="cls-13" d="M44.84,231.59c0,.44.12,1.56.81,1.43s.24-1,0-1.26-.85.17-.53.53a.67.67,0,0,1,.15.21q.05.14,0,0l.26-.26-.08,0,.29,0c-.15-.1-.15-.6-.15-.74a.38.38,0,0,0-.75,0Z"/><path class="cls-16" d="M46.27,236a1.31,1.31,0,0,1,.48.25l.29-.69a3.37,3.37,0,0,0-.47-.13c-.47-.09-.67.63-.2.72a3.37,3.37,0,0,1,.47.13c.44.15.6-.45.29-.69a2,2,0,0,0-.66-.33.38.38,0,0,0-.2.72Z"/><path class="cls-16" d="M45.65,235.81a1,1,0,0,1-.14.49l.32-.19h-.06l.27.11,0-.05.11.27a.93.93,0,0,1,.17-.39.38.38,0,0,0-.65-.38c-.21.34-.51,1.07.1,1.19s.64-.67.68-1-.7-.48-.75,0Z"/><path class="cls-16" d="M46.43,235.47l.12-.84c0-.32-.37-.7-.63-.36a1.19,1.19,0,0,0-.25,1.11.38.38,0,0,0,.72-.2.37.37,0,0,1,.06-.38l-.63-.36-.12.84c-.07.47.65.68.72.2Z"/><path class="cls-16" d="M46.21,235.14c-.36-.24-1.24-.71-1.58-.19s.57.8,1,.76.48-.8,0-.75a3.51,3.51,0,0,1-.4,0l.1.36,0-.08-.17.22c.14-.06.57.24.69.32.41.26.78-.39.38-.65Z"/><path class="cls-7" d="M38,239a1.4,1.4,0,0,1,.41-.36l-.45-.59a4.1,4.1,0,0,0-.36.46c-.27.4.38.78.65.38a1.66,1.66,0,0,1,.24-.31A.38.38,0,0,0,38,238a1.94,1.94,0,0,0-.56.48c-.3.37.23.91.53.53Z"/><path class="cls-7" d="M37.53,239.41a1.08,1.08,0,0,1,.42.3v-.38l0,.06.22-.17-.06,0,.29,0a.74.74,0,0,1-.32-.29c-.28-.39-.93,0-.65.38s.74.91,1.14.45-.3-.87-.63-1-.8.42-.38.65Z"/><path class="cls-7" d="M37.52,238.55l-.73-.44a.38.38,0,0,0-.51.51,1.14,1.14,0,0,0,.85.6c.47.07.68-.66.2-.72a.47.47,0,0,1-.41-.26l-.51.51.73.44a.38.38,0,0,0,.38-.65Z"/><path class="cls-7" d="M37.21,238.64c-.37.25-1.23.92-.79,1.45s.95-.29,1.06-.68a.38.38,0,0,0-.72-.2l-.1.31.36.1-.07-.06.11.27c0-.19.4-.45.53-.54.4-.27,0-.92-.38-.65Z"/><path class="cls-13" d="M40.32,236a1.38,1.38,0,0,1-.07-.54l-.74.1a4.08,4.08,0,0,0,.2.55c.19.44.84.06.65-.38a2.11,2.11,0,0,1-.12-.37.38.38,0,0,0-.74.1,2,2,0,0,0,.1.73c.15.46.87.26.72-.2Z"/><path class="cls-13" d="M40.45,236.67a1,1,0,0,1,.48-.17l-.32-.19,0,.05,0-.29,0,.06.17-.22a.75.75,0,0,1-.42.1c-.48,0-.48.78,0,.75s1.17-.15,1-.73-.9-.19-1.23,0,0,.88.38.65Z"/><path class="cls-13" d="M39.68,236.23l-.77.37c-.36.17-.15.68.19.7a1.14,1.14,0,0,0,1-.4c.31-.36-.21-.9-.53-.53a.48.48,0,0,1-.44.19l.19.7.77-.37c.43-.21.05-.86-.38-.65Z"/><path class="cls-13" d="M39.6,236.55c0,.44.12,1.56.81,1.43s.24-1,0-1.26-.85.17-.53.53a.67.67,0,0,1,.15.21q.05.14,0,0l.26-.26-.08,0,.29,0c-.15-.1-.15-.6-.15-.74a.38.38,0,0,0-.75,0Z"/><path class="cls-16" d="M41,241a1.31,1.31,0,0,1,.48.25l.29-.69a3.37,3.37,0,0,0-.47-.13c-.47-.09-.67.63-.2.72a3.37,3.37,0,0,1,.47.13c.44.15.6-.45.29-.69a2,2,0,0,0-.66-.33.38.38,0,0,0-.2.72Z"/><path class="cls-16" d="M40.42,240.77a1,1,0,0,1-.14.49l.32-.19h-.06l.27.11,0-.05.11.27A.93.93,0,0,1,41,241a.38.38,0,0,0-.65-.38c-.21.34-.51,1.07.1,1.19s.64-.67.68-1-.7-.48-.75,0Z"/><path class="cls-16" d="M41.2,240.43l.12-.84c0-.32-.37-.7-.63-.36a1.19,1.19,0,0,0-.25,1.11.38.38,0,0,0,.72-.2.37.37,0,0,1,.06-.38l-.63-.36-.12.84c-.07.47.65.68.72.2Z"/><path class="cls-16" d="M41,240.1c-.36-.24-1.24-.71-1.58-.19s.57.8,1,.76.48-.8,0-.75a3.51,3.51,0,0,1-.4,0l.1.36,0-.08-.17.22c.14-.06.57.24.69.32.41.26.78-.39.38-.65Z"/><path class="cls-7" d="M42.92,238.13a1.4,1.4,0,0,1,.41-.36l-.45-.59a4.1,4.1,0,0,0-.36.46c-.27.4.38.78.65.38a1.66,1.66,0,0,1,.24-.31.38.38,0,0,0-.45-.59,1.94,1.94,0,0,0-.56.48c-.3.37.23.91.53.53Z"/><path class="cls-7" d="M42.46,238.56a1.08,1.08,0,0,1,.42.3v-.38l0,.06.22-.17-.06,0,.29,0a.74.74,0,0,1-.32-.29c-.28-.39-.93,0-.65.38s.74.91,1.14.45-.3-.87-.63-1-.8.42-.38.65Z"/><path class="cls-7" d="M42.45,237.7l-.73-.44a.38.38,0,0,0-.51.51,1.14,1.14,0,0,0,.85.6c.47.07.68-.66.2-.72a.47.47,0,0,1-.41-.26l-.51.51.73.44a.38.38,0,0,0,.38-.65Z"/><path class="cls-7" d="M42.14,237.79c-.37.25-1.23.92-.79,1.45s.95-.29,1.06-.68a.38.38,0,0,0-.72-.2l-.1.31.36.1-.07-.06L42,239c0-.19.4-.45.53-.54.4-.27,0-.92-.38-.65Z"/><path class="cls-13" d="M45.25,235.19a1.38,1.38,0,0,1-.07-.54l-.74.1a4.08,4.08,0,0,0,.2.55c.19.44.84.06.65-.38a2.11,2.11,0,0,1-.12-.37.38.38,0,0,0-.74.1,2,2,0,0,0,.1.73c.15.46.87.26.72-.2Z"/><path class="cls-13" d="M45.38,235.82a1,1,0,0,1,.48-.17l-.32-.19,0,.05,0-.29,0,.06.17-.22a.75.75,0,0,1-.42.1c-.48,0-.48.78,0,.75s1.17-.15,1-.73-.9-.19-1.23,0,0,.88.38.65Z"/><path class="cls-13" d="M44.61,235.38l-.77.37c-.36.17-.15.68.19.7a1.14,1.14,0,0,0,1-.4c.31-.36-.21-.9-.53-.53a.48.48,0,0,1-.44.19l.19.7L45,236c.43-.21.05-.86-.38-.65Z"/><path class="cls-13" d="M44.53,235.7c0,.44.12,1.56.81,1.43s.24-1,0-1.26-.85.17-.53.53a.67.67,0,0,1,.15.21q.05.14,0,0l.26-.26-.08,0,.29,0c-.15-.1-.15-.6-.15-.74a.38.38,0,0,0-.75,0Z"/><path class="cls-16" d="M46,240.14a1.31,1.31,0,0,1,.48.25l.29-.69a3.37,3.37,0,0,0-.47-.13c-.47-.09-.67.63-.2.72a3.37,3.37,0,0,1,.47.13c.44.15.6-.45.29-.69a2,2,0,0,0-.66-.33.38.38,0,0,0-.2.72Z"/><path class="cls-16" d="M45.34,239.92a1,1,0,0,1-.14.49l.32-.19h-.06l.27.11,0-.05.11.27a.93.93,0,0,1,.17-.39.38.38,0,0,0-.65-.38c-.21.34-.51,1.07.1,1.19s.64-.67.68-1-.7-.48-.75,0Z"/><path class="cls-16" d="M46.13,239.58l.12-.84c0-.32-.37-.7-.63-.36a1.19,1.19,0,0,0-.25,1.11.38.38,0,0,0,.72-.2.37.37,0,0,1,.06-.38l-.63-.36-.12.84c-.07.47.65.68.72.2Z"/><path class="cls-16" d="M45.9,239.25c-.36-.24-1.24-.71-1.58-.19s.57.8,1,.76.48-.8,0-.75a3.51,3.51,0,0,1-.4,0l.1.36,0-.08-.17.22c.14-.06.57.24.69.32.41.26.78-.39.38-.65Z"/><path class="cls-7" d="M30.72,232.12a1.4,1.4,0,0,1,.41-.36l-.45-.59a4.1,4.1,0,0,0-.36.46c-.27.4.38.78.65.38a1.66,1.66,0,0,1,.24-.31.38.38,0,0,0-.45-.59,1.94,1.94,0,0,0-.56.48c-.3.37.23.91.53.53Z"/><path class="cls-7" d="M30.26,232.55a1.08,1.08,0,0,1,.42.3v-.38l0,.06.22-.17-.06,0,.29,0a.74.74,0,0,1-.32-.29c-.28-.39-.93,0-.65.38s.74.91,1.14.45-.3-.87-.63-1-.8.42-.38.65Z"/><path class="cls-7" d="M30.25,231.68l-.73-.44a.38.38,0,0,0-.51.51,1.14,1.14,0,0,0,.85.6c.47.07.68-.66.2-.72a.47.47,0,0,1-.41-.26l-.51.51.73.44a.38.38,0,0,0,.38-.65Z"/><path class="cls-7" d="M29.94,231.77c-.37.25-1.23.92-.79,1.45s.95-.29,1.06-.68a.38.38,0,0,0-.72-.2l-.1.31.36.1-.07-.06.11.27c0-.19.4-.45.53-.54.4-.27,0-.92-.38-.65Z"/><path class="cls-13" d="M33,229.17a1.38,1.38,0,0,1-.07-.54l-.74.1a4.08,4.08,0,0,0,.2.55c.19.44.84.06.65-.38a2.11,2.11,0,0,1-.12-.37.38.38,0,0,0-.74.1,2,2,0,0,0,.1.73c.15.46.87.26.72-.2Z"/><path class="cls-13" d="M33.18,229.8a1,1,0,0,1,.48-.17l-.32-.19,0,.05,0-.29,0,.06.17-.22a.75.75,0,0,1-.42.1c-.48,0-.48.78,0,.75s1.17-.15,1-.73-.9-.19-1.23,0,0,.88.38.65Z"/><path class="cls-13" d="M32.41,229.37l-.77.37c-.36.17-.15.68.19.7a1.14,1.14,0,0,0,1-.4c.31-.36-.21-.9-.53-.53a.48.48,0,0,1-.44.19l.19.7.77-.37c.43-.21.05-.86-.38-.65Z"/><path class="cls-13" d="M32.33,229.68c0,.44.12,1.56.81,1.43s.24-1,0-1.26-.85.17-.53.53a.67.67,0,0,1,.15.21q.05.14,0,0l.26-.26-.08,0,.29,0c-.15-.1-.15-.6-.15-.74a.38.38,0,0,0-.75,0Z"/><path class="cls-16" d="M33.76,234.13a1.31,1.31,0,0,1,.48.25l.29-.69a3.37,3.37,0,0,0-.47-.13c-.47-.09-.67.63-.2.72a3.37,3.37,0,0,1,.47.13c.44.15.6-.45.29-.69a2,2,0,0,0-.66-.33.38.38,0,0,0-.2.72Z"/><path class="cls-16" d="M33.15,233.9a1,1,0,0,1-.14.49l.32-.19h-.06l.27.11,0-.05.11.27a.93.93,0,0,1,.17-.39.38.38,0,0,0-.65-.38c-.21.34-.51,1.07.1,1.19s.64-.67.68-1-.7-.48-.75,0Z"/><path class="cls-16" d="M33.93,233.56l.12-.84c0-.32-.37-.7-.63-.36a1.19,1.19,0,0,0-.25,1.11.38.38,0,0,0,.72-.2.37.37,0,0,1,.06-.38l-.63-.36-.12.84c-.07.47.65.68.72.2Z"/><path class="cls-16" d="M33.7,233.23c-.36-.24-1.24-.71-1.58-.19s.57.8,1,.76.48-.8,0-.75a3.51,3.51,0,0,1-.4,0l.1.36,0-.08-.17.22c.14-.06.57.24.69.32.41.26.78-.39.38-.65Z"/><path class="cls-7" d="M29.53,225.22a1.4,1.4,0,0,1,.41-.36l-.45-.59a4.1,4.1,0,0,0-.36.46c-.27.4.38.78.65.38a1.66,1.66,0,0,1,.24-.31.38.38,0,0,0-.45-.59,1.94,1.94,0,0,0-.56.48c-.3.37.23.91.53.53Z"/><path class="cls-7" d="M29.08,225.65a1.08,1.08,0,0,1,.42.3v-.38l0,.06.22-.17-.06,0,.29,0a.74.74,0,0,1-.32-.29c-.28-.39-.93,0-.65.38s.74.91,1.14.45-.3-.87-.63-1-.8.42-.38.65Z"/><path class="cls-7" d="M29.07,224.79l-.73-.44a.38.38,0,0,0-.51.51,1.14,1.14,0,0,0,.85.6c.47.07.68-.66.2-.72a.47.47,0,0,1-.41-.26L28,225l.73.44a.38.38,0,0,0,.38-.65Z"/><path class="cls-7" d="M28.75,224.87c-.37.25-1.23.92-.79,1.45s.95-.29,1.06-.68a.38.38,0,0,0-.72-.2l-.1.31.36.1-.07-.06.11.27c0-.19.4-.45.53-.54.4-.27,0-.92-.38-.65Z"/><path class="cls-13" d="M31.86,222.28a1.38,1.38,0,0,1-.07-.54l-.74.1a4.08,4.08,0,0,0,.2.55c.19.44.84.06.65-.38a2.11,2.11,0,0,1-.12-.37.38.38,0,0,0-.74.1,2,2,0,0,0,.1.73c.15.46.87.26.72-.2Z"/><path class="cls-13" d="M32,222.9a1,1,0,0,1,.48-.17l-.32-.19,0,.05,0-.29,0,.06.17-.22a.75.75,0,0,1-.42.1c-.48,0-.48.78,0,.75s1.17-.15,1-.73-.9-.19-1.23,0,0,.88.38.65Z"/><path class="cls-13" d="M31.23,222.47l-.77.37c-.36.17-.15.68.19.7a1.14,1.14,0,0,0,1-.4c.31-.36-.21-.9-.53-.53a.48.48,0,0,1-.44.19l.19.7.77-.37c.43-.21.05-.86-.38-.65Z"/><path class="cls-13" d="M31.15,222.78c0,.44.12,1.56.81,1.43s.24-1,0-1.26-.85.17-.53.53a.67.67,0,0,1,.15.21q.05.14,0,0l.26-.26-.08,0,.29,0c-.15-.1-.15-.6-.15-.74a.38.38,0,0,0-.75,0Z"/><path class="cls-16" d="M32.58,227.23a1.31,1.31,0,0,1,.48.25l.29-.69a3.37,3.37,0,0,0-.47-.13c-.47-.09-.67.63-.2.72a3.37,3.37,0,0,1,.47.13c.44.15.6-.45.29-.69a2,2,0,0,0-.66-.33.38.38,0,0,0-.2.72Z"/><path class="cls-16" d="M32,227a1,1,0,0,1-.14.49l.32-.19h-.06l.27.11,0-.05.11.27a.93.93,0,0,1,.17-.39.38.38,0,0,0-.65-.38c-.21.34-.51,1.07.1,1.19s.64-.67.68-1-.7-.48-.75,0Z"/><path class="cls-16" d="M32.74,226.66l.12-.84c0-.32-.37-.7-.63-.36a1.19,1.19,0,0,0-.25,1.11.38.38,0,0,0,.72-.2.37.37,0,0,1,.06-.38l-.63-.36-.12.84c-.07.47.65.68.72.2Z"/><path class="cls-16" d="M32.51,226.33c-.36-.24-1.24-.71-1.58-.19s.57.8,1,.76.48-.8,0-.75a3.51,3.51,0,0,1-.4,0l.1.36,0-.08-.17.22c.14-.06.57.24.69.32.41.26.78-.39.38-.65Z"/></g></g></g><g id="Layer_4" data-name="Layer 4"><path class="cls-3" d="M7.53,90.45a35.74,35.74,0,0,0-6.36,25.44,60.92,60.92,0,0,0,2.53,10.24,29.51,29.51,0,0,0,1.84,4.75C8.91,137.31,13.14,140.61,20,143c1,.34,7.74,0,8.57-.44,1.78-1,3.74-1.12,3-4.1,0-.08,0-1.17-.09-1.25-1.18-2.54-3.66-3.39-6.07-4a19.52,19.52,0,0,1-5-1.59,11.91,11.91,0,0,1-3.53-3.25,31,31,0,0,1-5.29-11.79A21.24,21.24,0,0,1,15.31,98.1"/><path class="cls-4" d="M6.56,89.88c-7.72,11.24-8.07,23.88-3.94,36.54,2.69,8.26,9.65,17.52,19.21,17.86,4.79.17,15.35-1.93,9.78-9a9.42,9.42,0,0,0-4.67-2.8c-1.92-.63-4.17-.78-6-1.8-2.63-1.5-4.37-4.35-5.7-7-4.13-8.2-4.51-17.45,1-25.06.85-1.17-1.1-2.3-1.94-1.14-5.84,8.07-5.5,17.8-1.35,26.6,1.85,3.91,4.43,7.66,8.59,9.28,2.56,1,8,1,8.85,4.45.61,2.55-1.67,3.56-3.64,3.93C17,143.62,8.56,136.25,5.32,127.44.75,115,.81,102.22,8.5,91c.82-1.2-1.13-2.32-1.94-1.14Z"/><path class="cls-3" d="M98.75,65.37c15.58-1.39,24.49-4.18,34.54-16.16,2.92-3.48,6.39-9.79,12-5.89,2.33,4,2.09,5,.72,8a19.91,19.91,0,0,1-3.25,4.88,57.07,57.07,0,0,1-6,6.07,44.21,44.21,0,0,1-6.59,4.38c-11.1,6.25-17.44,8.31-30.09,9.86"/><path class="cls-4" d="M98.75,66.5c7.36-.69,14.83-1.68,21.52-5,7.41-3.7,11.5-9.85,17.12-15.56A7.74,7.74,0,0,1,139.81,44c3.23-1.48,6.46,1.4,6,4.82-.36,2.62-2.77,5.3-4.39,7.19a46.58,46.58,0,0,1-13.27,10.46,76.42,76.42,0,0,1-28,8.88c-1.42.18-1.43,2.43,0,2.25a80.77,80.77,0,0,0,31.34-10.41c6.11-3.55,19.18-13,16.23-21.61-1.25-3.63-4.57-5.59-8.29-4s-6.17,6.23-8.88,9.17c-8.69,9.42-19.34,12.39-31.75,13.56-1.43.13-1.44,2.39,0,2.25Z"/></g><g id="Layer_5" data-name="Layer 5"><path class="cls-18" d="M18.72,107.55c.37,6.75-2.06,10.5-1.7,17.25,3.52-1.31,2.95-2.86,5.07-6.18l5.24,7.25a52.2,52.2,0,0,0,1.22-11.38,16.93,16.93,0,0,0,4.08,3.35A143.69,143.69,0,0,0,29,95.53a8.66,8.66,0,0,0,4-.35,129.94,129.94,0,0,0-7-19.83,5.06,5.06,0,0,1,3.16,1.7L24.12,55.41a5.07,5.07,0,0,0,3.28,1.71c-1.22-3.55.12-7-1.5-10.39,2.83-2.75,3.88-3.87,7.47-5.22,5.44-2,33.18-9.72,33.21-16,0,0,8.1,14,13,16.47a2.24,2.24,0,0,1,1.12.95,2.55,2.55,0,0,1,0,1.56,51.53,51.53,0,0,1-3.21,10.28,13,13,0,0,0,4.3-.44c-1.76,7.36-1.34,7.57-4.23,14.5a9.5,9.5,0,0,0,3.72,0,64,64,0,0,1-8.91,23.54,13.2,13.2,0,0,0,6.11-.27,54.59,54.59,0,0,1-3.69,18.71,17.26,17.26,0,0,0,4.12-1.28q-1.72,6.66-3.66,13.26a21.82,21.82,0,0,0,9.06-9.13,10.29,10.29,0,0,0,2.83,7.1c2.44-8.15.69-17,.2-25.53a147.68,147.68,0,0,1,.21-16.58c1.15-20.89,3.88-36.69.23-57.18l-.35-1.5c-1-4.32-4.11-7.59-7.12-10.61-1.33-1.34-5.41-4.82-6.95-5.22C68.7,3,65.87,1.86,61.12,1.4c-2.59-.25-7-.3-9.62-.26-6.14.1-10.49,1.71-16.35,3.7a25.79,25.79,0,0,0-13.52,9.57c-4,5.11-6.93,11.48-6.93,17.31S17.6,80.11,17.8,87.55Z"/><path class="cls-4" d="M17.6,107.55c.11,5.84-1.81,11.4-1.7,17.25a1.14,1.14,0,0,0,1.69,1c3.18-1.41,3.79-3.72,5.47-6.58H21.13l5.24,7.25c.51.71,1.85.77,2.06-.27a63.5,63.5,0,0,0,1.26-11.68l-1.92.8a23,23,0,0,0,4.31,3.53,1.13,1.13,0,0,0,1.69-1,158.35,158.35,0,0,0-3.64-22.6L29,96.66a13,13,0,0,0,4.29-.39,1.14,1.14,0,0,0,.79-1.38A143.23,143.23,0,0,0,27,74.79l-1.27,1.65,2.66,1.41a1.13,1.13,0,0,0,1.88-1.09L25.2,55.11l-1.88,1.09a7.77,7.77,0,0,0,3.77,2,1.14,1.14,0,0,0,1.38-1.38,36.29,36.29,0,0,1-.66-7c-.14-3-.09-3.82,2.56-5.59a24,24,0,0,1,5.93-2.54c4.47-1.48,9-2.89,13.37-4.52,5-1.83,17.33-5.05,18-11.63l-2.1.57a99.51,99.51,0,0,0,7,10.51C74.08,38.58,76,40.14,77.51,42c3,3.78.54,8.42-1.13,12.49-.29.7.43,1.42,1.08,1.42a20,20,0,0,0,4.6-.48l-1.38-1.38a93.61,93.61,0,0,1-4.23,14.5c-.31.75.45,1.35,1.08,1.42a9.5,9.5,0,0,0,3.72,0l-1.08-1.42a66.77,66.77,0,0,1-8.79,23.27,1.14,1.14,0,0,0,1,1.69,17.63,17.63,0,0,0,6.41-.31l-1.42-1.08a58.24,58.24,0,0,1-3.65,18.41c-.32.86.62,1.55,1.38,1.38a24.92,24.92,0,0,0,4.12-1.28l-1.38-1.38q-1.74,6.66-3.66,13.26a1.14,1.14,0,0,0,1.65,1.27,24.69,24.69,0,0,0,9.46-9.54l-2.1-.57a13.11,13.11,0,0,0,3.16,7.9,1.13,1.13,0,0,0,1.88-.5c1.6-6.1,1.37-12.21.84-18.45a163.23,163.23,0,0,1-.49-22.11c.68-13.62,2.45-27.23,2.12-40.89-.23-9.38-.21-20.42-6.62-27.91C77.82,4.5,70.68,1.2,61.12.27,41.46-1.63,17,6.34,13.8,28.77c-.84,5.83.16,12.17.5,18,.5,8.57,1,17.13,1.56,25.69.7,11.69,1.19,23.38,1.73,35.07.07,1.44,2.32,1.45,2.25,0-1-22.51-2.45-45-3.67-67.48-.38-7-.6-13.09,2.86-19.62C24.73,9.72,35,4.62,46.66,2.68c9.65-1.6,23.08-.81,30.77,5.7,3.83,3.24,7.47,7.06,8.88,12S88,31,88.28,36.19c.7,13.56-1,27.08-1.78,40.6a155.91,155.91,0,0,0-.2,20.36c.56,7.89,1.77,15.6-.28,23.39l1.88-.5a9.2,9.2,0,0,1-2.5-6.31,1.13,1.13,0,0,0-2.1-.57,22.4,22.4,0,0,1-8.65,8.73l1.65,1.27q1.93-6.6,3.66-13.26c.2-.75-.55-1.72-1.38-1.38a24.92,24.92,0,0,1-4.12,1.28l1.38,1.38a60.09,60.09,0,0,0,3.73-19,1.14,1.14,0,0,0-1.42-1.08,14.81,14.81,0,0,1-5.81.23l1,1.69a68.42,68.42,0,0,0,9-23.81c.12-.65-.3-1.49-1.08-1.42a9.5,9.5,0,0,1-3.72,0l1.08,1.42a93.62,93.62,0,0,0,4.23-14.5,1.14,1.14,0,0,0-1.38-1.38,11.91,11.91,0,0,1-4,.4l1.08,1.42c1.17-2.83,4.52-9.22,3.19-12.43-.74-1.79-4-3.36-5.31-4.86A77.89,77.89,0,0,1,67.55,25a1.14,1.14,0,0,0-2.1.57c-.3,2.91-5.86,5-8.07,6.07a125.84,125.84,0,0,1-13,5c-7.15,2.44-13.75,3.88-19.32,9.28A1.11,1.11,0,0,0,24.81,47c1.16,3.35.68,6.94,1.5,10.39L27.69,56l-2.78-1.43A1.13,1.13,0,0,0,23,55.71l5.09,21.64L30,76.26a7.83,7.83,0,0,0-3.66-2,1.14,1.14,0,0,0-1.27,1.65,139.32,139.32,0,0,1,6.86,19.56l.79-1.38a7.88,7.88,0,0,1-3.69.31A1.14,1.14,0,0,0,28,95.83a154.12,154.12,0,0,1,3.56,22l1.69-1a20.93,20.93,0,0,1-3.85-3.18,1.14,1.14,0,0,0-1.92.8,60.32,60.32,0,0,1-1.18,11.08l2.06-.27L23.07,118a1.14,1.14,0,0,0-1.94,0c-1.39,2.36-1.94,4.57-4.67,5.78l1.69,1C18,119,20,113.4,19.85,107.55A1.13,1.13,0,0,0,17.6,107.55Z"/></g><g id="Layer_6" data-name="Layer 6"><path class="cls-19" d="M79.84,222.78a7.69,7.69,0,0,1,.36-3.32A5.46,5.46,0,0,1,81,218c.17-.22.92-1.2,1.2-1.09-.33-.13-.05,1.06-.06,1.31a3.93,3.93,0,0,1-.69,2.07,5.79,5.79,0,0,1-2.49,1.93c-.88.4-.12,1.69.76,1.3a6.64,6.64,0,0,0,3.51-3.39c.48-1.15.84-3.74-.49-4.55-1.15-.69-2.52.91-3.09,1.73a8.3,8.3,0,0,0-1.27,5.45c.09,1,1.59,1,1.5,0Z"/><path class="cls-19" d="M79.23,222.35c-.52-1.38-.91-3.45-2.35-4.2s-2.57.2-3.23,1.34c-1.64,2.8,3,5.39,5.3,5.32,1,0,1-1.53,0-1.5a4.18,4.18,0,0,1-2.43-.84c-.52-.33-1.58-.9-1.69-1.6a1.54,1.54,0,0,1,.61-1.23c.53-.4,1,0,1.32.46a19.33,19.33,0,0,1,1,2.64c.34.9,1.79.51,1.45-.4Z"/><path class="cls-19" d="M78,223.31l-2.51,5.24c-.42.87.88,1.63,1.3.76l2.51-5.24c.42-.87-.88-1.63-1.3-.76Z"/><path class="cls-19" d="M78.27,224.57a21.53,21.53,0,0,1,1.88,4.32c.29.92,1.73.53,1.45-.4a23.39,23.39,0,0,0-2-4.68.75.75,0,0,0-1.3.76Z"/><path class="cls-19" d="M37.06,220.35a7.75,7.75,0,0,1-.62-3.28,5.62,5.62,0,0,1,.27-1.5,4.14,4.14,0,0,1,.46-1q.62-.85.34-.41a12,12,0,0,1,.46,1.46,3.81,3.81,0,0,1-.07,1.67A5.58,5.58,0,0,1,36,220.06c-.72.64.34,1.7,1.06,1.06a6.6,6.6,0,0,0,2.43-4.7c0-1.18-.43-3.25-1.69-3.75s-2.09,1.2-2.44,2.1a8.19,8.19,0,0,0,.21,6c.35.89,1.8.5,1.45-.4Z"/><path class="cls-19" d="M36.35,220.11c-.89-1.17-1.87-3-3.45-3.36s-2.4.91-2.73,2.19c-.8,3.18,4.45,4.3,6.59,3.59.91-.3.52-1.75-.4-1.45a4.37,4.37,0,0,1-2.7-.13c-.6-.17-1.63-.38-2-1a1.45,1.45,0,0,1,.25-1.42,1.14,1.14,0,0,1,1.57.34c.56.6,1,1.33,1.54,2s1.88,0,1.3-.76Z"/><path class="cls-19" d="M35.41,221.36l-.89,5.75c-.15.94,1.3,1.35,1.45.4l.89-5.75c.15-.94-1.3-1.35-1.45-.4Z"/><path class="cls-19" d="M36,222.49a21.27,21.27,0,0,1,3.06,3.59c.54.8,1.84,0,1.3-.76a23,23,0,0,0-3.29-3.9c-.7-.66-1.76.4-1.06,1.06Z"/></g></g></svg>