<?xml version="1.0" standalone="no"?>
<!DOCTYPE svg PUBLIC "-//W3C//DTD SVG 20010904//EN"
 "http://www.w3.org/TR/2001/REC-SVG-20010904/DTD/svg10.dtd">
<svg version="1.0" xmlns="http://www.w3.org/2000/svg"
 width="260.000000pt" height="260.000000pt" viewBox="0 0 260.000000 260.000000"
 preserveAspectRatio="xMidYMid meet">
<metadata>
Created by potrace 1.11, written by Peter Selinger 2001-2013
</metadata>
<g transform="translate(0.000000,260.000000) scale(0.100000,-0.100000)"
fill="#000000" stroke="none">
<path d="M1132 2580 c-301 -43 -565 -179 -775 -400 -171 -180 -278 -385 -333
-641 -26 -118 -26 -380 0 -498 59 -273 167 -474 360 -667 190 -189 386 -297
646 -355 121 -27 419 -27 540 0 260 58 456 166 646 355 193 193 301 394 360
667 14 62 18 127 18 249 0 122 -4 187 -18 249 -59 273 -167 474 -360 667 -190
189 -384 296 -646 355 -98 22 -340 33 -438 19z m273 -405 c28 -4 68 -15 90
-25 22 -9 51 -21 65 -25 14 -4 37 -16 52 -26 14 -11 30 -19 36 -19 5 0 16 -7
23 -17 8 -9 42 -29 77 -44 68 -31 80 -46 62 -80 -13 -22 -115 -166 -147 -206
-25 -31 -69 -22 -76 17 -6 29 -86 128 -126 156 -14 10 -51 19 -91 22 -112 8
-168 -35 -191 -146 -11 -51 -11 -69 0 -100 16 -44 73 -121 133 -178 24 -22 63
-61 88 -85 25 -24 64 -56 87 -70 75 -50 191 -168 217 -223 68 -144 87 -267 60
-387 -22 -100 -19 -94 -116 -209 -57 -67 -71 -78 -128 -98 -68 -24 -64 -24
-320 -8 -70 4 -166 33 -206 63 -17 13 -35 23 -41 23 -6 0 -22 11 -37 25 -15
14 -31 25 -35 25 -29 0 -131 130 -131 166 0 9 -12 35 -26 59 -33 57 -26 77 40
109 30 15 70 38 90 51 63 43 103 27 121 -47 9 -35 62 -96 116 -133 40 -28 48
-30 138 -30 83 0 102 3 138 24 44 25 66 59 81 128 18 79 1 113 -118 239 -11
12 -20 26 -20 31 0 5 -21 30 -47 55 -187 178 -184 174 -246 302 -30 61 -41
100 -50 170 -20 164 -17 201 26 290 60 123 137 187 246 206 46 8 70 8 166 -5z"/>
</g>
</svg>
